<svg width="235" height="36" viewBox="0 0 235 36" fill="none" xmlns="http://www.w3.org/2000/svg">
<g clip-path="url(#clip0_813_1244)">
<rect width="7.53051" height="32.2847" rx="3.76525" transform="matrix(0.90298 -0.429683 -0.429683 -0.90298 23.0508 31.5588)" fill="#999999"/>
<mask id="mask0_813_1244" style="mask-type:alpha" maskUnits="userSpaceOnUse" x="-1" y="0" width="29" height="32">
<path d="M10.6621 2.51345C12.0515 -0.402682 16.1982 -0.391886 17.5861 2.52495L27.8344 24.0622C27.8344 24.0622 24.1543 21.6325 19.7497 22.414C16.4285 23.0032 10.3848 29.2717 3.75673 30.9491C0.355152 31.8099 -1.45388 27.9031 0.0599923 24.7377C2.99875 18.5929 7.53968 9.0668 10.6621 2.51345Z" fill="#D9D9D9"/>
</mask>
<g mask="url(#mask0_813_1244)">
<path d="M10.6629 2.51655C12.0518 -0.400353 16.1991 -0.38988 17.5873 2.52737L27.8344 24.0622C27.8344 24.0622 24.1544 21.6325 19.7497 22.414C16.5959 22.9735 11.06 28.5129 4.86859 30.4404C1.01582 31.6398 -1.10456 27.1941 0.634849 23.5531C3.53752 17.4771 7.72564 8.68535 10.6629 2.51655Z" fill="#666666"/>
<path d="M7.87691 -5.92602C9.26633 -8.84216 13.413 -8.83136 14.801 -5.91452L25.0492 15.6227C25.0492 15.6227 21.3692 13.193 16.9646 13.9745C12.5599 14.756 3.36703 25.526 -5.62695 22.3291C-5.366 21.8574 2.99169 4.3272 7.87691 -5.92602Z" fill="#333333"/>
<path d="M6.71187 -13.0586C8.10129 -15.9748 12.248 -15.964 13.6359 -13.0472L23.8842 8.49006C23.8842 8.49006 20.2042 6.06041 15.7995 6.84188C11.3949 7.62334 2.20199 18.3934 -6.79199 15.1965C-6.53104 14.7247 1.82665 -2.80543 6.71187 -13.0586Z" fill="black"/>
</g>
</g>
<g clip-path="url(#clip1_813_1244)">
<rect x="46.106" y="-0.52257" width="7.53051" height="32.2847" rx="3.76525" transform="rotate(25.4475 46.106 -0.52257)" fill="#999999"/>
<mask id="mask1_813_1244" style="mask-type:alpha" maskUnits="userSpaceOnUse" x="22" y="-1" width="29" height="32">
<path d="M33.7172 28.5232C35.1067 31.4394 39.2534 31.4286 40.6413 28.5117L50.8895 6.97454C50.8895 6.97454 47.2095 9.40419 42.8049 8.62272C39.4836 8.03347 33.44 1.76504 26.8119 0.0876236C23.4103 -0.773243 21.6013 3.13359 23.1152 6.29903C26.0539 12.4438 30.5949 21.9699 33.7172 28.5232Z" fill="#D9D9D9"/>
</mask>
<g mask="url(#mask1_813_1244)">
<path d="M33.7181 28.5201C35.1069 31.4371 39.2543 31.4266 40.6425 28.5093L50.8895 6.97454C50.8895 6.97454 47.2095 9.40419 42.8049 8.62272C39.6511 8.06318 34.1152 2.52377 27.9238 0.596336C24.071 -0.60305 21.9506 3.84262 23.69 7.48362C26.5927 13.5596 30.7808 22.3514 33.7181 28.5201Z" fill="#666666"/>
<path d="M30.9321 36.9631C32.3215 39.8792 36.4682 39.8684 37.8561 36.9516L48.1044 15.4144C48.1044 15.4144 44.4244 17.844 40.0197 17.0626C35.6151 16.2811 26.4222 5.51107 17.4282 8.70798C17.6892 9.17971 26.0469 26.7099 30.9321 36.9631Z" fill="#333333"/>
<path d="M29.767 44.0957C31.1565 47.0119 35.3032 47.0011 36.6911 44.0842L46.9393 22.547C46.9393 22.547 43.2593 24.9767 38.8547 24.1952C34.4501 23.4137 25.2572 12.6437 16.2632 15.8406C16.5241 16.3123 24.8818 33.8425 29.767 44.0957Z" fill="black"/>
</g>
</g>
<path d="M59.9646 29.2664C58.8029 29.2664 57.7396 29.0596 56.7748 28.6461C55.8297 28.2129 55.0027 27.6321 54.2938 26.9035C53.6047 26.1553 53.0632 25.2988 52.6694 24.3339C52.2953 23.3691 52.1082 22.3452 52.1082 21.2623C52.1082 19.8052 52.4429 18.4761 53.1124 17.275C53.7819 16.0738 54.7073 15.109 55.8887 14.3805C57.0899 13.6519 58.4583 13.2877 59.9942 13.2877C61.5497 13.2877 62.8985 13.6618 64.0405 14.41C65.2023 15.1386 66.0982 16.1034 66.7283 17.3045C67.3781 18.4859 67.703 19.7658 67.703 21.1441C67.703 21.341 67.6931 21.5379 67.6734 21.7348C67.6734 21.912 67.6636 22.0499 67.6439 22.1483H54.855C54.9338 23.1525 55.2094 24.0484 55.682 24.836C56.1743 25.604 56.8043 26.2144 57.5723 26.6672C58.3402 27.1004 59.1672 27.317 60.0533 27.317C60.9984 27.317 61.8845 27.0807 62.7115 26.6082C63.5581 26.1356 64.139 25.5154 64.454 24.7474L66.6987 25.3677C66.364 26.1159 65.8619 26.7854 65.1924 27.3761C64.5427 27.9668 63.7649 28.4295 62.8591 28.7643C61.9731 29.099 61.0082 29.2664 59.9646 29.2664ZM54.7664 20.3466H65.281C65.2023 19.3424 64.9168 18.4564 64.4245 17.6885C63.9323 16.9205 63.3022 16.32 62.5342 15.8868C61.7663 15.4536 60.9196 15.237 59.9942 15.237C59.0884 15.237 58.2516 15.4536 57.4837 15.8868C56.7157 16.32 56.0856 16.9205 55.5934 17.6885C55.1208 18.4564 54.8452 19.3424 54.7664 20.3466ZM83.9717 28.971H81.3726V20.3466C81.3726 18.7124 81.1166 17.5211 80.6047 16.7729C80.1124 16.0049 79.3543 15.621 78.3304 15.621C77.6216 15.621 76.9127 15.7982 76.2039 16.1526C75.5147 16.507 74.8945 16.9894 74.3431 17.5998C73.8115 18.1906 73.4275 18.8797 73.1913 19.6673V28.971H70.5921V13.5535H72.955V16.8615C73.3685 16.1329 73.9001 15.5028 74.5499 14.9712C75.1997 14.4395 75.9381 14.026 76.765 13.7307C77.592 13.4353 78.4584 13.2877 79.3642 13.2877C80.2502 13.2877 80.9886 13.455 81.5793 13.7898C82.1897 14.1048 82.6623 14.5577 82.997 15.1484C83.3515 15.7194 83.5976 16.3987 83.7354 17.1863C83.893 17.974 83.9717 18.8305 83.9717 19.7559V28.971ZM95.8438 28.2031C95.6272 28.3015 95.3319 28.4295 94.9578 28.5871C94.5837 28.7446 94.1505 28.8824 93.6582 29.0006C93.1659 29.1187 92.6442 29.1778 92.0928 29.1778C91.4627 29.1778 90.8819 29.0695 90.3502 28.8529C89.8186 28.6166 89.3952 28.2622 89.0802 27.7896C88.7652 27.2973 88.6076 26.6869 88.6076 25.9584V15.5914H86.5106V13.5535H88.6076V8.4143H91.2068V13.5535H94.6624V15.5914H91.2068V25.1609C91.2461 25.7123 91.4332 26.1258 91.7679 26.4014C92.1027 26.6574 92.4965 26.7854 92.9494 26.7854C93.4613 26.7854 93.9339 26.6968 94.3671 26.5196C94.8002 26.3424 95.0858 26.2144 95.2236 26.1356L95.8438 28.2031ZM98.1052 22.7981V13.5535H100.704V22.296C100.704 23.8712 100.98 25.0526 101.531 25.8403C102.083 26.6279 102.9 27.0217 103.983 27.0217C104.692 27.0217 105.371 26.874 106.021 26.5786C106.69 26.2636 107.291 25.8206 107.822 25.2495C108.354 24.6785 108.767 23.9992 109.063 23.2116V13.5535H111.662V26.0175C111.662 26.3325 111.721 26.5688 111.839 26.7263C111.977 26.8642 112.194 26.9429 112.489 26.9626V28.971C112.194 29.0104 111.957 29.0301 111.78 29.0301C111.623 29.0498 111.465 29.0596 111.308 29.0596C110.815 29.0596 110.392 28.9119 110.038 28.6166C109.683 28.3015 109.496 27.9176 109.476 27.4647L109.417 25.663C108.748 26.8051 107.842 27.6911 106.7 28.3212C105.578 28.9513 104.347 29.2664 103.008 29.2664C101.393 29.2664 100.173 28.7249 99.3456 27.6419C98.5186 26.5393 98.1052 24.9247 98.1052 22.7981ZM124.143 15.8277C122.844 15.8474 121.692 16.1821 120.688 16.8319C119.703 17.462 119.004 18.3382 118.591 19.4606V28.971H115.991V13.5535H118.413V17.1273C118.945 16.064 119.644 15.2075 120.51 14.5577C121.396 13.8882 122.322 13.5141 123.287 13.4353C123.484 13.4353 123.651 13.4353 123.789 13.4353C123.927 13.4353 124.045 13.4452 124.143 13.4649V15.8277ZM133.198 29.2664C132.036 29.2664 130.973 29.0596 130.008 28.6461C129.063 28.2129 128.236 27.6321 127.527 26.9035C126.838 26.1553 126.296 25.2988 125.902 24.3339C125.528 23.3691 125.341 22.3452 125.341 21.2623C125.341 19.8052 125.676 18.4761 126.345 17.275C127.015 16.0738 127.94 15.109 129.122 14.3805C130.323 13.6519 131.691 13.2877 133.227 13.2877C134.783 13.2877 136.132 13.6618 137.274 14.41C138.435 15.1386 139.331 16.1034 139.961 17.3045C140.611 18.4859 140.936 19.7658 140.936 21.1441C140.936 21.341 140.926 21.5379 140.906 21.7348C140.906 21.912 140.897 22.0499 140.877 22.1483H128.088C128.167 23.1525 128.443 24.0484 128.915 24.836C129.407 25.604 130.037 26.2144 130.805 26.6672C131.573 27.1004 132.4 27.317 133.286 27.317C134.231 27.317 135.118 27.0807 135.945 26.6082C136.791 26.1356 137.372 25.5154 137.687 24.7474L139.932 25.3677C139.597 26.1159 139.095 26.7854 138.426 27.3761C137.776 27.9668 136.998 28.4295 136.092 28.7643C135.206 29.099 134.241 29.2664 133.198 29.2664ZM127.999 20.3466H138.514C138.435 19.3424 138.15 18.4564 137.658 17.6885C137.165 16.9205 136.535 16.32 135.767 15.8868C134.999 15.4536 134.153 15.237 133.227 15.237C132.322 15.237 131.485 15.4536 130.717 15.8868C129.949 16.32 129.319 16.9205 128.826 17.6885C128.354 18.4564 128.078 19.3424 127.999 20.3466ZM156.582 29.2664C155.303 29.2664 154.101 29.0596 152.979 28.6461C151.857 28.2129 150.892 27.573 150.085 26.7263L151.089 24.8951C151.975 25.7221 152.861 26.3128 153.747 26.6672C154.633 27.0217 155.539 27.1989 156.464 27.1989C157.528 27.1989 158.394 27.002 159.063 26.6082C159.733 26.1947 160.068 25.5941 160.068 24.8065C160.068 24.2355 159.89 23.8121 159.536 23.5365C159.201 23.2608 158.719 23.0344 158.089 22.8572C157.459 22.6603 156.71 22.4437 155.844 22.2074C154.781 21.8923 153.885 21.5576 153.156 21.2032C152.428 20.8488 151.876 20.4057 151.502 19.8741C151.128 19.3424 150.941 18.673 150.941 17.8657C150.941 16.8811 151.197 16.0542 151.709 15.3847C152.221 14.6955 152.92 14.1737 153.806 13.8193C154.712 13.4649 155.736 13.2877 156.878 13.2877C158.02 13.2877 159.054 13.4649 159.979 13.8193C160.905 14.1737 161.702 14.6955 162.371 15.3847L161.19 17.1863C160.58 16.5563 159.91 16.0935 159.182 15.7982C158.453 15.4831 157.636 15.3256 156.73 15.3256C156.199 15.3256 155.677 15.3945 155.165 15.5324C154.653 15.6505 154.229 15.8769 153.895 16.2117C153.56 16.5267 153.393 16.9796 153.393 17.5703C153.393 18.0626 153.521 18.4564 153.777 18.7517C154.052 19.0274 154.446 19.2637 154.958 19.4606C155.49 19.6575 156.13 19.8741 156.878 20.1104C158.04 20.4451 159.044 20.7798 159.89 21.1146C160.757 21.4493 161.426 21.8825 161.899 22.4141C162.371 22.9458 162.608 23.6842 162.608 24.6293C162.608 26.0864 162.056 27.2284 160.954 28.0554C159.851 28.8627 158.394 29.2664 156.582 29.2664ZM173.692 28.2031C173.475 28.3015 173.18 28.4295 172.806 28.5871C172.432 28.7446 171.998 28.8824 171.506 29.0006C171.014 29.1187 170.492 29.1778 169.941 29.1778C169.311 29.1778 168.73 29.0695 168.198 28.8529C167.667 28.6166 167.243 28.2622 166.928 27.7896C166.613 27.2973 166.456 26.6869 166.456 25.9584V15.5914H164.359V13.5535H166.456V8.4143H169.055V13.5535H172.51V15.5914H169.055V25.1609C169.094 25.7123 169.281 26.1258 169.616 26.4014C169.951 26.6574 170.344 26.7854 170.797 26.7854C171.309 26.7854 171.782 26.6968 172.215 26.5196C172.648 26.3424 172.934 26.2144 173.072 26.1356L173.692 28.2031ZM175.953 22.7981V13.5535H178.552V22.296C178.552 23.8712 178.828 25.0526 179.379 25.8403C179.931 26.6279 180.748 27.0217 181.831 27.0217C182.54 27.0217 183.219 26.874 183.869 26.5786C184.538 26.2636 185.139 25.8206 185.67 25.2495C186.202 24.6785 186.615 23.9992 186.911 23.2116V13.5535H189.51V26.0175C189.51 26.3325 189.569 26.5688 189.687 26.7263C189.825 26.8642 190.042 26.9429 190.337 26.9626V28.971C190.042 29.0104 189.805 29.0301 189.628 29.0301C189.471 29.0498 189.313 29.0596 189.156 29.0596C188.663 29.0596 188.24 28.9119 187.885 28.6166C187.531 28.3015 187.344 27.9176 187.324 27.4647L187.265 25.663C186.596 26.8051 185.69 27.6911 184.548 28.3212C183.426 28.9513 182.195 29.2664 180.856 29.2664C179.241 29.2664 178.021 28.7249 177.194 27.6419C176.367 26.5393 175.953 24.9247 175.953 22.7981ZM192.835 21.2918C192.835 19.8347 193.131 18.5056 193.721 17.3045C194.332 16.0837 195.159 15.109 196.202 14.3805C197.266 13.6519 198.477 13.2877 199.835 13.2877C201.076 13.2877 202.188 13.6126 203.173 14.2623C204.157 14.9121 204.925 15.6997 205.476 16.6252V7.41009H208.076V26.0175C208.076 26.3325 208.135 26.5688 208.253 26.7263C208.391 26.8642 208.607 26.9429 208.903 26.9626V28.971C208.41 29.0498 208.026 29.0892 207.751 29.0892C207.239 29.0892 206.786 28.9119 206.392 28.5575C206.018 28.2031 205.831 27.8093 205.831 27.3761V26.0765C205.22 27.0611 204.403 27.8388 203.379 28.4098C202.356 28.9809 201.292 29.2664 200.19 29.2664C199.126 29.2664 198.142 29.0596 197.236 28.6461C196.35 28.2129 195.572 27.6222 194.903 26.874C194.253 26.1258 193.741 25.2791 193.367 24.3339C193.012 23.3691 192.835 22.3551 192.835 21.2918ZM205.476 23.566V19.1357C205.24 18.4662 204.856 17.8657 204.325 17.334C203.793 16.7827 203.192 16.3495 202.523 16.0345C201.873 15.6997 201.223 15.5324 200.574 15.5324C199.806 15.5324 199.107 15.6997 198.477 16.0345C197.866 16.3495 197.334 16.7827 196.882 17.334C196.448 17.8657 196.114 18.4761 195.877 19.1652C195.641 19.8544 195.523 20.5731 195.523 21.3213C195.523 22.0892 195.651 22.8178 195.907 23.5069C196.183 24.1961 196.557 24.8065 197.029 25.3382C197.522 25.8698 198.083 26.2833 198.713 26.5786C199.363 26.874 200.062 27.0217 200.81 27.0217C201.282 27.0217 201.765 26.9331 202.257 26.7559C202.769 26.5786 203.251 26.3325 203.704 26.0175C204.157 25.7024 204.541 25.3382 204.856 24.9247C205.171 24.4915 205.378 24.0386 205.476 23.566ZM212.415 28.971V13.5535H215.014V28.971H212.415ZM212.415 10.659V7.41009H215.014V10.659H212.415ZM225.956 29.2664C224.794 29.2664 223.74 29.0596 222.795 28.6461C221.85 28.2129 221.033 27.6321 220.344 26.9035C219.655 26.1553 219.123 25.2988 218.749 24.3339C218.375 23.3691 218.188 22.3551 218.188 21.2918C218.188 20.2088 218.375 19.1849 218.749 18.2201C219.123 17.2553 219.655 16.4086 220.344 15.68C221.033 14.9318 221.85 14.3509 222.795 13.9374C223.76 13.5043 224.823 13.2877 225.985 13.2877C227.127 13.2877 228.171 13.5043 229.116 13.9374C230.061 14.3509 230.878 14.9318 231.567 15.68C232.276 16.4086 232.818 17.2553 233.192 18.2201C233.566 19.1849 233.753 20.2088 233.753 21.2918C233.753 22.3551 233.566 23.3691 233.192 24.3339C232.818 25.2988 232.286 26.1553 231.597 26.9035C230.908 27.6321 230.081 28.2129 229.116 28.6461C228.171 29.0596 227.117 29.2664 225.956 29.2664ZM220.846 21.3213C220.846 22.3846 221.072 23.3494 221.525 24.2158C221.998 25.0822 222.618 25.7713 223.386 26.2833C224.154 26.7755 225.01 27.0217 225.956 27.0217C226.901 27.0217 227.757 26.7657 228.525 26.2538C229.313 25.7418 229.933 25.0526 230.386 24.1863C230.859 23.3002 231.095 22.3255 231.095 21.2623C231.095 20.199 230.859 19.2341 230.386 18.3678C229.933 17.5014 229.313 16.8122 228.525 16.3003C227.757 15.7883 226.901 15.5324 225.956 15.5324C225.01 15.5324 224.154 15.7982 223.386 16.3298C222.618 16.8418 221.998 17.5309 221.525 18.3973C221.072 19.2637 220.846 20.2384 220.846 21.3213Z" fill="black"/>
<defs>
<clipPath id="clip0_813_1244">
<rect width="28.6443" height="30.3778" fill="white" transform="matrix(1 0 0 -1 0 30.707)"/>
</clipPath>
<clipPath id="clip1_813_1244">
<rect width="28.6443" height="30.3778" fill="white" transform="translate(23.0552 0.329235)"/>
</clipPath>
</defs>
</svg>
