<svg width="235" height="36" viewBox="0 0 235 36" fill="none" xmlns="http://www.w3.org/2000/svg">
<g clip-path="url(#clip0_794_3408)">
<rect width="7.53045" height="32.2845" rx="3.76523" transform="matrix(0.90298 -0.429683 -0.429683 -0.90298 23.0508 31.5098)" fill="#E6E6E6"/>
<mask id="mask0_794_3408" style="mask-type:alpha" maskUnits="userSpaceOnUse" x="-1" y="0" width="29" height="32">
<path d="M10.662 2.4648C12.0514 -0.451312 16.198 -0.440514 17.586 2.4763L27.8341 24.0134C27.8341 24.0134 24.1542 21.5837 19.7496 22.3652C16.4283 22.9544 10.3847 29.2228 3.75669 30.9002C0.355132 31.7611 -1.45389 27.8543 0.0599725 24.6889C2.99871 18.5441 7.53961 9.0181 10.662 2.4648Z" fill="#D9D9D9"/>
</mask>
<g mask="url(#mask0_794_3408)">
<path d="M10.6623 2.46791C12.0512 -0.448975 16.1985 -0.438506 17.5867 2.47873L27.8337 24.0134C27.8337 24.0134 24.1537 21.5837 19.7491 22.3652C16.5953 22.9247 11.0595 28.4641 4.86805 30.3915C1.0153 31.5909 -1.10506 27.1453 0.634337 23.5043C3.53699 17.4283 7.72507 8.63666 10.6623 2.46791Z" fill="white"/>
<path d="M7.87682 -5.97465C9.26622 -8.89076 13.4129 -8.87997 14.8008 -5.96315L25.049 15.5739C25.049 15.5739 21.369 13.1443 16.9644 13.9257C12.5598 14.7072 3.36696 25.4772 -5.62695 22.2803C-5.366 21.8085 2.99163 4.2785 7.87682 -5.97465Z" fill="#E6E6E6"/>
<path d="M6.71178 -13.1075C8.10118 -16.0236 12.2478 -16.0128 13.6358 -13.096L23.8839 8.4411C23.8839 8.4411 20.204 6.01146 15.7994 6.79292C11.3948 7.57438 2.20192 18.3443 -6.79199 15.1475C-6.53104 14.6757 1.8266 -2.85432 6.71178 -13.1075Z" fill="#CCCCCC"/>
</g>
</g>
<g clip-path="url(#clip1_794_3408)">
<rect x="46.1055" y="-0.572266" width="7.53045" height="32.2845" rx="3.76523" transform="rotate(25.4475 46.1055 -0.572266)" fill="#E6E6E6"/>
<mask id="mask1_794_3408" style="mask-type:alpha" maskUnits="userSpaceOnUse" x="22" y="-1" width="29" height="32">
<path d="M33.7167 28.4722C35.1061 31.3883 39.2527 31.3775 40.6407 28.4607L50.8888 6.92365C50.8888 6.92365 47.2088 9.35329 42.8042 8.57183C39.483 7.98258 33.4394 1.71419 26.8114 0.0367889C23.4098 -0.82407 21.6008 3.08273 23.1147 6.24815C26.0534 12.3929 30.5943 21.9189 33.7167 28.4722Z" fill="#D9D9D9"/>
</mask>
<g mask="url(#mask1_794_3408)">
<path d="M33.718 28.4691C35.1068 31.386 39.2542 31.3755 40.6423 28.4583L50.8893 6.92365C50.8893 6.92365 47.2093 9.35329 42.8047 8.57183C39.6509 8.01228 34.1151 2.47291 27.9237 0.545498C24.071 -0.653881 21.9506 3.79176 23.69 7.43272C26.5927 13.5087 30.7807 22.3004 33.718 28.4691Z" fill="white"/>
<path d="M30.9325 36.9126C32.3219 39.8288 36.4686 39.818 37.8565 36.9011L48.1046 15.3641C48.1046 15.3641 44.4247 17.7937 40.0201 17.0123C35.6155 16.2308 26.4226 5.46083 17.4287 8.65771C17.6897 9.12944 26.0473 26.6595 30.9325 36.9126Z" fill="#E6E6E6"/>
<path d="M29.7674 44.045C31.1568 46.9611 35.3035 46.9503 36.6914 44.0335L46.9396 22.4964C46.9396 22.4964 43.2596 24.926 38.855 24.1446C34.4504 23.3631 25.2576 12.5932 16.2637 15.79C16.5246 16.2618 24.8823 33.7918 29.7674 44.045Z" fill="#CCCCCC"/>
</g>
</g>
<path d="M59.9646 29.2172C58.8029 29.2172 57.7396 29.0105 56.7748 28.597C55.8297 28.1638 55.0027 27.5829 54.2938 26.8544C53.6047 26.1062 53.0632 25.2496 52.6694 24.2848C52.2953 23.32 52.1082 22.2961 52.1082 21.2131C52.1082 19.756 52.4429 18.4269 53.1124 17.2258C53.7819 16.0247 54.7073 15.0599 55.8887 14.3313C57.0899 13.6028 58.4583 13.2385 59.9942 13.2385C61.5497 13.2385 62.8985 13.6126 64.0405 14.3609C65.2023 15.0894 66.0982 16.0542 66.7283 17.2553C67.3781 18.4368 67.703 19.7166 67.703 21.095C67.703 21.2919 67.6931 21.4888 67.6734 21.6857C67.6734 21.8629 67.6636 22.0007 67.6439 22.0992H54.855C54.9338 23.1034 55.2094 23.9993 55.682 24.7869C56.1743 25.5548 56.8043 26.1652 57.5723 26.6181C58.3402 27.0513 59.1672 27.2679 60.0533 27.2679C60.9984 27.2679 61.8845 27.0316 62.7115 26.559C63.5581 26.0865 64.139 25.4662 64.454 24.6983L66.6987 25.3185C66.364 26.0668 65.8619 26.7362 65.1924 27.327C64.5427 27.9177 63.7649 28.3804 62.8591 28.7151C61.9731 29.0499 61.0082 29.2172 59.9646 29.2172ZM54.7664 20.2975H65.281C65.2023 19.2933 64.9168 18.4072 64.4245 17.6393C63.9323 16.8714 63.3022 16.2708 62.5342 15.8376C61.7663 15.4045 60.9196 15.1879 59.9942 15.1879C59.0884 15.1879 58.2516 15.4045 57.4837 15.8376C56.7157 16.2708 56.0856 16.8714 55.5934 17.6393C55.1208 18.4072 54.8452 19.2933 54.7664 20.2975ZM83.9717 28.9219H81.3726V20.2975C81.3726 18.6632 81.1166 17.4719 80.6047 16.7237C80.1124 15.9558 79.3543 15.5718 78.3304 15.5718C77.6216 15.5718 76.9127 15.749 76.2039 16.1035C75.5147 16.4579 74.8945 16.9403 74.3431 17.5507C73.8115 18.1414 73.4275 18.8306 73.1913 19.6182V28.9219H70.5921V13.5043H72.955V16.8123C73.3685 16.0838 73.9001 15.4537 74.5499 14.922C75.1997 14.3904 75.9381 13.9769 76.765 13.6815C77.592 13.3862 78.4584 13.2385 79.3642 13.2385C80.2502 13.2385 80.9886 13.4059 81.5793 13.7406C82.1897 14.0557 82.6623 14.5085 82.997 15.0993C83.3515 15.6703 83.5976 16.3496 83.7354 17.1372C83.893 17.9248 83.9717 18.7813 83.9717 19.7068V28.9219ZM95.8438 28.154C95.6272 28.2524 95.3319 28.3804 94.9578 28.5379C94.5837 28.6954 94.1505 28.8333 93.6582 28.9514C93.1659 29.0696 92.6442 29.1286 92.0928 29.1286C91.4627 29.1286 90.8819 29.0203 90.3502 28.8037C89.8186 28.5674 89.3952 28.213 89.0802 27.7405C88.7652 27.2482 88.6076 26.6378 88.6076 25.9093V15.5423H86.5106V13.5043H88.6076V8.36516H91.2068V13.5043H94.6624V15.5423H91.2068V25.1118C91.2461 25.6631 91.4332 26.0766 91.7679 26.3523C92.1027 26.6083 92.4965 26.7362 92.9494 26.7362C93.4613 26.7362 93.9339 26.6476 94.3671 26.4704C94.8002 26.2932 95.0858 26.1652 95.2236 26.0865L95.8438 28.154ZM98.1052 22.749V13.5043H100.704V22.2468C100.704 23.8221 100.98 25.0035 101.531 25.7911C102.083 26.5787 102.9 26.9725 103.983 26.9725C104.692 26.9725 105.371 26.8249 106.021 26.5295C106.69 26.2145 107.291 25.7714 107.822 25.2004C108.354 24.6294 108.767 23.9501 109.063 23.1624V13.5043H111.662V25.9683C111.662 26.2834 111.721 26.5197 111.839 26.6772C111.977 26.815 112.194 26.8938 112.489 26.9135V28.9219C112.194 28.9613 111.957 28.9809 111.78 28.9809C111.623 29.0006 111.465 29.0105 111.308 29.0105C110.815 29.0105 110.392 28.8628 110.038 28.5674C109.683 28.2524 109.496 27.8684 109.476 27.4156L109.417 25.6139C108.748 26.7559 107.842 27.642 106.7 28.2721C105.578 28.9022 104.347 29.2172 103.008 29.2172C101.393 29.2172 100.173 28.6757 99.3456 27.5928C98.5186 26.4901 98.1052 24.8755 98.1052 22.749ZM124.143 15.7786C122.844 15.7983 121.692 16.133 120.688 16.7828C119.703 17.4129 119.004 18.2891 118.591 19.4114V28.9219H115.991V13.5043H118.413V17.0781C118.945 16.0149 119.644 15.1583 120.51 14.5085C121.396 13.8391 122.322 13.465 123.287 13.3862C123.484 13.3862 123.651 13.3862 123.789 13.3862C123.927 13.3862 124.045 13.396 124.143 13.4157V15.7786ZM133.169 29.2172C132.007 29.2172 130.944 29.0105 129.979 28.597C129.034 28.1638 128.207 27.5829 127.498 26.8544C126.809 26.1062 126.267 25.2496 125.874 24.2848C125.499 23.32 125.312 22.2961 125.312 21.2131C125.312 19.756 125.647 18.4269 126.317 17.2258C126.986 16.0247 127.912 15.0599 129.093 14.3313C130.294 13.6028 131.663 13.2385 133.198 13.2385C134.754 13.2385 136.103 13.6126 137.245 14.3609C138.407 15.0894 139.302 16.0542 139.933 17.2553C140.582 18.4368 140.907 19.7166 140.907 21.095C140.907 21.2919 140.897 21.4888 140.878 21.6857C140.878 21.8629 140.868 22.0007 140.848 22.0992H128.059C128.138 23.1034 128.414 23.9993 128.886 24.7869C129.378 25.5548 130.009 26.1652 130.777 26.6181C131.544 27.0513 132.371 27.2679 133.257 27.2679C134.203 27.2679 135.089 27.0316 135.916 26.559C136.762 26.0865 137.343 25.4662 137.658 24.6983L139.903 25.3185C139.568 26.0668 139.066 26.7362 138.397 27.327C137.747 27.9177 136.969 28.3804 136.063 28.7151C135.177 29.0499 134.212 29.2172 133.169 29.2172ZM127.971 20.2975H138.485C138.407 19.2933 138.121 18.4072 137.629 17.6393C137.136 16.8714 136.506 16.2708 135.738 15.8376C134.971 15.4045 134.124 15.1879 133.198 15.1879C132.293 15.1879 131.456 15.4045 130.688 15.8376C129.92 16.2708 129.29 16.8714 128.798 17.6393C128.325 18.4072 128.049 19.2933 127.971 20.2975ZM156.554 29.2172C155.274 29.2172 154.073 29.0105 152.95 28.597C151.828 28.1638 150.863 27.5239 150.056 26.6772L151.06 24.846C151.946 25.673 152.832 26.2637 153.718 26.6181C154.604 26.9725 155.51 27.1497 156.435 27.1497C157.499 27.1497 158.365 26.9528 159.035 26.559C159.704 26.1455 160.039 25.545 160.039 24.7574C160.039 24.1863 159.862 23.763 159.507 23.4873C159.172 23.2117 158.69 22.9852 158.06 22.808C157.43 22.6111 156.682 22.3945 155.815 22.1582C154.752 21.8432 153.856 21.5085 153.128 21.154C152.399 20.7996 151.848 20.3566 151.474 19.8249C151.099 19.2933 150.912 18.6238 150.912 17.8165C150.912 16.832 151.168 16.005 151.68 15.3355C152.192 14.6464 152.891 14.1246 153.777 13.7702C154.683 13.4157 155.707 13.2385 156.849 13.2385C157.991 13.2385 159.025 13.4157 159.95 13.7702C160.876 14.1246 161.673 14.6464 162.343 15.3355L161.161 17.1372C160.551 16.5071 159.881 16.0444 159.153 15.749C158.424 15.434 157.607 15.2765 156.701 15.2765C156.17 15.2765 155.648 15.3454 155.136 15.4832C154.624 15.6014 154.201 15.8278 153.866 16.1625C153.531 16.4776 153.364 16.9305 153.364 17.5212C153.364 18.0134 153.492 18.4072 153.748 18.7026C154.023 18.9783 154.417 19.2145 154.929 19.4114C155.461 19.6083 156.101 19.8249 156.849 20.0612C158.011 20.396 159.015 20.7307 159.862 21.0654C160.728 21.4002 161.397 21.8334 161.87 22.365C162.343 22.8966 162.579 23.635 162.579 24.5802C162.579 26.0372 162.028 27.1793 160.925 28.0063C159.822 28.8136 158.365 29.2172 156.554 29.2172ZM173.663 28.154C173.446 28.2524 173.151 28.3804 172.777 28.5379C172.403 28.6954 171.97 28.8333 171.477 28.9514C170.985 29.0696 170.463 29.1286 169.912 29.1286C169.282 29.1286 168.701 29.0203 168.169 28.8037C167.638 28.5674 167.214 28.213 166.899 27.7405C166.584 27.2482 166.427 26.6378 166.427 25.9093V15.5423H164.33V13.5043H166.427V8.36516H169.026V13.5043H172.482V15.5423H169.026V25.1118C169.065 25.6631 169.252 26.0766 169.587 26.3523C169.922 26.6083 170.316 26.7362 170.769 26.7362C171.28 26.7362 171.753 26.6476 172.186 26.4704C172.619 26.2932 172.905 26.1652 173.043 26.0865L173.663 28.154ZM175.924 22.749V13.5043H178.523V22.2468C178.523 23.8221 178.799 25.0035 179.35 25.7911C179.902 26.5787 180.719 26.9725 181.802 26.9725C182.511 26.9725 183.19 26.8249 183.84 26.5295C184.509 26.2145 185.11 25.7714 185.641 25.2004C186.173 24.6294 186.587 23.9501 186.882 23.1624V13.5043H189.481V25.9683C189.481 26.2834 189.54 26.5197 189.658 26.6772C189.796 26.815 190.013 26.8938 190.308 26.9135V28.9219C190.013 28.9613 189.776 28.9809 189.599 28.9809C189.442 29.0006 189.284 29.0105 189.127 29.0105C188.634 29.0105 188.211 28.8628 187.857 28.5674C187.502 28.2524 187.315 27.8684 187.295 27.4156L187.236 25.6139C186.567 26.7559 185.661 27.642 184.519 28.2721C183.397 28.9022 182.166 29.2172 180.827 29.2172C179.213 29.2172 177.992 28.6757 177.165 27.5928C176.338 26.4901 175.924 24.8755 175.924 22.749ZM192.806 21.2426C192.806 19.7856 193.102 18.4565 193.692 17.2553C194.303 16.0345 195.13 15.0599 196.173 14.3313C197.237 13.6028 198.448 13.2385 199.806 13.2385C201.047 13.2385 202.159 13.5634 203.144 14.2132C204.128 14.863 204.896 15.6506 205.448 16.576V7.36095H208.047V25.9683C208.047 26.2834 208.106 26.5197 208.224 26.6772C208.362 26.815 208.578 26.8938 208.874 26.9135V28.9219C208.381 29.0006 207.997 29.04 207.722 29.04C207.21 29.04 206.757 28.8628 206.363 28.5084C205.989 28.154 205.802 27.7601 205.802 27.327V26.0274C205.192 27.0119 204.374 27.7897 203.351 28.3607C202.327 28.9317 201.263 29.2172 200.161 29.2172C199.097 29.2172 198.113 29.0105 197.207 28.597C196.321 28.1638 195.543 27.5731 194.874 26.8249C194.224 26.0766 193.712 25.2299 193.338 24.2848C192.984 23.32 192.806 22.3059 192.806 21.2426ZM205.448 23.5169V19.0865C205.211 18.4171 204.827 17.8165 204.296 17.2849C203.764 16.7336 203.164 16.3004 202.494 15.9853C201.844 15.6506 201.194 15.4832 200.545 15.4832C199.777 15.4832 199.078 15.6506 198.448 15.9853C197.837 16.3004 197.306 16.7336 196.853 17.2849C196.42 17.8165 196.085 18.4269 195.849 19.1161C195.612 19.8052 195.494 20.5239 195.494 21.2722C195.494 22.0401 195.622 22.7686 195.878 23.4578C196.154 24.147 196.528 24.7574 197 25.289C197.493 25.8206 198.054 26.2341 198.684 26.5295C199.334 26.8249 200.033 26.9725 200.781 26.9725C201.254 26.9725 201.736 26.8839 202.228 26.7067C202.74 26.5295 203.223 26.2834 203.675 25.9683C204.128 25.6533 204.512 25.289 204.827 24.8755C205.142 24.4423 205.349 23.9894 205.448 23.5169ZM212.386 28.9219V13.5043H214.985V28.9219H212.386ZM212.386 10.6099V7.36095H214.985V10.6099H212.386ZM225.927 29.2172C224.765 29.2172 223.712 29.0105 222.766 28.597C221.821 28.1638 221.004 27.5829 220.315 26.8544C219.626 26.1062 219.094 25.2496 218.72 24.2848C218.346 23.32 218.159 22.3059 218.159 21.2426C218.159 20.1597 218.346 19.1358 218.72 18.1709C219.094 17.2061 219.626 16.3594 220.315 15.6309C221.004 14.8827 221.821 14.3018 222.766 13.8883C223.731 13.4551 224.785 13.2385 225.927 13.2385C227.089 13.2385 228.142 13.4551 229.087 13.8883C230.032 14.3018 230.849 14.8827 231.539 15.6309C232.247 16.3594 232.789 17.2061 233.163 18.1709C233.537 19.1358 233.724 20.1597 233.724 21.2426C233.724 22.3059 233.537 23.32 233.163 24.2848C232.789 25.2496 232.257 26.1062 231.568 26.8544C230.879 27.5829 230.052 28.1638 229.087 28.597C228.142 29.0105 227.089 29.2172 225.927 29.2172ZM220.817 21.2722C220.817 22.3355 221.044 23.3003 221.496 24.1667C221.969 25.033 222.589 25.7222 223.357 26.2341C224.125 26.7264 224.982 26.9725 225.927 26.9725C226.872 26.9725 227.728 26.7166 228.496 26.2046C229.284 25.6927 229.904 25.0035 230.357 24.1371C230.83 23.2511 231.066 22.2764 231.066 21.2131C231.066 20.1498 230.83 19.185 230.357 18.3186C229.904 17.4522 229.284 16.7631 228.496 16.2511C227.728 15.7392 226.872 15.4832 225.927 15.4832C224.982 15.4832 224.125 15.749 223.357 16.2807C222.589 16.7926 221.969 17.4818 221.496 18.3482C221.044 19.2145 220.817 20.1892 220.817 21.2722Z" fill="white"/>
<defs>
<clipPath id="clip0_794_3408">
<rect width="28.6441" height="30.3776" fill="white" transform="matrix(1 0 0 -1 0 30.6572)"/>
</clipPath>
<clipPath id="clip1_794_3408">
<rect width="28.6441" height="30.3776" fill="white" transform="translate(23.0547 0.279785)"/>
</clipPath>
</defs>
</svg>
