<svg width="27" height="27" viewBox="0 0 27 27" fill="none" xmlns="http://www.w3.org/2000/svg">
<path opacity="0.2" d="M18.2248 2.10939H8.7748C4.86049 2.10939 1.68731 5.28257 1.68731 9.19688V18.6469C1.68731 22.5612 4.86049 25.7344 8.7748 25.7344H18.2248C22.1391 25.7344 25.3123 22.5612 25.3123 18.6469V9.19688C25.3123 5.28257 22.1391 2.10939 18.2248 2.10939Z" fill="black"/>
<path d="M18.2248 1.6875H8.7748C4.86049 1.6875 1.68731 4.86068 1.68731 8.77499V18.225C1.68731 22.1393 4.86049 25.3125 8.7748 25.3125H18.2248C22.1391 25.3125 25.3123 22.1393 25.3123 18.225V8.77499C25.3123 4.86068 22.1391 1.6875 18.2248 1.6875Z" fill="#DBDDE0"/>
<path opacity="0.2" d="M10.547 16.875C9.7638 16.875 9.01266 17.1861 8.45884 17.7399C7.90502 18.2938 7.59389 19.0449 7.59389 19.8281C7.59389 20.6113 7.90502 21.3625 8.45884 21.9163C9.01266 22.4701 9.7638 22.7812 10.547 22.7812C11.3302 22.7812 12.0814 22.4701 12.6352 21.9163C13.189 21.3625 13.5001 20.6113 13.5001 19.8281V16.875H10.547Z" fill="black"/>
<path d="M10.547 16.4531C9.7638 16.4531 9.01266 16.7643 8.45884 17.3181C7.90502 17.8719 7.59389 18.623 7.59389 19.4063C7.59389 20.1895 7.90502 20.9406 8.45884 21.4944C9.01266 22.0482 9.7638 22.3594 10.547 22.3594C11.3302 22.3594 12.0814 22.0482 12.6352 21.4944C13.189 20.9406 13.5001 20.1895 13.5001 19.4063V16.4531H10.547Z" fill="#09C37B"/>
<path opacity="0.2" d="M10.547 10.9688H13.5001V16.875H10.547C8.91098 16.875 7.59389 15.5579 7.59389 13.9219C7.59389 12.2858 8.91098 10.9688 10.547 10.9688Z" fill="black"/>
<path opacity="0.2" d="M16.4531 16.875C18.0841 16.875 19.4062 15.5528 19.4062 13.9219C19.4062 12.2909 18.0841 10.9688 16.4531 10.9688C14.8221 10.9688 13.5 12.2909 13.5 13.9219C13.5 15.5528 14.8221 16.875 16.4531 16.875Z" fill="black"/>
<path d="M10.547 10.5469H13.5001V16.4531H10.547C8.91098 16.4531 7.59389 15.136 7.59389 13.5C7.59389 11.864 8.91098 10.5469 10.547 10.5469Z" fill="#9154DD"/>
<path d="M16.4531 16.4531C18.0841 16.4531 19.4062 15.131 19.4062 13.5C19.4062 11.869 18.0841 10.5469 16.4531 10.5469C14.8221 10.5469 13.5 11.869 13.5 13.5C13.5 15.131 14.8221 16.4531 16.4531 16.4531Z" fill="#01B1F8"/>
<path opacity="0.2" d="M10.547 5.06252C8.91098 5.06252 7.59389 6.37961 7.59389 8.01564C7.59389 9.65167 8.91098 10.9688 10.547 10.9688H13.5001V5.06252H10.547Z" fill="black"/>
<path d="M10.547 4.64063C8.91098 4.64063 7.59389 5.95772 7.59389 7.59375C7.59389 9.22978 8.91098 10.5469 10.547 10.5469H13.5001V4.64063H10.547Z" fill="#F24E1E"/>
<path opacity="0.2" d="M13.5 5.06252H16.4531C18.0891 5.06252 19.4062 6.37961 19.4062 8.01564C19.4062 9.65167 18.0891 10.9688 16.4531 10.9688H13.5V5.06252Z" fill="black"/>
<path d="M13.5 4.64063H16.4531C18.0891 4.64063 19.4062 5.95772 19.4062 7.59375C19.4062 9.22978 18.0891 10.5469 16.4531 10.5469H13.5V4.64063Z" fill="#FF7262"/>
<path opacity="0.2" d="M10.547 4.64063C8.91098 4.64063 7.59389 5.95772 7.59389 7.59375C7.59389 7.66508 7.59968 7.73465 7.6046 7.80469C7.71263 6.26841 8.98231 5.0625 10.547 5.0625H13.5001H16.4533C18.018 5.0625 19.2876 6.26841 19.3957 7.80469C19.4006 7.73465 19.4064 7.66508 19.4064 7.59375C19.4064 5.95772 18.0893 4.64063 16.4533 4.64063H13.5001H10.547Z" fill="white"/>
<path opacity="0.1" d="M8.77513 1.6875C4.84866 1.6875 1.68731 4.84885 1.68731 8.77532V9.1972C1.68731 5.27072 4.84866 2.10937 8.77513 2.10937H18.2245C22.1509 2.10937 25.3123 5.27072 25.3123 9.1972V8.77532C25.3123 4.84885 22.1509 1.6875 18.2245 1.6875H8.77513Z" fill="white"/>
</svg>
