<svg width="245" height="528" viewBox="0 0 245 528" fill="none" xmlns="http://www.w3.org/2000/svg">
<g clip-path="url(#clip0_1012_4169)">
<rect x="0.782715" width="243.652" height="527.587" rx="20" fill="white"/>
<g clip-path="url(#clip1_1012_4169)">
<path fill-rule="evenodd" clip-rule="evenodd" d="M194.277 15.2688H193.519C193.101 15.2688 192.761 15.5961 192.761 15.9998V22.3347C192.761 22.7384 193.101 23.0656 193.519 23.0656H194.277C194.696 23.0656 195.035 22.7384 195.035 22.3347V15.9998C195.035 15.5961 194.696 15.2688 194.277 15.2688ZM189.952 16.9745H190.71C191.129 16.9745 191.468 17.3018 191.468 17.7055V22.3349C191.468 22.7385 191.129 23.0658 190.71 23.0658H189.952C189.533 23.0658 189.194 22.7385 189.194 22.3349V17.7055C189.194 17.3018 189.533 16.9745 189.952 16.9745ZM187.143 18.6799H186.385C185.966 18.6799 185.627 19.0072 185.627 19.4109V22.3347C185.627 22.7384 185.966 23.0656 186.385 23.0656H187.143C187.561 23.0656 187.901 22.7384 187.901 22.3347V19.4109C187.901 19.0072 187.561 18.6799 187.143 18.6799ZM183.576 20.1418H182.818C182.399 20.1418 182.06 20.4691 182.06 20.8728V22.3347C182.06 22.7384 182.399 23.0656 182.818 23.0656H183.576C183.994 23.0656 184.334 22.7384 184.334 22.3347V20.8728C184.334 20.4691 183.994 20.1418 183.576 20.1418Z" fill="black"/>
<path fill-rule="evenodd" clip-rule="evenodd" d="M204.781 16.7932C206.384 16.7932 207.925 17.4239 209.087 18.5547C209.174 18.642 209.314 18.6409 209.4 18.5522L210.236 17.6881C210.28 17.6431 210.304 17.5822 210.304 17.5188C210.303 17.4554 210.278 17.3948 210.234 17.3504C207.186 14.3585 202.376 14.3585 199.328 17.3504C199.284 17.3948 199.259 17.4554 199.258 17.5188C199.258 17.5822 199.282 17.6431 199.326 17.6881L200.162 18.5522C200.248 18.641 200.388 18.6421 200.475 18.5547C201.637 17.4238 203.179 16.7932 204.781 16.7932ZM204.781 19.6042C205.662 19.6042 206.511 19.9394 207.164 20.5446C207.252 20.6305 207.391 20.6287 207.477 20.5404L208.312 19.6763C208.356 19.631 208.381 19.5695 208.38 19.5056C208.379 19.4417 208.354 19.3808 208.309 19.3364C206.321 17.443 203.243 17.443 201.256 19.3364C201.211 19.3808 201.185 19.4418 201.185 19.5057C201.184 19.5696 201.208 19.6311 201.253 19.6763L202.087 20.5404C202.173 20.6287 202.313 20.6305 202.401 20.5446C203.053 19.9398 203.901 19.6046 204.781 19.6042ZM206.454 21.4958C206.456 21.5599 206.431 21.6217 206.386 21.6666L204.942 23.1595C204.899 23.2034 204.842 23.2281 204.781 23.2281C204.721 23.2281 204.663 23.2034 204.621 23.1595L203.176 21.6666C203.132 21.6217 203.107 21.5599 203.108 21.4958C203.11 21.4317 203.137 21.371 203.183 21.3281C204.106 20.529 205.457 20.529 206.38 21.3281C206.426 21.3711 206.453 21.4318 206.454 21.4958Z" fill="black"/>
<rect opacity="0.4" x="214.852" y="15.2687" width="15.5937" height="7.79685" rx="2.27408" stroke="black" stroke-width="0.649738"/>
<path opacity="0.5" d="M231.42 17.8677V20.4666C231.944 20.2465 232.285 19.7345 232.285 19.1672C232.285 18.5998 231.944 18.0878 231.42 17.8677Z" fill="black"/>
<rect x="215.827" y="16.2434" width="11.0455" height="5.84764" rx="1.29948" fill="black"/>
<path d="M32.4831 18.6422C32.4831 19.1097 32.4489 19.5681 32.3806 20.0175C32.3159 20.467 32.2008 20.8877 32.0354 21.2796C31.8736 21.6715 31.6489 22.0185 31.3613 22.3205C31.0772 22.6189 30.7177 22.8526 30.2826 23.0216C29.8475 23.1906 29.3226 23.2751 28.7077 23.2751C28.5531 23.2751 28.3734 23.2661 28.1684 23.2481C27.9671 23.2338 27.8017 23.2122 27.6722 23.1834V22.1263C27.8089 22.1659 27.9617 22.1982 28.1307 22.2234C28.3032 22.245 28.474 22.2558 28.643 22.2558C29.3082 22.2558 29.826 22.1317 30.1963 21.8836C30.5702 21.6355 30.8345 21.294 30.9891 20.8589C31.1473 20.4238 31.2372 19.9294 31.2588 19.3757H31.1941C31.0898 19.5483 30.9586 19.7065 30.8004 19.8503C30.6421 19.9906 30.4462 20.1038 30.2125 20.1901C29.9788 20.2728 29.6947 20.3142 29.3603 20.3142C28.9073 20.3142 28.5118 20.2189 28.1738 20.0283C27.8394 19.8378 27.5787 19.5609 27.3918 19.1977C27.2084 18.831 27.1167 18.3905 27.1167 17.8764C27.1167 17.3191 27.2228 16.8391 27.4349 16.4364C27.6471 16.0337 27.9473 15.7244 28.3356 15.5087C28.7239 15.2894 29.1806 15.1797 29.7055 15.1797C30.101 15.1797 30.466 15.2516 30.8004 15.3954C31.1383 15.5357 31.4332 15.7514 31.6849 16.0426C31.9365 16.3303 32.1325 16.6916 32.2727 17.1267C32.413 17.5582 32.4831 18.0633 32.4831 18.6422ZM29.7217 16.226C29.3226 16.226 28.9972 16.3609 28.7455 16.6305C28.4938 16.8966 28.368 17.3065 28.368 17.8602C28.368 18.3096 28.4758 18.6656 28.6916 18.9281C28.9073 19.1906 29.2381 19.3218 29.6839 19.3218C29.9931 19.3218 30.2592 19.2589 30.4821 19.133C30.7087 19.0036 30.883 18.84 31.0053 18.6422C31.1311 18.4445 31.1941 18.2431 31.1941 18.0382C31.1941 17.826 31.1635 17.6139 31.1024 17.4018C31.0448 17.1896 30.955 16.9955 30.8327 16.8193C30.7105 16.6431 30.5559 16.5011 30.3689 16.3932C30.1855 16.2818 29.9698 16.226 29.7217 16.226ZM33.3771 22.4985C33.3771 22.2036 33.4526 21.9969 33.6036 21.8782C33.7582 21.756 33.9452 21.6949 34.1645 21.6949C34.3838 21.6949 34.5708 21.756 34.7254 21.8782C34.8836 21.9969 34.9627 22.2036 34.9627 22.4985C34.9627 22.7861 34.8836 22.9946 34.7254 23.1241C34.5708 23.2499 34.3838 23.3129 34.1645 23.3129C33.9452 23.3129 33.7582 23.2499 33.6036 23.1241C33.4526 22.9946 33.3771 22.7861 33.3771 22.4985ZM33.3771 17.8818C33.3771 17.5833 33.4526 17.373 33.6036 17.2508C33.7582 17.1285 33.9452 17.0674 34.1645 17.0674C34.3838 17.0674 34.5708 17.1285 34.7254 17.2508C34.8836 17.373 34.9627 17.5833 34.9627 17.8818C34.9627 18.1658 34.8836 18.3726 34.7254 18.502C34.5708 18.6279 34.3838 18.6908 34.1645 18.6908C33.9452 18.6908 33.7582 18.6279 33.6036 18.502C33.4526 18.3726 33.3771 18.1658 33.3771 17.8818ZM41.482 21.436H40.4141V23.1672H39.1629V21.436H35.5763V20.476L39.179 15.2606H40.4141V20.3843H41.482V21.436ZM39.1629 20.3843V18.4265C39.1629 18.2647 39.1647 18.1011 39.1683 17.9357C39.1755 17.7667 39.1826 17.6049 39.1898 17.4503C39.197 17.2957 39.2042 17.1537 39.2114 17.0242C39.2186 16.8912 39.224 16.7815 39.2276 16.6952H39.1844C39.1161 16.8391 39.0406 16.9865 38.9579 17.1375C38.8752 17.2849 38.7871 17.4287 38.6936 17.569L36.752 20.3843H39.1629ZM45.5797 23.1672H44.3068V18.0921C44.3068 17.9231 44.3086 17.7541 44.3122 17.5851C44.3158 17.4161 44.3194 17.2508 44.323 17.089C44.3302 16.9272 44.3392 16.7725 44.35 16.6251C44.2745 16.7078 44.181 16.7977 44.0695 16.8948C43.9617 16.9919 43.8466 17.0926 43.7244 17.1968L42.8183 17.9195L42.1819 17.1159L44.5226 15.2822H45.5797V23.1672Z" fill="black"/>
</g>
<path d="M19.2663 65.2325C18.2995 65.2325 17.4471 65.0038 16.709 64.5464C15.9813 64.089 15.4095 63.4444 14.9937 62.6128C14.5882 61.7707 14.3855 60.7831 14.3855 59.65C14.3855 58.5064 14.5882 57.5188 14.9937 56.6872C15.4095 55.8555 15.9813 55.211 16.709 54.7535C17.4471 54.2961 18.2995 54.0674 19.2663 54.0674C20.046 54.0674 20.7477 54.213 21.3715 54.504C22.0056 54.7951 22.5358 55.211 22.962 55.7515C23.3883 56.2817 23.6793 56.9211 23.8353 57.6696L21.6989 58.2621C21.5742 57.5656 21.2987 57.0302 20.8725 56.656C20.4566 56.2817 19.9161 56.0946 19.2507 56.0946C18.4503 56.0946 17.8057 56.4065 17.3171 57.0302C16.8285 57.654 16.5842 58.5272 16.5842 59.65C16.5842 60.7623 16.8285 61.6356 17.3171 62.2697C17.8057 62.8934 18.4503 63.2053 19.2507 63.2053C19.9369 63.2053 20.493 63.0182 20.9193 62.6439C21.3455 62.2593 21.621 61.7135 21.7457 61.0066L23.8821 61.5992C23.7157 62.3581 23.4194 63.0078 22.9932 63.5484C22.567 64.089 22.0368 64.5048 21.4027 64.7959C20.7789 65.087 20.0668 65.2325 19.2663 65.2325ZM25.265 65.0298V56.7651H27.339V65.0298H25.265ZM26.9647 61.1002C26.9647 60.1853 27.0687 59.3901 27.2766 58.7143C27.4845 58.0282 27.8068 57.498 28.2434 57.1238C28.68 56.7495 29.2362 56.5624 29.912 56.5624V58.9171H29.0075C28.4877 58.9171 28.0771 59.0522 27.7756 59.3225C27.4845 59.5824 27.339 60.0398 27.339 60.6947L26.9647 61.1002ZM34.5143 65.2325C33.7554 65.2325 33.0797 65.0506 32.4871 64.6867C31.8945 64.3229 31.4319 63.8187 31.0993 63.1741C30.777 62.5192 30.6159 61.7603 30.6159 60.8975C30.6159 60.0138 30.7822 59.2497 31.1149 58.6052C31.4475 57.9502 31.9101 57.446 32.5027 57.0926C33.0953 56.7391 33.771 56.5624 34.5299 56.5624C35.2888 56.5624 35.9593 56.7391 36.5415 57.0926C37.1236 57.446 37.5758 57.945 37.8981 58.5896C38.2308 59.2341 38.3971 60.0034 38.3971 60.8975C38.3971 61.0014 38.3919 61.1002 38.3815 61.1937C38.3815 61.2873 38.3815 61.3913 38.3815 61.5056H31.9101V60.0554H36.8533L36.2764 60.8975C36.2764 59.9722 36.1204 59.3121 35.8086 58.9171C35.5071 58.5116 35.0809 58.3089 34.5299 58.3089C33.9997 58.3089 33.5683 58.5116 33.2356 58.9171C32.9133 59.3121 32.7522 59.9722 32.7522 60.8975C32.7522 61.7603 32.9185 62.3996 33.2512 62.8155C33.5839 63.2209 34.0361 63.4236 34.6078 63.4236C34.9925 63.4236 35.3252 63.3353 35.6058 63.1585C35.8865 62.9818 36.0944 62.7063 36.2296 62.3321L38.1788 62.8934C37.9605 63.6004 37.5343 64.1669 36.9001 64.5932C36.2764 65.0194 35.4811 65.2325 34.5143 65.2325ZM44.6275 65.0298C44.5652 64.7595 44.5132 64.484 44.4716 64.2033C44.4404 63.9226 44.4248 63.6471 44.4248 63.3769V59.8839C44.4248 59.3017 44.2845 58.8911 44.0038 58.652C43.7231 58.4025 43.3852 58.2777 42.9902 58.2777C42.6159 58.2777 42.2937 58.3817 42.0234 58.5896C41.7635 58.7871 41.5816 59.1094 41.4776 59.5564L39.4972 59.073C39.7259 58.2517 40.1573 57.628 40.7915 57.2017C41.4256 56.7755 42.2001 56.5624 43.1149 56.5624C44.1649 56.5624 44.9914 56.8431 45.5943 57.4045C46.1973 57.9554 46.4988 58.7195 46.4988 59.6967V63.1897C46.4988 63.8031 46.5767 64.4164 46.7327 65.0298H44.6275ZM41.8051 65.2325C41.0254 65.2325 40.4224 65.0194 39.9962 64.5932C39.5804 64.1669 39.3725 63.616 39.3725 62.9402C39.3725 62.3269 39.5752 61.7863 39.9806 61.3185C40.3964 60.8507 41.041 60.5492 41.9142 60.414L44.9706 59.8995V61.2717L42.6471 61.7551C42.2001 61.8487 41.8882 61.989 41.7115 62.1761C41.5348 62.3529 41.4464 62.5504 41.4464 62.7687C41.4464 62.987 41.5192 63.1741 41.6647 63.3301C41.8207 63.4756 42.0598 63.5484 42.382 63.5484C42.7147 63.5484 43.037 63.4756 43.3488 63.3301C43.6607 63.1741 43.9154 62.9506 44.1129 62.6595C44.3209 62.3581 44.4248 61.9994 44.4248 61.5836H44.955C44.955 62.3321 44.8147 62.9818 44.534 63.5328C44.2533 64.0734 43.8738 64.4944 43.3956 64.7959C42.9278 65.087 42.3976 65.2325 41.8051 65.2325ZM51.4092 65.2325C50.536 65.2325 49.8498 64.9882 49.3508 64.4996C48.8518 64.0006 48.6023 63.2625 48.6023 62.2853V55.0498L50.6607 54.6444V62.0202C50.6607 62.4568 50.7699 62.7843 50.9882 63.0026C51.2169 63.2209 51.534 63.3301 51.9394 63.3301C52.1369 63.3301 52.3188 63.3145 52.4852 63.2833C52.6515 63.2417 52.823 63.2001 52.9998 63.1585V65.0298C52.7607 65.0922 52.5164 65.1389 52.2669 65.1701C52.0174 65.2117 51.7315 65.2325 51.4092 65.2325ZM47.5264 58.496V56.7651H52.9218V58.496H47.5264ZM57.646 65.2325C56.8871 65.2325 56.2113 65.0506 55.6188 64.6867C55.0262 64.3229 54.5636 63.8187 54.2309 63.1741C53.9087 62.5192 53.7475 61.7603 53.7475 60.8975C53.7475 60.0138 53.9139 59.2497 54.2465 58.6052C54.5792 57.9502 55.0418 57.446 55.6344 57.0926C56.2269 56.7391 56.9027 56.5624 57.6615 56.5624C58.4204 56.5624 59.091 56.7391 59.6731 57.0926C60.2553 57.446 60.7075 57.945 61.0298 58.5896C61.3625 59.2341 61.5288 60.0034 61.5288 60.8975C61.5288 61.0014 61.5236 61.1002 61.5132 61.1937C61.5132 61.2873 61.5132 61.3913 61.5132 61.5056H55.0418V60.0554H59.985L59.408 60.8975C59.408 59.9722 59.2521 59.3121 58.9402 58.9171C58.6388 58.5116 58.2125 58.3089 57.6615 58.3089C57.1314 58.3089 56.6999 58.5116 56.3673 58.9171C56.045 59.3121 55.8839 59.9722 55.8839 60.8975C55.8839 61.7603 56.0502 62.3996 56.3829 62.8155C56.7155 63.2209 57.1677 63.4236 57.7395 63.4236C58.1242 63.4236 58.4568 63.3353 58.7375 63.1585C59.0182 62.9818 59.2261 62.7063 59.3613 62.3321L61.3105 62.8934C61.0922 63.6004 60.6659 64.1669 60.0318 64.5932C59.408 65.0194 58.6128 65.2325 57.646 65.2325ZM70.8048 65.0298C70.7425 64.7595 70.6905 64.484 70.6489 64.2033C70.6177 63.9226 70.6021 63.6471 70.6021 63.3769V59.8839C70.6021 59.3017 70.4618 58.8911 70.1811 58.652C69.9004 58.4025 69.5626 58.2777 69.1675 58.2777C68.7933 58.2777 68.471 58.3817 68.2007 58.5896C67.9408 58.7871 67.7589 59.1094 67.6549 59.5564L65.6745 59.073C65.9032 58.2517 66.3347 57.628 66.9688 57.2017C67.6029 56.7755 68.3774 56.5624 69.2923 56.5624C70.3422 56.5624 71.1687 56.8431 71.7717 57.4045C72.3746 57.9554 72.6761 58.7195 72.6761 59.6967V63.1897C72.6761 63.8031 72.7541 64.4164 72.91 65.0298H70.8048ZM67.9824 65.2325C67.2027 65.2325 66.5997 65.0194 66.1735 64.5932C65.7577 64.1669 65.5498 63.616 65.5498 62.9402C65.5498 62.3269 65.7525 61.7863 66.1579 61.3185C66.5738 60.8507 67.2183 60.5492 68.0915 60.414L71.1479 59.8995V61.2717L68.8244 61.7551C68.3774 61.8487 68.0656 61.989 67.8888 62.1761C67.7121 62.3529 67.6237 62.5504 67.6237 62.7687C67.6237 62.987 67.6965 63.1741 67.842 63.3301C67.998 63.4756 68.2371 63.5484 68.5594 63.5484C68.892 63.5484 69.2143 63.4756 69.5262 63.3301C69.838 63.1741 70.0927 62.9506 70.2903 62.6595C70.4982 62.3581 70.6021 61.9994 70.6021 61.5836H71.1323C71.1323 62.3321 70.992 62.9818 70.7113 63.5328C70.4306 64.0734 70.0512 64.4944 69.5729 64.7959C69.1051 65.087 68.575 65.2325 67.9824 65.2325ZM81.9576 65.2325C81.1156 65.2325 80.4346 64.9102 79.9149 64.2657C79.4055 63.6212 79.1508 62.7115 79.1508 61.5368V60.2581C79.1508 59.073 79.4055 58.1634 79.9149 57.5292C80.4346 56.8847 81.1156 56.5624 81.9576 56.5624C82.6022 56.5624 83.1635 56.7391 83.6418 57.0926C84.12 57.4357 84.4942 57.9295 84.7645 58.574C85.0348 59.2185 85.1699 59.993 85.1699 60.8975C85.1699 61.8019 85.0348 62.5764 84.7645 63.2209C84.4942 63.8655 84.12 64.3645 83.6418 64.7179C83.1635 65.061 82.6022 65.2325 81.9576 65.2325ZM77.4978 67.7587V56.7651H79.5718V58.8547L79.2911 60.8975L79.5718 62.8623V67.7587H77.4978ZM81.2247 63.3769C81.7653 63.3769 82.2019 63.1741 82.5346 62.7687C82.8673 62.3633 83.0336 61.7395 83.0336 60.8975C83.0336 60.0554 82.8673 59.4316 82.5346 59.0262C82.2019 58.6208 81.7653 58.4181 81.2247 58.4181C80.6945 58.4181 80.2631 58.6208 79.9305 59.0262C79.5978 59.4316 79.4315 60.0554 79.4315 60.8975C79.4315 61.7395 79.5978 62.3633 79.9305 62.7687C80.2631 63.1741 80.6945 63.3769 81.2247 63.3769ZM86.5891 65.0298V56.7651H88.663V65.0298H86.5891ZM88.2888 61.1002C88.2888 60.1853 88.3928 59.3901 88.6007 58.7143C88.8086 58.0282 89.1309 57.498 89.5675 57.1238C90.0041 56.7495 90.5603 56.5624 91.236 56.5624V58.9171H90.3316C89.8118 58.9171 89.4011 59.0522 89.0997 59.3225C88.8086 59.5824 88.663 60.0398 88.663 60.6947L88.2888 61.1002ZM95.9007 65.2325C95.1314 65.2325 94.4453 65.0506 93.8423 64.6867C93.2498 64.3229 92.782 63.8187 92.4389 63.1741C92.1062 62.5296 91.9399 61.7707 91.9399 60.8975C91.9399 60.0242 92.1062 59.2653 92.4389 58.6208C92.782 57.9658 93.2498 57.4616 93.8423 57.1082C94.4453 56.7443 95.1314 56.5624 95.9007 56.5624C96.6908 56.5624 97.3821 56.7443 97.9747 57.1082C98.5672 57.4616 99.0299 57.9658 99.3625 58.6208C99.7056 59.2653 99.8771 60.0242 99.8771 60.8975C99.8771 61.7707 99.7056 62.5296 99.3625 63.1741C99.0299 63.8187 98.5672 64.3229 97.9747 64.6867C97.3821 65.0506 96.6908 65.2325 95.9007 65.2325ZM95.9007 63.3769C96.4725 63.3769 96.9195 63.1741 97.2418 62.7687C97.5744 62.3633 97.7408 61.7395 97.7408 60.8975C97.7408 60.0554 97.5744 59.4316 97.2418 59.0262C96.9195 58.6208 96.4725 58.4181 95.9007 58.4181C95.3393 58.4181 94.8923 58.6208 94.5597 59.0262C94.2374 59.4316 94.0763 60.0554 94.0763 60.8975C94.0763 61.7395 94.2374 62.3633 94.5597 62.7687C94.8923 63.1741 95.3393 63.3769 95.9007 63.3769ZM101.581 65.0298V56.5936C101.581 55.6164 101.831 54.8887 102.33 54.4105C102.839 53.9219 103.541 53.6776 104.435 53.6776C104.716 53.6776 104.965 53.6932 105.183 53.7244C105.402 53.7555 105.615 53.8023 105.823 53.8647V55.6112C105.667 55.5592 105.506 55.5228 105.339 55.502C105.183 55.4708 105.007 55.4553 104.809 55.4553C104.435 55.4553 104.144 55.5488 103.936 55.7359C103.738 55.9127 103.64 56.1726 103.64 56.5156V65.0298H101.581ZM100.505 58.496V56.7651H107.195V58.496H100.505ZM106.727 65.0298V56.7651H108.801V65.0298H106.727ZM107.756 55.8763C107.413 55.8763 107.122 55.7671 106.883 55.5488C106.644 55.3201 106.525 55.0186 106.525 54.6444C106.525 54.2701 106.644 53.9739 106.883 53.7555C107.122 53.5268 107.413 53.4125 107.756 53.4125C108.11 53.4125 108.406 53.5268 108.645 53.7555C108.884 53.9739 109.004 54.2701 109.004 54.6444C109.004 55.0186 108.884 55.3201 108.645 55.5488C108.406 55.7671 108.11 55.8763 107.756 55.8763ZM110.574 65.0298V53.8803H112.647V65.0298H110.574ZM117.919 65.2325C117.16 65.2325 116.485 65.0506 115.892 64.6867C115.3 64.3229 114.837 63.8187 114.504 63.1741C114.182 62.5192 114.021 61.7603 114.021 60.8975C114.021 60.0138 114.187 59.2497 114.52 58.6052C114.853 57.9502 115.315 57.446 115.908 57.0926C116.5 56.7391 117.176 56.5624 117.935 56.5624C118.694 56.5624 119.364 56.7391 119.946 57.0926C120.529 57.446 120.981 57.945 121.303 58.5896C121.636 59.2341 121.802 60.0034 121.802 60.8975C121.802 61.0014 121.797 61.1002 121.787 61.1937C121.787 61.2873 121.787 61.3913 121.787 61.5056H115.315V60.0554H120.258L119.681 60.8975C119.681 59.9722 119.525 59.3121 119.214 58.9171C118.912 58.5116 118.486 58.3089 117.935 58.3089C117.405 58.3089 116.973 58.5116 116.641 58.9171C116.318 59.3121 116.157 59.9722 116.157 60.8975C116.157 61.7603 116.324 62.3996 116.656 62.8155C116.989 63.2209 117.441 63.4236 118.013 63.4236C118.397 63.4236 118.73 63.3353 119.011 63.1585C119.292 62.9818 119.499 62.7063 119.635 62.3321L121.584 62.8934C121.365 63.6004 120.939 64.1669 120.305 64.5932C119.681 65.0194 118.886 65.2325 117.919 65.2325Z" fill="#01040F"/>
<path d="M14.4596 82.2786V76.0021H15.4147V82.2786H14.4596ZM14.9144 79.677V78.8038H18.3255V79.677H14.9144ZM14.9144 76.8753V76.0021H18.6894V76.8753H14.9144ZM19.5208 82.2786V77.4575H20.4305V82.2786H19.5208ZM19.9756 76.8026C19.818 76.8026 19.6846 76.751 19.5754 76.6479C19.4662 76.5448 19.4117 76.4114 19.4117 76.2477C19.4117 76.0779 19.4662 75.9415 19.5754 75.8384C19.6846 75.7353 19.818 75.6837 19.9756 75.6837C20.1333 75.6837 20.2667 75.7353 20.3759 75.8384C20.485 75.9415 20.5396 76.0779 20.5396 76.2477C20.5396 76.4114 20.485 76.5448 20.3759 76.6479C20.2667 76.751 20.1333 76.8026 19.9756 76.8026ZM21.6172 82.2786V75.7747H22.5269V82.2786H21.6172ZM23.7137 82.2786V75.7747H24.6233V82.2786H23.7137ZM29.4916 82.3695C29.0186 82.3695 28.6487 82.2452 28.3818 81.9966C28.1211 81.7419 27.9907 81.3659 27.9907 80.8686V76.4569L28.9003 76.275V80.7049C28.9003 80.9839 28.967 81.19 29.1005 81.3235C29.2339 81.4508 29.4279 81.5145 29.6826 81.5145C29.8039 81.5145 29.9161 81.5054 30.0192 81.4872C30.1283 81.469 30.2345 81.4478 30.3376 81.4235V82.2786C30.2102 82.3089 30.0798 82.3301 29.9464 82.3422C29.8191 82.3604 29.6675 82.3695 29.4916 82.3695ZM27.3085 78.2489V77.4575H30.2921V78.2489H27.3085ZM34.278 82.2786V79.4678C34.278 79.0372 34.1688 78.7128 33.9505 78.4945C33.7322 78.2762 33.4714 78.167 33.1682 78.167C32.865 78.167 32.6042 78.2762 32.3859 78.4945C32.1676 78.7128 32.0585 79.0372 32.0585 79.4678H31.7583C31.7583 79.0372 31.8341 78.6643 31.9857 78.349C32.1434 78.0336 32.3556 77.791 32.6224 77.6212C32.8893 77.4514 33.1864 77.3665 33.5139 77.3665C33.8413 77.3665 34.1294 77.4454 34.378 77.6031C34.6327 77.7547 34.8298 77.973 34.9693 78.258C35.1148 78.5369 35.1876 78.8705 35.1876 79.2586V82.2786H34.278ZM31.1488 82.2786V75.7747H32.0585V82.2786H31.1488ZM38.346 82.3695C37.9033 82.3695 37.5152 82.2664 37.1817 82.0603C36.8482 81.8541 36.5874 81.563 36.3994 81.187C36.2175 80.811 36.1265 80.3714 36.1265 79.868C36.1265 79.3405 36.2205 78.8917 36.4085 78.5218C36.5965 78.1458 36.8542 77.8608 37.1817 77.6667C37.5152 77.4666 37.8973 77.3665 38.3278 77.3665C38.7463 77.3665 39.1131 77.4666 39.4285 77.6667C39.7499 77.8608 39.9985 78.1458 40.1744 78.5218C40.3563 78.8917 40.4473 79.3405 40.4473 79.868C40.4473 79.9166 40.4473 79.962 40.4473 80.0045C40.4473 80.0469 40.4442 80.1045 40.4382 80.1773H36.8724V79.4587H39.765L39.5013 79.868C39.5013 79.2616 39.3951 78.825 39.1829 78.5582C38.9706 78.2853 38.6856 78.1488 38.3278 78.1488C37.9518 78.1488 37.6486 78.2853 37.4182 78.5582C37.1878 78.825 37.0725 79.2616 37.0725 79.868C37.0725 80.432 37.1847 80.8474 37.4091 81.1142C37.6395 81.3811 37.9518 81.5145 38.346 81.5145C38.6128 81.5145 38.8403 81.4569 39.0282 81.3416C39.2223 81.2204 39.3769 81.0233 39.4922 80.7504L40.3381 81.0869C40.1804 81.4932 39.9257 81.8086 39.574 82.033C39.2223 82.2573 38.813 82.3695 38.346 82.3695ZM45.0546 82.3695C44.6847 82.3695 44.3542 82.2695 44.0631 82.0693C43.772 81.8692 43.5446 81.5842 43.3809 81.2143C43.2172 80.8383 43.1353 80.3896 43.1353 79.868C43.1353 79.3465 43.2172 78.9008 43.3809 78.5309C43.5446 78.1549 43.772 77.8668 44.0631 77.6667C44.3542 77.4666 44.6847 77.3665 45.0546 77.3665C45.564 77.3665 45.9734 77.5515 46.2826 77.9214C46.5919 78.2853 46.7465 78.8007 46.7465 79.4678V80.2683C46.7465 80.9353 46.5919 81.4538 46.2826 81.8237C45.9734 82.1876 45.564 82.3695 45.0546 82.3695ZM45.3093 81.5691C45.6732 81.5691 45.9673 81.4356 46.1917 81.1688C46.4221 80.8959 46.5373 80.4623 46.5373 79.868C46.5373 79.2737 46.4221 78.8432 46.1917 78.5764C45.9673 78.3035 45.6732 78.167 45.3093 78.167C44.9455 78.167 44.6483 78.3035 44.4179 78.5764C44.1935 78.8432 44.0813 79.2737 44.0813 79.868C44.0813 80.4623 44.1935 80.8959 44.4179 81.1688C44.6483 81.4356 44.9455 81.5691 45.3093 81.5691ZM46.4919 82.2786V81.1597L46.6283 79.868L46.4919 78.5673V75.7747H47.4015V82.2786H46.4919ZM50.5603 82.3695C50.1176 82.3695 49.7295 82.2664 49.396 82.0603C49.0625 81.8541 48.8017 81.563 48.6137 81.187C48.4318 80.811 48.3408 80.3714 48.3408 79.868C48.3408 79.3405 48.4348 78.8917 48.6228 78.5218C48.8108 78.1458 49.0685 77.8608 49.396 77.6667C49.7295 77.4666 50.1116 77.3665 50.5421 77.3665C50.9606 77.3665 51.3274 77.4666 51.6428 77.6667C51.9642 77.8608 52.2128 78.1458 52.3887 78.5218C52.5706 78.8917 52.6616 79.3405 52.6616 79.868C52.6616 79.9166 52.6616 79.962 52.6616 80.0045C52.6616 80.0469 52.6585 80.1045 52.6525 80.1773H49.0867V79.4587H51.9793L51.7156 79.868C51.7156 79.2616 51.6094 78.825 51.3972 78.5582C51.1849 78.2853 50.8999 78.1488 50.5421 78.1488C50.1661 78.1488 49.8629 78.2853 49.6325 78.5582C49.4021 78.825 49.2868 79.2616 49.2868 79.868C49.2868 80.432 49.399 80.8474 49.6234 81.1142C49.8538 81.3811 50.1661 81.5145 50.5603 81.5145C50.8271 81.5145 51.0546 81.4569 51.2425 81.3416C51.4366 81.2204 51.5912 81.0233 51.7065 80.7504L52.5524 81.0869C52.3947 81.4932 52.1401 81.8086 51.7883 82.033C51.4366 82.2573 51.0273 82.3695 50.5603 82.3695ZM55.2793 82.3695C54.8063 82.3695 54.4364 82.2452 54.1696 81.9966C53.9088 81.7419 53.7784 81.3659 53.7784 80.8686V76.4569L54.6881 76.275V80.7049C54.6881 80.9839 54.7548 81.19 54.8882 81.3235C55.0216 81.4508 55.2157 81.5145 55.4703 81.5145C55.5916 81.5145 55.7038 81.5054 55.8069 81.4872C55.9161 81.469 56.0222 81.4478 56.1253 81.4235V82.2786C55.9979 82.3089 55.8676 82.3301 55.7341 82.3422C55.6068 82.3604 55.4552 82.3695 55.2793 82.3695ZM53.0962 78.2489V77.4575H56.0798V78.2489H53.0962ZM59.8474 82.2786C59.811 82.1209 59.7807 81.9602 59.7564 81.7965C59.7382 81.6327 59.7291 81.472 59.7291 81.3144V79.2768C59.7291 78.8826 59.626 78.6006 59.4199 78.4308C59.2197 78.255 58.9772 78.167 58.6922 78.167C58.4314 78.167 58.21 78.2398 58.0281 78.3853C57.8523 78.5248 57.7249 78.7371 57.6461 79.0221L56.791 78.7401C56.9244 78.2974 57.164 77.9578 57.5096 77.7213C57.8614 77.4848 58.2737 77.3665 58.7467 77.3665C59.3471 77.3665 59.811 77.5273 60.1385 77.8487C60.472 78.1701 60.6388 78.6097 60.6388 79.1676V81.2052C60.6388 81.563 60.6842 81.9208 60.7752 82.2786H59.8474ZM58.0827 82.3695C57.6643 82.3695 57.3277 82.2482 57.073 82.0057C56.8244 81.7631 56.7001 81.4569 56.7001 81.0869C56.7001 80.7231 56.8213 80.4108 57.0639 80.15C57.3125 79.8832 57.6946 79.7043 58.21 79.6133L59.9111 79.3223V80.0227L58.5102 80.3047C58.1888 80.3653 57.9584 80.4593 57.8189 80.5866C57.6794 80.7079 57.6097 80.8535 57.6097 81.0233C57.6097 81.1627 57.6673 81.2931 57.7825 81.4144C57.8977 81.5296 58.0827 81.5872 58.3374 81.5872C58.5618 81.5872 58.7801 81.5357 58.9923 81.4326C59.2046 81.3235 59.3804 81.1718 59.5199 80.9778C59.6594 80.7777 59.7291 80.5412 59.7291 80.2683H60.0293C60.0293 80.6988 59.9384 81.0718 59.7564 81.3871C59.5806 81.7025 59.3441 81.945 59.0469 82.1148C58.7558 82.2846 58.4344 82.3695 58.0827 82.3695ZM61.8223 82.2786V77.4575H62.7319V82.2786H61.8223ZM62.2771 76.8026C62.1194 76.8026 61.986 76.751 61.8769 76.6479C61.7677 76.5448 61.7131 76.4114 61.7131 76.2477C61.7131 76.0779 61.7677 75.9415 61.8769 75.8384C61.986 75.7353 62.1194 75.6837 62.2771 75.6837C62.4348 75.6837 62.5682 75.7353 62.6773 75.8384C62.7865 75.9415 62.8411 76.0779 62.8411 76.2477C62.8411 76.4114 62.7865 76.5448 62.6773 76.6479C62.5682 76.751 62.4348 76.8026 62.2771 76.8026ZM63.9187 82.2786V75.7747H64.8283V82.2786H63.9187ZM67.6797 82.3695C67.134 82.3695 66.6973 82.2604 66.3699 82.0421C66.0424 81.8177 65.812 81.4902 65.6786 81.0597L66.5336 80.7868C66.6367 81.09 66.7883 81.3083 66.9884 81.4417C67.1885 81.5691 67.4402 81.6327 67.7434 81.6327C68.0163 81.6327 68.2346 81.5812 68.3984 81.4781C68.5682 81.3689 68.6531 81.2173 68.6531 81.0233C68.6531 80.8353 68.5863 80.6897 68.4529 80.5866C68.3195 80.4775 68.1467 80.3896 67.9344 80.3229C67.7222 80.2501 67.4948 80.1803 67.2522 80.1136C67.0157 80.0409 66.7913 79.9529 66.5791 79.8498C66.3668 79.7468 66.194 79.6073 66.0606 79.4314C65.9272 79.2495 65.8605 79.013 65.8605 78.7219C65.8605 78.3459 66.0151 78.0275 66.3244 77.7668C66.6337 77.5 67.0764 77.3665 67.6525 77.3665C68.1497 77.3665 68.55 77.4757 68.8532 77.694C69.1564 77.9123 69.3747 78.2307 69.5081 78.6491L68.6803 78.9311C68.5712 78.634 68.4256 78.4217 68.2437 78.2944C68.0679 78.167 67.8465 78.1034 67.5797 78.1034C67.3189 78.1034 67.1158 78.1549 66.9702 78.258C66.8308 78.355 66.761 78.4824 66.761 78.64C66.761 78.8038 66.8277 78.9341 66.9611 79.0312C67.0946 79.1221 67.2674 79.201 67.4796 79.2677C67.6919 79.3283 67.9163 79.395 68.1528 79.4678C68.3953 79.5406 68.6227 79.6346 68.835 79.7498C69.0472 79.8589 69.2201 80.0105 69.3535 80.2046C69.4869 80.3987 69.5536 80.6503 69.5536 80.9596C69.5536 81.3538 69.3899 81.6873 69.0624 81.9602C68.741 82.2331 68.2801 82.3695 67.6797 82.3695ZM74.8378 82.3695C74.3284 82.3695 73.919 82.1876 73.6098 81.8237C73.3005 81.4538 73.1459 80.9353 73.1459 80.2683V79.4678C73.1459 78.8007 73.3005 78.2853 73.6098 77.9214C73.919 77.5515 74.3284 77.3665 74.8378 77.3665C75.2138 77.3665 75.5443 77.4666 75.8293 77.6667C76.1204 77.8668 76.3478 78.1549 76.5115 78.5309C76.6752 78.9008 76.7571 79.3465 76.7571 79.868C76.7571 80.3896 76.6752 80.8383 76.5115 81.2143C76.3478 81.5842 76.1204 81.8692 75.8293 82.0693C75.5443 82.2695 75.2138 82.3695 74.8378 82.3695ZM72.4909 82.2786V75.7747H73.4006V78.5673L73.2641 79.868L73.4006 81.1597V82.2786H72.4909ZM74.5831 81.5691C74.9469 81.5691 75.241 81.4356 75.4654 81.1688C75.6959 80.8959 75.8111 80.4623 75.8111 79.868C75.8111 79.2737 75.6959 78.8432 75.4654 78.5764C75.241 78.3035 74.9469 78.167 74.5831 78.167C74.2192 78.167 73.9221 78.3035 73.6916 78.5764C73.4673 78.8432 73.3551 79.2737 73.3551 79.868C73.3551 80.4623 73.4673 80.8959 73.6916 81.1688C73.9221 81.4356 74.2192 81.5691 74.5831 81.5691ZM79.6703 82.3695C79.2277 82.3695 78.8395 82.2664 78.506 82.0603C78.1725 81.8541 77.9117 81.563 77.7237 81.187C77.5418 80.811 77.4508 80.3714 77.4508 79.868C77.4508 79.3405 77.5448 78.8917 77.7328 78.5218C77.9208 78.1458 78.1785 77.8608 78.506 77.6667C78.8395 77.4666 79.2216 77.3665 79.6521 77.3665C80.0706 77.3665 80.4375 77.4666 80.7528 77.6667C81.0742 77.8608 81.3228 78.1458 81.4987 78.5218C81.6806 78.8917 81.7716 79.3405 81.7716 79.868C81.7716 79.9166 81.7716 79.962 81.7716 80.0045C81.7716 80.0469 81.7686 80.1045 81.7625 80.1773H78.1967V79.4587H81.0894L80.8256 79.868C80.8256 79.2616 80.7194 78.825 80.5072 78.5582C80.295 78.2853 80.0099 78.1488 79.6521 78.1488C79.2762 78.1488 78.973 78.2853 78.7425 78.5582C78.5121 78.825 78.3969 79.2616 78.3969 79.868C78.3969 80.432 78.509 80.8474 78.7334 81.1142C78.9639 81.3811 79.2762 81.5145 79.6703 81.5145C79.9372 81.5145 80.1646 81.4569 80.3526 81.3416C80.5466 81.2204 80.7013 81.0233 80.8165 80.7504L81.6624 81.0869C81.5048 81.4932 81.2501 81.8086 80.8983 82.033C80.5466 82.2573 80.1373 82.3695 79.6703 82.3695ZM82.7065 82.2786V75.7747H83.6162V82.2786H82.7065ZM86.7586 82.3695C86.3281 82.3695 85.946 82.2664 85.6125 82.0603C85.285 81.8541 85.0273 81.563 84.8393 81.187C84.6513 80.811 84.5573 80.3714 84.5573 79.868C84.5573 79.3586 84.6513 78.919 84.8393 78.5491C85.0273 78.1731 85.285 77.882 85.6125 77.6758C85.946 77.4696 86.3281 77.3665 86.7586 77.3665C87.1953 77.3665 87.5773 77.4696 87.9048 77.6758C88.2383 77.882 88.4991 78.1731 88.6871 78.5491C88.8751 78.919 88.9691 79.3586 88.9691 79.868C88.9691 80.3714 88.8751 80.811 88.6871 81.187C88.4991 81.563 88.2383 81.8541 87.9048 82.0603C87.5773 82.2664 87.1953 82.3695 86.7586 82.3695ZM86.7586 81.5509C87.1407 81.5509 87.4469 81.4174 87.6774 81.1506C87.9078 80.8777 88.023 80.4502 88.023 79.868C88.023 79.2859 87.9078 78.8614 87.6774 78.5946C87.4469 78.3217 87.1407 78.1852 86.7586 78.1852C86.3827 78.1852 86.0795 78.3217 85.849 78.5946C85.6186 78.8614 85.5034 79.2859 85.5034 79.868C85.5034 80.4502 85.6186 80.8777 85.849 81.1506C86.0795 81.4174 86.3827 81.5509 86.7586 81.5509ZM90.5932 82.2786L89.4016 77.4575H90.3203L91.4482 82.2786H90.5932ZM91.1026 82.2786L92.2396 77.4575H93.0128L91.8849 82.2786H91.1026ZM93.7223 82.2786L92.5944 77.4575H93.413L94.5774 82.2786H93.7223ZM94.2317 82.2786L95.3233 77.4575H96.2056L95.014 82.2786H94.2317ZM100.566 82.3695C100.093 82.3695 99.7226 82.2452 99.4558 81.9966C99.195 81.7419 99.0646 81.3659 99.0646 80.8686V76.4569L99.9743 76.275V80.7049C99.9743 80.9839 100.041 81.19 100.174 81.3235C100.308 81.4508 100.502 81.5145 100.757 81.5145C100.878 81.5145 100.99 81.5054 101.093 81.4872C101.202 81.469 101.308 81.4478 101.411 81.4235V82.2786C101.284 82.3089 101.154 82.3301 101.02 82.3422C100.893 82.3604 100.741 82.3695 100.566 82.3695ZM98.3824 78.2489V77.4575H101.366V78.2489H98.3824ZM104.178 82.3695C103.748 82.3695 103.366 82.2664 103.032 82.0603C102.705 81.8541 102.447 81.563 102.259 81.187C102.071 80.811 101.977 80.3714 101.977 79.868C101.977 79.3586 102.071 78.919 102.259 78.5491C102.447 78.1731 102.705 77.882 103.032 77.6758C103.366 77.4696 103.748 77.3665 104.178 77.3665C104.615 77.3665 104.997 77.4696 105.325 77.6758C105.658 77.882 105.919 78.1731 106.107 78.5491C106.295 78.919 106.389 79.3586 106.389 79.868C106.389 80.3714 106.295 80.811 106.107 81.187C105.919 81.563 105.658 81.8541 105.325 82.0603C104.997 82.2664 104.615 82.3695 104.178 82.3695ZM104.178 81.5509C104.561 81.5509 104.867 81.4174 105.097 81.1506C105.328 80.8777 105.443 80.4502 105.443 79.868C105.443 79.2859 105.328 78.8614 105.097 78.5946C104.867 78.3217 104.561 78.1852 104.178 78.1852C103.802 78.1852 103.499 78.3217 103.269 78.5946C103.038 78.8614 102.923 79.2859 102.923 79.868C102.923 80.4502 103.038 80.8777 103.269 81.1506C103.499 81.4174 103.802 81.5509 104.178 81.5509ZM111.249 82.3695C110.818 82.3695 110.439 82.2664 110.112 82.0603C109.784 81.8541 109.53 81.563 109.348 81.187C109.166 80.811 109.075 80.3714 109.075 79.868C109.075 79.3586 109.166 78.919 109.348 78.5491C109.53 78.1731 109.784 77.882 110.112 77.6758C110.439 77.4696 110.818 77.3665 111.249 77.3665C111.71 77.3665 112.107 77.4878 112.44 77.7304C112.78 77.9669 113.017 78.3186 113.15 78.7856L112.295 79.0676C112.198 78.7522 112.061 78.5278 111.886 78.3944C111.71 78.255 111.482 78.1852 111.203 78.1852C110.852 78.1852 110.567 78.3217 110.348 78.5946C110.13 78.8614 110.021 79.2859 110.021 79.868C110.021 80.4502 110.13 80.8777 110.348 81.1506C110.567 81.4174 110.852 81.5509 111.203 81.5509C111.482 81.5509 111.707 81.4811 111.876 81.3416C112.052 81.2022 112.183 80.9748 112.268 80.6594L113.15 80.9232C113.017 81.4023 112.78 81.7631 112.44 82.0057C112.107 82.2482 111.71 82.3695 111.249 82.3695ZM114.046 82.2786V77.4575H114.956V82.2786H114.046ZM114.674 79.7407C114.674 79.2556 114.747 78.8371 114.892 78.4854C115.044 78.1276 115.25 77.8517 115.511 77.6576C115.778 77.4636 116.087 77.3665 116.439 77.3665V78.3762H116.147C115.79 78.3762 115.502 78.4733 115.283 78.6673C115.065 78.8614 114.956 79.1797 114.956 79.6224L114.674 79.7407ZM119.183 82.3695C118.74 82.3695 118.352 82.2664 118.018 82.0603C117.685 81.8541 117.424 81.563 117.236 81.187C117.054 80.811 116.963 80.3714 116.963 79.868C116.963 79.3405 117.057 78.8917 117.245 78.5218C117.433 78.1458 117.691 77.8608 118.018 77.6667C118.352 77.4666 118.734 77.3665 119.164 77.3665C119.583 77.3665 119.95 77.4666 120.265 77.6667C120.586 77.8608 120.835 78.1458 121.011 78.5218C121.193 78.8917 121.284 79.3405 121.284 79.868C121.284 79.9166 121.284 79.962 121.284 80.0045C121.284 80.0469 121.281 80.1045 121.275 80.1773H117.709V79.4587H120.602L120.338 79.868C120.338 79.2616 120.232 78.825 120.019 78.5582C119.807 78.2853 119.522 78.1488 119.164 78.1488C118.788 78.1488 118.485 78.2853 118.255 78.5582C118.024 78.825 117.909 79.2616 117.909 79.868C117.909 80.432 118.021 80.8474 118.246 81.1142C118.476 81.3811 118.788 81.5145 119.183 81.5145C119.449 81.5145 119.677 81.4569 119.865 81.3416C120.059 81.2204 120.213 81.0233 120.329 80.7504L121.175 81.0869C121.017 81.4932 120.762 81.8086 120.411 82.033C120.059 82.2573 119.649 82.3695 119.183 82.3695ZM125.13 82.2786C125.093 82.1209 125.063 81.9602 125.039 81.7965C125.02 81.6327 125.011 81.472 125.011 81.3144V79.2768C125.011 78.8826 124.908 78.6006 124.702 78.4308C124.502 78.255 124.259 78.167 123.974 78.167C123.714 78.167 123.492 78.2398 123.31 78.3853C123.134 78.5248 123.007 78.7371 122.928 79.0221L122.073 78.7401C122.207 78.2974 122.446 77.9578 122.792 77.7213C123.143 77.4848 123.556 77.3665 124.029 77.3665C124.629 77.3665 125.093 77.5273 125.421 77.8487C125.754 78.1701 125.921 78.6097 125.921 79.1676V81.2052C125.921 81.563 125.966 81.9208 126.057 82.2786H125.13ZM123.365 82.3695C122.946 82.3695 122.61 82.2482 122.355 82.0057C122.106 81.7631 121.982 81.4569 121.982 81.0869C121.982 80.7231 122.103 80.4108 122.346 80.15C122.595 79.8832 122.977 79.7043 123.492 79.6133L125.193 79.3223V80.0227L123.792 80.3047C123.471 80.3653 123.241 80.4593 123.101 80.5866C122.962 80.7079 122.892 80.8535 122.892 81.0233C122.892 81.1627 122.949 81.2931 123.065 81.4144C123.18 81.5296 123.365 81.5872 123.62 81.5872C123.844 81.5872 124.062 81.5357 124.274 81.4326C124.487 81.3235 124.663 81.1718 124.802 80.9778C124.942 80.7777 125.011 80.5412 125.011 80.2683H125.311C125.311 80.6988 125.22 81.0718 125.039 81.3871C124.863 81.7025 124.626 81.945 124.329 82.1148C124.038 82.2846 123.717 82.3695 123.365 82.3695ZM128.787 82.3695C128.314 82.3695 127.944 82.2452 127.677 81.9966C127.417 81.7419 127.286 81.3659 127.286 80.8686V76.4569L128.196 76.275V80.7049C128.196 80.9839 128.263 81.19 128.396 81.3235C128.529 81.4508 128.724 81.5145 128.978 81.5145C129.1 81.5145 129.212 81.5054 129.315 81.4872C129.424 81.469 129.53 81.4478 129.633 81.4235V82.2786C129.506 82.3089 129.375 82.3301 129.242 82.3422C129.115 82.3604 128.963 82.3695 128.787 82.3695ZM126.604 78.2489V77.4575H129.588V78.2489H126.604ZM132.418 82.3695C131.976 82.3695 131.588 82.2664 131.254 82.0603C130.921 81.8541 130.66 81.563 130.472 81.187C130.29 80.811 130.199 80.3714 130.199 79.868C130.199 79.3405 130.293 78.8917 130.481 78.5218C130.669 78.1458 130.927 77.8608 131.254 77.6667C131.588 77.4666 131.97 77.3665 132.4 77.3665C132.819 77.3665 133.185 77.4666 133.501 77.6667C133.822 77.8608 134.071 78.1458 134.247 78.5218C134.429 78.8917 134.52 79.3405 134.52 79.868C134.52 79.9166 134.52 79.962 134.52 80.0045C134.52 80.0469 134.517 80.1045 134.511 80.1773H130.945V79.4587H133.837L133.574 79.868C133.574 79.2616 133.467 78.825 133.255 78.5582C133.043 78.2853 132.758 78.1488 132.4 78.1488C132.024 78.1488 131.721 78.2853 131.491 78.5582C131.26 78.825 131.145 79.2616 131.145 79.868C131.145 80.432 131.257 80.8474 131.481 81.1142C131.712 81.3811 132.024 81.5145 132.418 81.5145C132.685 81.5145 132.913 81.4569 133.101 81.3416C133.295 81.2204 133.449 81.0233 133.565 80.7504L134.41 81.0869C134.253 81.4932 133.998 81.8086 133.646 82.033C133.295 82.2573 132.885 82.3695 132.418 82.3695ZM140.364 82.2786C140.328 82.1209 140.297 81.9602 140.273 81.7965C140.255 81.6327 140.246 81.472 140.246 81.3144V79.2768C140.246 78.8826 140.143 78.6006 139.937 78.4308C139.736 78.255 139.494 78.167 139.209 78.167C138.948 78.167 138.727 78.2398 138.545 78.3853C138.369 78.5248 138.242 78.7371 138.163 79.0221L137.308 78.7401C137.441 78.2974 137.681 77.9578 138.026 77.7213C138.378 77.4848 138.79 77.3665 139.263 77.3665C139.864 77.3665 140.328 77.5273 140.655 77.8487C140.989 78.1701 141.155 78.6097 141.155 79.1676V81.2052C141.155 81.563 141.201 81.9208 141.292 82.2786H140.364ZM138.599 82.3695C138.181 82.3695 137.844 82.2482 137.59 82.0057C137.341 81.7631 137.217 81.4569 137.217 81.0869C137.217 80.7231 137.338 80.4108 137.581 80.15C137.829 79.8832 138.211 79.7043 138.727 79.6133L140.428 79.3223V80.0227L139.027 80.3047C138.706 80.3653 138.475 80.4593 138.336 80.5866C138.196 80.7079 138.126 80.8535 138.126 81.0233C138.126 81.1627 138.184 81.2931 138.299 81.4144C138.414 81.5296 138.599 81.5872 138.854 81.5872C139.078 81.5872 139.297 81.5357 139.509 81.4326C139.721 81.3235 139.897 81.1718 140.037 80.9778C140.176 80.7777 140.246 80.5412 140.246 80.2683H140.546C140.546 80.6988 140.455 81.0718 140.273 81.3871C140.097 81.7025 139.861 81.945 139.564 82.1148C139.273 82.2846 138.951 82.3695 138.599 82.3695ZM146.685 82.3695C146.175 82.3695 145.766 82.1876 145.457 81.8237C145.147 81.4538 144.993 80.9353 144.993 80.2683V79.4678C144.993 78.8007 145.147 78.2853 145.457 77.9214C145.766 77.5515 146.175 77.3665 146.685 77.3665C147.061 77.3665 147.391 77.4666 147.676 77.6667C147.967 77.8668 148.195 78.1549 148.358 78.5309C148.522 78.9008 148.604 79.3465 148.604 79.868C148.604 80.3896 148.522 80.8383 148.358 81.2143C148.195 81.5842 147.967 81.8692 147.676 82.0693C147.391 82.2695 147.061 82.3695 146.685 82.3695ZM144.338 83.8704V77.4575H145.247V78.5764L145.111 79.868L145.247 81.1688V83.8704H144.338ZM146.43 81.5691C146.794 81.5691 147.088 81.4356 147.312 81.1688C147.543 80.8959 147.658 80.4623 147.658 79.868C147.658 79.2737 147.543 78.8432 147.312 78.5764C147.088 78.3035 146.794 78.167 146.43 78.167C146.066 78.167 145.769 78.3035 145.538 78.5764C145.314 78.8432 145.202 79.2737 145.202 79.868C145.202 80.4623 145.314 80.8959 145.538 81.1688C145.769 81.4356 146.066 81.5691 146.43 81.5691ZM149.543 82.2786V77.4575H150.453V82.2786H149.543ZM150.171 79.7407C150.171 79.2556 150.244 78.8371 150.389 78.4854C150.541 78.1276 150.747 77.8517 151.008 77.6576C151.275 77.4636 151.584 77.3665 151.936 77.3665V78.3762H151.644C151.287 78.3762 150.999 78.4733 150.78 78.6673C150.562 78.8614 150.453 79.1797 150.453 79.6224L150.171 79.7407ZM154.661 82.3695C154.231 82.3695 153.849 82.2664 153.515 82.0603C153.188 81.8541 152.93 81.563 152.742 81.187C152.554 80.811 152.46 80.3714 152.46 79.868C152.46 79.3586 152.554 78.919 152.742 78.5491C152.93 78.1731 153.188 77.882 153.515 77.6758C153.849 77.4696 154.231 77.3665 154.661 77.3665C155.098 77.3665 155.48 77.4696 155.807 77.6758C156.141 77.882 156.402 78.1731 156.59 78.5491C156.778 78.919 156.872 79.3586 156.872 79.868C156.872 80.3714 156.778 80.811 156.59 81.187C156.402 81.563 156.141 81.8541 155.807 82.0603C155.48 82.2664 155.098 82.3695 154.661 82.3695ZM154.661 81.5509C155.043 81.5509 155.35 81.4174 155.58 81.1506C155.81 80.8777 155.926 80.4502 155.926 79.868C155.926 79.2859 155.81 78.8614 155.58 78.5946C155.35 78.3217 155.043 78.1852 154.661 78.1852C154.285 78.1852 153.982 78.3217 153.752 78.5946C153.521 78.8614 153.406 79.2859 153.406 79.868C153.406 80.4502 153.521 80.8777 153.752 81.1506C153.982 81.4174 154.285 81.5509 154.661 81.5509ZM157.986 82.2786V77.2756C157.986 76.7419 158.123 76.3447 158.396 76.084C158.669 75.8171 159.051 75.6837 159.542 75.6837C159.663 75.6837 159.772 75.6928 159.869 75.711C159.972 75.7231 160.082 75.7444 160.197 75.7747V76.5934C160.106 76.563 160.015 76.5388 159.924 76.5206C159.833 76.5024 159.736 76.4933 159.633 76.4933C159.39 76.4933 159.205 76.557 159.078 76.6843C158.957 76.8117 158.896 76.9875 158.896 77.2119V82.2786H157.986ZM157.304 78.2489V77.4575H161.334V78.2489H157.304ZM160.897 82.2786V77.4575H161.807V82.2786H160.897ZM161.352 76.8026C161.194 76.8026 161.061 76.751 160.952 76.6479C160.843 76.5448 160.788 76.4114 160.788 76.2477C160.788 76.0779 160.843 75.9415 160.952 75.8384C161.061 75.7353 161.194 75.6837 161.352 75.6837C161.51 75.6837 161.643 75.7353 161.752 75.8384C161.861 75.9415 161.916 76.0779 161.916 76.2477C161.916 76.4114 161.861 76.5448 161.752 76.6479C161.643 76.751 161.51 76.8026 161.352 76.8026ZM162.992 82.2786V75.7747H163.902V82.2786H162.992ZM167.063 82.3695C166.62 82.3695 166.232 82.2664 165.898 82.0603C165.565 81.8541 165.304 81.563 165.116 81.187C164.934 80.811 164.843 80.3714 164.843 79.868C164.843 79.3405 164.937 78.8917 165.125 78.5218C165.313 78.1458 165.571 77.8608 165.898 77.6667C166.232 77.4666 166.614 77.3665 167.044 77.3665C167.463 77.3665 167.83 77.4666 168.145 77.6667C168.466 77.8608 168.715 78.1458 168.891 78.5218C169.073 78.8917 169.164 79.3405 169.164 79.868C169.164 79.9166 169.164 79.962 169.164 80.0045C169.164 80.0469 169.161 80.1045 169.155 80.1773H165.589V79.4587H168.482L168.218 79.868C168.218 79.2616 168.112 78.825 167.899 78.5582C167.687 78.2853 167.402 78.1488 167.044 78.1488C166.668 78.1488 166.365 78.2853 166.135 78.5582C165.904 78.825 165.789 79.2616 165.789 79.868C165.789 80.432 165.901 80.8474 166.126 81.1142C166.356 81.3811 166.668 81.5145 167.063 81.5145C167.329 81.5145 167.557 81.4569 167.745 81.3416C167.939 81.2204 168.093 81.0233 168.209 80.7504L169.055 81.0869C168.897 81.4932 168.642 81.8086 168.291 82.033C167.939 82.2573 167.53 82.3695 167.063 82.3695Z" fill="#64748B"/>
<path d="M24.2641 210.146C23.8015 210.146 23.3935 210.035 23.04 209.811C22.6866 209.588 22.4111 209.27 22.2136 208.86C22.016 208.444 21.9173 207.95 21.9173 207.378C21.9173 206.801 22.016 206.308 22.2136 205.897C22.4111 205.481 22.6866 205.164 23.04 204.946C23.3935 204.722 23.8015 204.611 24.2641 204.611C24.6332 204.611 24.9658 204.676 25.2621 204.805C25.5584 204.935 25.8079 205.128 26.0106 205.382C26.2133 205.632 26.3563 205.939 26.4395 206.302L25.6286 206.521C25.5506 206.136 25.3921 205.848 25.153 205.655C24.9191 205.463 24.615 205.367 24.2407 205.367C23.7989 205.367 23.4429 205.541 23.1726 205.889C22.9023 206.232 22.7671 206.729 22.7671 207.378C22.7671 208.023 22.9023 208.519 23.1726 208.868C23.4429 209.216 23.7989 209.39 24.2407 209.39C24.6254 209.39 24.9347 209.294 25.1686 209.102C25.4025 208.904 25.5662 208.61 25.6598 208.221L26.4706 208.439C26.3771 208.808 26.2263 209.12 26.0184 209.374C25.8105 209.629 25.5584 209.821 25.2621 209.951C24.9658 210.081 24.6332 210.146 24.2641 210.146ZM27.2815 210.068V205.936H28.0611V210.068H27.2815ZM27.8194 207.893C27.8194 207.477 27.8818 207.119 28.0066 206.817C28.1365 206.51 28.3132 206.274 28.5367 206.108C28.7655 205.941 29.0305 205.858 29.332 205.858V206.724H29.0825C28.7758 206.724 28.5289 206.807 28.3418 206.973C28.1547 207.139 28.0611 207.412 28.0611 207.792L27.8194 207.893ZM31.684 210.146C31.3045 210.146 30.9719 210.058 30.686 209.881C30.4001 209.705 30.1766 209.455 30.0155 209.133C29.8595 208.81 29.7816 208.434 29.7816 208.002C29.7816 207.55 29.8621 207.165 30.0233 206.848C30.1844 206.526 30.4053 206.282 30.686 206.115C30.9719 205.944 31.2993 205.858 31.6684 205.858C32.0271 205.858 32.3415 205.944 32.6118 206.115C32.8873 206.282 33.1004 206.526 33.2512 206.848C33.4071 207.165 33.4851 207.55 33.4851 208.002C33.4851 208.044 33.4851 208.083 33.4851 208.119C33.4851 208.156 33.4825 208.205 33.4773 208.267H30.4209V207.651H32.9003L32.6742 208.002C32.6742 207.482 32.5832 207.108 32.4013 206.879C32.2194 206.646 31.9751 206.529 31.6684 206.529C31.3461 206.529 31.0862 206.646 30.8887 206.879C30.6912 207.108 30.5924 207.482 30.5924 208.002C30.5924 208.486 30.6886 208.842 30.8809 209.07C31.0784 209.299 31.3461 209.413 31.684 209.413C31.9127 209.413 32.1076 209.364 32.2688 209.265C32.4351 209.161 32.5676 208.992 32.6664 208.758L33.3915 209.047C33.2564 209.395 33.038 209.666 32.7366 209.858C32.4351 210.05 32.0842 210.146 31.684 210.146ZM36.7814 210.068C36.7502 209.933 36.7242 209.795 36.7035 209.655C36.6879 209.515 36.6801 209.377 36.6801 209.242V207.495C36.6801 207.158 36.5917 206.916 36.415 206.77C36.2434 206.62 36.0355 206.544 35.7912 206.544C35.5677 206.544 35.378 206.607 35.2221 206.731C35.0713 206.851 34.9622 207.033 34.8946 207.277L34.1617 207.035C34.276 206.656 34.4814 206.365 34.7776 206.162C35.0791 205.959 35.4326 205.858 35.838 205.858C36.3526 205.858 36.7502 205.996 37.0309 206.271C37.3168 206.547 37.4598 206.924 37.4598 207.402V209.148C37.4598 209.455 37.4987 209.762 37.5767 210.068H36.7814ZM35.2688 210.146C34.9102 210.146 34.6217 210.042 34.4034 209.834C34.1903 209.627 34.0837 209.364 34.0837 209.047C34.0837 208.735 34.1877 208.467 34.3956 208.244C34.6087 208.015 34.9362 207.862 35.378 207.784L36.836 207.534V208.135L35.6353 208.376C35.3598 208.428 35.1623 208.509 35.0427 208.618C34.9232 208.722 34.8634 208.847 34.8634 208.992C34.8634 209.112 34.9128 209.224 35.0115 209.328C35.1103 209.426 35.2688 209.476 35.4871 209.476C35.6795 209.476 35.8666 209.432 36.0485 209.343C36.2304 209.25 36.3812 209.12 36.5007 208.953C36.6203 208.782 36.6801 208.579 36.6801 208.345H36.9374C36.9374 208.714 36.8594 209.034 36.7035 209.304C36.5527 209.575 36.35 209.782 36.0953 209.928C35.8458 210.074 35.5703 210.146 35.2688 210.146ZM39.9166 210.146C39.5112 210.146 39.1941 210.04 38.9654 209.827C38.7419 209.608 38.6301 209.286 38.6301 208.86V205.078L39.4098 204.922V208.72C39.4098 208.959 39.467 209.135 39.5813 209.25C39.6957 209.359 39.862 209.413 40.0803 209.413C40.1843 209.413 40.2805 209.406 40.3688 209.39C40.4624 209.374 40.5534 209.356 40.6417 209.335V210.068C40.5326 210.094 40.4208 210.113 40.3065 210.123C40.1973 210.139 40.0674 210.146 39.9166 210.146ZM38.0454 206.614V205.936H40.6027V206.614H38.0454ZM43.029 210.146C42.6496 210.146 42.3169 210.058 42.031 209.881C41.7451 209.705 41.5216 209.455 41.3605 209.133C41.2046 208.81 41.1266 208.434 41.1266 208.002C41.1266 207.55 41.2072 207.165 41.3683 206.848C41.5294 206.526 41.7503 206.282 42.031 206.115C42.3169 205.944 42.6444 205.858 43.0134 205.858C43.3721 205.858 43.6866 205.944 43.9568 206.115C44.2323 206.282 44.4454 206.526 44.5962 206.848C44.7521 207.165 44.8301 207.55 44.8301 208.002C44.8301 208.044 44.8301 208.083 44.8301 208.119C44.8301 208.156 44.8275 208.205 44.8223 208.267H41.7659V207.651H44.2453L44.0192 208.002C44.0192 207.482 43.9283 207.108 43.7463 206.879C43.5644 206.646 43.3201 206.529 43.0134 206.529C42.6912 206.529 42.4313 206.646 42.2337 206.879C42.0362 207.108 41.9375 207.482 41.9375 208.002C41.9375 208.486 42.0336 208.842 42.2259 209.07C42.4235 209.299 42.6912 209.413 43.029 209.413C43.2577 209.413 43.4526 209.364 43.6138 209.265C43.7801 209.161 43.9127 208.992 44.0114 208.758L44.7365 209.047C44.6014 209.395 44.3831 209.666 44.0816 209.858C43.7801 210.05 43.4293 210.146 43.029 210.146ZM48.7637 210.146C48.3478 210.146 48.0074 210.001 47.7423 209.71C47.4772 209.419 47.3446 209.024 47.3446 208.525V205.936H48.1243V208.345C48.1243 208.709 48.2153 208.987 48.3972 209.18C48.5791 209.367 48.8 209.46 49.0599 209.46C49.3198 209.46 49.5407 209.367 49.7227 209.18C49.9046 208.987 49.9956 208.709 49.9956 208.345H50.2529C50.2529 208.714 50.1879 209.034 50.0579 209.304C49.928 209.575 49.7513 209.782 49.5278 209.928C49.3042 210.074 49.0495 210.146 48.7637 210.146ZM49.9956 210.068V205.936H50.7753V210.068H49.9956ZM53.2181 210.146C52.7503 210.146 52.376 210.053 52.0954 209.866C51.8147 209.673 51.6171 209.393 51.5028 209.024L52.2357 208.79C52.3241 209.05 52.454 209.237 52.6255 209.351C52.7971 209.46 53.0128 209.515 53.2727 209.515C53.5066 209.515 53.6937 209.471 53.8341 209.382C53.9796 209.289 54.0524 209.159 54.0524 208.992C54.0524 208.831 53.9952 208.707 53.8808 208.618C53.7665 208.525 53.6183 208.449 53.4364 208.392C53.2545 208.33 53.0596 208.27 52.8516 208.213C52.6489 208.15 52.4566 208.075 52.2747 207.987C52.0928 207.898 51.9446 207.779 51.8303 207.628C51.7159 207.472 51.6587 207.269 51.6587 207.02C51.6587 206.698 51.7913 206.425 52.0564 206.201C52.3215 205.972 52.7009 205.858 53.1947 205.858C53.6209 205.858 53.964 205.952 54.2239 206.139C54.4838 206.326 54.6709 206.599 54.7853 206.957L54.0758 207.199C53.9822 206.944 53.8574 206.762 53.7015 206.653C53.5508 206.544 53.361 206.49 53.1323 206.49C52.9088 206.49 52.7347 206.534 52.6099 206.622C52.4904 206.705 52.4306 206.814 52.4306 206.95C52.4306 207.09 52.4878 207.202 52.6021 207.285C52.7165 207.363 52.8646 207.43 53.0466 207.488C53.2285 207.54 53.4208 207.597 53.6235 207.659C53.8315 207.722 54.0264 207.802 54.2083 207.901C54.3902 207.994 54.5384 208.124 54.6527 208.291C54.7671 208.457 54.8243 208.673 54.8243 208.938C54.8243 209.276 54.6839 209.562 54.4032 209.795C54.1277 210.029 53.7327 210.146 53.2181 210.146ZM57.3207 210.146C56.9413 210.146 56.6086 210.058 56.3227 209.881C56.0368 209.705 55.8133 209.455 55.6522 209.133C55.4962 208.81 55.4183 208.434 55.4183 208.002C55.4183 207.55 55.4988 207.165 55.66 206.848C55.8211 206.526 56.042 206.282 56.3227 206.115C56.6086 205.944 56.9361 205.858 57.3051 205.858C57.6638 205.858 57.9782 205.944 58.2485 206.115C58.524 206.282 58.7371 206.526 58.8879 206.848C59.0438 207.165 59.1218 207.55 59.1218 208.002C59.1218 208.044 59.1218 208.083 59.1218 208.119C59.1218 208.156 59.1192 208.205 59.114 208.267H56.0576V207.651H58.537L58.3109 208.002C58.3109 207.482 58.2199 207.108 58.038 206.879C57.8561 206.646 57.6118 206.529 57.3051 206.529C56.9828 206.529 56.7229 206.646 56.5254 206.879C56.3279 207.108 56.2291 207.482 56.2291 208.002C56.2291 208.486 56.3253 208.842 56.5176 209.07C56.7152 209.299 56.9828 209.413 57.3207 209.413C57.5494 209.413 57.7443 209.364 57.9055 209.265C58.0718 209.161 58.2043 208.992 58.3031 208.758L59.0282 209.047C58.8931 209.395 58.6748 209.666 58.3733 209.858C58.0718 210.05 57.7209 210.146 57.3207 210.146ZM59.9231 210.068V205.936H60.7028V210.068H59.9231ZM60.4611 207.893C60.4611 207.477 60.5235 207.119 60.6483 206.817C60.7782 206.51 60.9549 206.274 61.1784 206.108C61.4071 205.941 61.6722 205.858 61.9737 205.858V206.724H61.7242C61.4175 206.724 61.1706 206.807 60.9835 206.973C60.7964 207.139 60.7028 207.412 60.7028 207.792L60.4611 207.893ZM65.3159 210.068V207.659C65.3159 207.29 65.2223 207.012 65.0352 206.825C64.8481 206.638 64.6246 206.544 64.3647 206.544C64.1048 206.544 63.8813 206.638 63.6941 206.825C63.507 207.012 63.4135 207.29 63.4135 207.659H63.1562C63.1562 207.29 63.2211 206.97 63.3511 206.7C63.4862 206.43 63.6682 206.222 63.8969 206.076C64.1256 205.931 64.3803 205.858 64.661 205.858C64.9416 205.858 65.1885 205.926 65.4017 206.061C65.62 206.191 65.7889 206.378 65.9084 206.622C66.0332 206.861 66.0956 207.147 66.0956 207.48V210.068H65.3159ZM62.6338 210.068V205.936H63.4135V210.068H62.6338ZM69.6059 210.068C69.5747 209.933 69.5487 209.795 69.5279 209.655C69.5123 209.515 69.5045 209.377 69.5045 209.242V207.495C69.5045 207.158 69.4161 206.916 69.2394 206.77C69.0679 206.62 68.86 206.544 68.6157 206.544C68.3922 206.544 68.2024 206.607 68.0465 206.731C67.8958 206.851 67.7866 207.033 67.719 207.277L66.9861 207.035C67.1005 206.656 67.3058 206.365 67.6021 206.162C67.9035 205.959 68.257 205.858 68.6624 205.858C69.177 205.858 69.5747 205.996 69.8554 206.271C70.1412 206.547 70.2842 206.924 70.2842 207.402V209.148C70.2842 209.455 70.3232 209.762 70.4011 210.068H69.6059ZM68.0933 210.146C67.7346 210.146 67.4461 210.042 67.2278 209.834C67.0147 209.627 66.9081 209.364 66.9081 209.047C66.9081 208.735 67.0121 208.467 67.22 208.244C67.4331 208.015 67.7606 207.862 68.2024 207.784L69.6604 207.534V208.135L68.4597 208.376C68.1842 208.428 67.9867 208.509 67.8672 208.618C67.7476 208.722 67.6878 208.847 67.6878 208.992C67.6878 209.112 67.7372 209.224 67.836 209.328C67.9347 209.426 68.0933 209.476 68.3116 209.476C68.5039 209.476 68.691 209.432 68.873 209.343C69.0549 209.25 69.2056 209.12 69.3252 208.953C69.4447 208.782 69.5045 208.579 69.5045 208.345H69.7618C69.7618 208.714 69.6838 209.034 69.5279 209.304C69.3772 209.575 69.1744 209.782 68.9197 209.928C68.6702 210.074 68.3947 210.146 68.0933 210.146ZM76.1951 210.068V207.503C76.1951 207.186 76.1119 206.947 75.9456 206.786C75.7844 206.625 75.5895 206.544 75.3608 206.544C75.1321 206.544 74.9346 206.625 74.7682 206.786C74.6071 206.947 74.5265 207.186 74.5265 207.503H74.2692C74.2692 207.165 74.329 206.874 74.4486 206.63C74.5733 206.38 74.7396 206.191 74.9476 206.061C75.1607 205.926 75.3972 205.858 75.6571 205.858C76.0417 205.858 76.3562 205.991 76.6005 206.256C76.85 206.516 76.9747 206.872 76.9747 207.324V210.068H76.1951ZM71.2986 210.068V205.936H72.0783V210.068H71.2986ZM73.7468 210.068V207.503C73.7468 207.186 73.6637 206.947 73.4973 206.786C73.3362 206.625 73.1413 206.544 72.9126 206.544C72.6839 206.544 72.4864 206.625 72.32 206.786C72.1589 206.947 72.0783 207.186 72.0783 207.503H71.821C71.821 207.165 71.8808 206.874 72.0003 206.63C72.1251 206.38 72.2914 206.191 72.4993 206.061C72.7125 205.926 72.949 205.858 73.2089 205.858C73.5935 205.858 73.908 205.991 74.1523 206.256C74.4018 206.516 74.5265 206.872 74.5265 207.324V210.068H73.7468ZM79.6834 210.146C79.3039 210.146 78.9712 210.058 78.6854 209.881C78.3995 209.705 78.176 209.455 78.0148 209.133C77.8589 208.81 77.7809 208.434 77.7809 208.002C77.7809 207.55 77.8615 207.165 78.0226 206.848C78.1838 206.526 78.4047 206.282 78.6854 206.115C78.9712 205.944 79.2987 205.858 79.6678 205.858C80.0264 205.858 80.3409 205.944 80.6112 206.115C80.8867 206.282 81.0998 206.526 81.2505 206.848C81.4065 207.165 81.4844 207.55 81.4844 208.002C81.4844 208.044 81.4844 208.083 81.4844 208.119C81.4844 208.156 81.4818 208.205 81.4766 208.267H78.4203V207.651H80.8997L80.6736 208.002C80.6736 207.482 80.5826 207.108 80.4007 206.879C80.2187 206.646 79.9744 206.529 79.6678 206.529C79.3455 206.529 79.0856 206.646 78.8881 206.879C78.6906 207.108 78.5918 207.482 78.5918 208.002C78.5918 208.486 78.688 208.842 78.8803 209.07C79.0778 209.299 79.3455 209.413 79.6834 209.413C79.9121 209.413 80.107 209.364 80.2681 209.265C80.4344 209.161 80.567 208.992 80.6658 208.758L81.3909 209.047C81.2557 209.395 81.0374 209.666 80.7359 209.858C80.4344 210.05 80.0836 210.146 79.6834 210.146Z" fill="#0F0B1C"/>
<rect x="13.7773" y="217.266" width="217.662" height="29.7916" rx="14.8958" fill="#F1F5F9"/>
<path d="M24.7971 232.713C24.7971 232.172 24.8751 231.686 25.031 231.255C25.1869 230.823 25.4078 230.457 25.6937 230.156C25.9796 229.854 26.3201 229.623 26.7151 229.462C27.1102 229.3 27.5468 229.22 28.025 229.22C28.4304 229.22 28.8177 229.293 29.1867 229.438C29.5558 229.579 29.8832 229.789 30.1691 230.07C30.455 230.35 30.6785 230.701 30.8396 231.122C31.006 231.543 31.0891 232.032 31.0891 232.588C31.0891 233.009 31.0502 233.357 30.9722 233.633C30.8994 233.908 30.8007 234.127 30.6759 234.288C30.5564 234.444 30.4264 234.556 30.2861 234.623C30.1457 234.691 30.008 234.724 29.8728 234.724C29.6337 234.724 29.431 234.654 29.2647 234.514C29.0984 234.374 28.9788 234.155 28.906 233.859C28.7605 234.062 28.5786 234.228 28.3602 234.358C28.1419 234.488 27.921 234.553 27.6975 234.553C27.4428 234.553 27.2089 234.485 26.9958 234.35C26.7879 234.215 26.6216 234.01 26.4968 233.734C26.3721 233.459 26.3097 233.113 26.3097 232.697C26.3097 232.245 26.3772 231.879 26.5124 231.598C26.6527 231.312 26.8373 231.102 27.066 230.966C27.2947 230.831 27.5468 230.764 27.8223 230.764C28.051 230.764 28.2563 230.821 28.4382 230.935C28.6253 231.044 28.7735 231.208 28.8826 231.426L28.9762 230.826H29.405L29.3582 231.13C29.3427 231.244 29.3323 231.348 29.3271 231.442C29.3219 231.536 29.3193 231.647 29.3193 231.777V233.594C29.3193 233.817 29.3712 233.994 29.4752 234.124C29.5792 234.254 29.7117 234.319 29.8728 234.319C29.9872 234.319 30.1041 234.272 30.2237 234.179C30.3432 234.085 30.4446 233.914 30.5278 233.664C30.6109 233.409 30.6525 233.051 30.6525 232.588C30.6525 232.094 30.5824 231.663 30.442 231.294C30.3069 230.92 30.1171 230.61 29.8728 230.366C29.6285 230.117 29.3478 229.932 29.0308 229.812C28.7137 229.688 28.3784 229.625 28.025 229.625C27.604 229.625 27.2219 229.698 26.8788 229.844C26.5358 229.989 26.2421 230.2 25.9978 230.475C25.7535 230.745 25.5638 231.07 25.4286 231.45C25.2987 231.824 25.2337 232.245 25.2337 232.713C25.2337 233.155 25.2987 233.563 25.4286 233.937C25.5638 234.306 25.7509 234.626 25.99 234.896C26.2343 235.172 26.5254 235.385 26.8633 235.535C27.2011 235.686 27.5754 235.761 27.986 235.761C28.3083 235.761 28.6175 235.72 28.9138 235.637C29.2101 235.559 29.4674 235.455 29.6857 235.325L29.865 235.722C29.6311 235.832 29.3504 235.933 29.023 236.027C28.7007 236.12 28.3551 236.167 27.986 236.167C27.513 236.167 27.079 236.081 26.6839 235.91C26.2941 235.738 25.9588 235.496 25.6781 235.184C25.3974 234.878 25.1791 234.514 25.0232 234.093C24.8725 233.672 24.7971 233.212 24.7971 232.713ZM26.7853 232.658C26.7853 233.007 26.8295 233.29 26.9178 233.508C27.0114 233.721 27.1309 233.877 27.2765 233.976C27.4272 234.075 27.5884 234.124 27.7599 234.124C27.9574 234.124 28.1497 234.075 28.3369 233.976C28.5292 233.872 28.7007 233.729 28.8515 233.547V232.385C28.8515 232.115 28.8073 231.892 28.7189 231.715C28.6305 231.533 28.511 231.398 28.3602 231.309C28.2095 231.216 28.0406 231.169 27.8535 231.169C27.5468 231.169 27.2921 231.283 27.0894 231.512C26.8866 231.736 26.7853 232.118 26.7853 232.658ZM31.0954 236.042L31.1967 235.645C31.2695 235.676 31.3423 235.699 31.415 235.715C31.4826 235.73 31.5528 235.738 31.6255 235.738C31.8075 235.738 31.9504 235.683 32.0544 235.574C32.1635 235.465 32.2181 235.283 32.2181 235.029V230.686H32.6859V235.036C32.6859 235.379 32.5898 235.652 32.3974 235.855C32.2103 236.063 31.9582 236.167 31.6411 236.167C31.558 236.167 31.467 236.154 31.3682 236.128C31.2643 236.107 31.1733 236.079 31.0954 236.042ZM32.1167 229.337C32.1167 229.238 32.1479 229.155 32.2103 229.087C32.2779 229.02 32.3584 228.986 32.452 228.986C32.5508 228.986 32.6313 229.02 32.6937 229.087C32.7561 229.155 32.7873 229.238 32.7873 229.337C32.7873 229.43 32.7561 229.511 32.6937 229.579C32.6313 229.646 32.5508 229.68 32.452 229.68C32.3584 229.68 32.2779 229.646 32.2103 229.579C32.1479 229.511 32.1167 229.43 32.1167 229.337ZM33.6605 233.719C33.6605 233.495 33.7151 233.287 33.8243 233.095C33.9386 232.903 34.1231 232.744 34.3778 232.619C34.6377 232.489 34.9808 232.411 35.407 232.385L36.0308 232.346V232.136C36.0308 231.751 35.9398 231.476 35.7579 231.309C35.5759 231.138 35.3342 231.052 35.0328 231.052C34.8456 231.052 34.6637 231.078 34.487 231.13C34.3103 231.177 34.1335 231.252 33.9568 231.356L33.7697 230.982C33.9568 230.878 34.1673 230.792 34.4012 230.725C34.6351 230.657 34.856 230.623 35.064 230.623C35.3394 230.623 35.5837 230.681 35.7969 230.795C36.0152 230.904 36.1867 231.068 36.3115 231.286C36.4362 231.504 36.4986 231.78 36.4986 232.113V233.711C36.4986 233.841 36.5012 233.953 36.5064 234.046C36.5116 234.14 36.522 234.244 36.5376 234.358L36.5843 234.662H36.1555L36.0697 234.085C35.9086 234.277 35.7059 234.433 35.4616 234.553C35.2173 234.667 34.9756 234.724 34.7365 234.724C34.5234 234.724 34.3337 234.68 34.1673 234.592C34.0062 234.498 33.8814 234.376 33.7931 234.225C33.7047 234.075 33.6605 233.906 33.6605 233.719ZM34.1205 233.664C34.1205 233.846 34.1803 233.999 34.2999 234.124C34.4194 234.244 34.5909 234.303 34.8145 234.303C35.0276 234.303 35.2407 234.257 35.4538 234.163C35.6721 234.064 35.8644 233.919 36.0308 233.726V232.682L35.4616 232.728C35.1029 232.754 34.8275 232.819 34.6351 232.923C34.4428 233.022 34.3077 233.139 34.2297 233.274C34.1569 233.404 34.1205 233.534 34.1205 233.664ZM37.6188 230.686H38.0476L38.1412 231.294C38.3023 231.096 38.4998 230.935 38.7337 230.81C38.9676 230.686 39.2041 230.623 39.4432 230.623C39.6823 230.623 39.898 230.681 40.0904 230.795C40.2879 230.904 40.4464 231.07 40.566 231.294C40.6855 231.517 40.7453 231.795 40.7453 232.128V234.662H40.2775V232.167C40.2775 231.897 40.2359 231.681 40.1527 231.52C40.0748 231.359 39.9682 231.242 39.8331 231.169C39.6979 231.091 39.5472 231.052 39.3809 231.052C39.1625 231.052 38.9468 231.107 38.7337 231.216C38.5258 231.32 38.3387 231.468 38.1723 231.66V234.662H37.7045V231.637C37.7045 231.507 37.7019 231.395 37.6967 231.302C37.6915 231.208 37.6811 231.104 37.6655 230.99L37.6188 230.686ZM41.6824 232.674C41.6824 232.232 41.7552 231.86 41.9008 231.559C42.0515 231.252 42.2542 231.021 42.5089 230.865C42.7636 230.704 43.0469 230.623 43.3588 230.623C43.6499 230.623 43.9123 230.696 44.1463 230.842C44.3854 230.987 44.5751 231.198 44.7154 231.473C44.8558 231.749 44.9259 232.084 44.9259 232.479C44.9259 232.531 44.9233 232.58 44.9181 232.627C44.9181 232.674 44.9155 232.718 44.9103 232.76H42.0255V232.37H44.5829L44.4815 232.557C44.4815 232.042 44.3724 231.663 44.154 231.419C43.9409 231.174 43.6758 231.052 43.3588 231.052C43.1249 231.052 42.9169 231.112 42.735 231.231C42.5583 231.351 42.4179 231.53 42.314 231.769C42.21 232.009 42.1581 232.31 42.1581 232.674C42.1581 233.048 42.2152 233.355 42.3296 233.594C42.4439 233.828 42.5999 234.002 42.7974 234.116C42.9949 234.231 43.2132 234.288 43.4523 234.288C43.6447 234.288 43.8188 234.251 43.9747 234.179C44.1359 234.106 44.2866 234.01 44.4269 233.89L44.7076 234.233C44.5205 234.394 44.3204 234.517 44.1073 234.6C43.8994 234.683 43.6836 234.724 43.4601 234.724C43.1379 234.724 42.8416 234.649 42.5713 234.498C42.301 234.342 42.0853 234.114 41.9241 233.812C41.763 233.506 41.6824 233.126 41.6824 232.674ZM45.6287 232.713C45.6287 232.224 45.7015 231.827 45.847 231.52C45.9925 231.213 46.1849 230.987 46.424 230.842C46.6683 230.696 46.9334 230.623 47.2192 230.623C47.4532 230.623 47.6663 230.678 47.8586 230.787C48.0561 230.896 48.212 231.055 48.3264 231.263V229.072L48.7942 228.963V233.711C48.7942 233.841 48.7968 233.953 48.802 234.046C48.8072 234.14 48.8176 234.244 48.8332 234.358L48.88 234.662H48.4511L48.3576 234.054C48.2016 234.246 48.0093 234.407 47.7806 234.537C47.5519 234.662 47.3232 234.724 47.0945 234.724C46.8294 234.724 46.5851 234.652 46.3616 234.506C46.1381 234.361 45.9588 234.14 45.8236 233.843C45.6937 233.542 45.6287 233.165 45.6287 232.713ZM46.1043 232.674C46.1043 233.059 46.1537 233.37 46.2524 233.61C46.3512 233.849 46.4811 234.023 46.6423 234.132C46.8034 234.241 46.9749 234.296 47.1569 234.296C47.37 234.296 47.5779 234.244 47.7806 234.14C47.9833 234.031 48.1653 233.88 48.3264 233.688V232.245C48.3264 231.975 48.2796 231.751 48.1861 231.575C48.0925 231.393 47.9625 231.257 47.7962 231.169C47.6351 231.076 47.4532 231.029 47.2504 231.029C46.9178 231.029 46.6423 231.156 46.424 231.411C46.2109 231.66 46.1043 232.081 46.1043 232.674ZM49.7653 232.674C49.7653 232.227 49.8381 231.853 49.9836 231.551C50.1291 231.244 50.3267 231.013 50.5762 230.857C50.8257 230.701 51.1063 230.623 51.4182 230.623C51.7301 230.623 52.0108 230.701 52.2603 230.857C52.5098 231.013 52.7073 231.244 52.8528 231.551C52.9984 231.853 53.0711 232.227 53.0711 232.674C53.0711 233.116 52.9984 233.49 52.8528 233.797C52.7073 234.103 52.5098 234.335 52.2603 234.491C52.0108 234.647 51.7301 234.724 51.4182 234.724C51.1063 234.724 50.8257 234.647 50.5762 234.491C50.3267 234.335 50.1291 234.103 49.9836 233.797C49.8381 233.49 49.7653 233.116 49.7653 232.674ZM50.2409 232.666C50.2409 233.035 50.2903 233.342 50.389 233.586C50.4878 233.825 50.6255 234.005 50.8023 234.124C50.9842 234.238 51.1895 234.296 51.4182 234.296C51.6521 234.296 51.8574 234.238 52.0342 234.124C52.2109 234.005 52.3486 233.825 52.4474 233.586C52.5462 233.342 52.5955 233.035 52.5955 232.666C52.5955 232.302 52.5462 232.001 52.4474 231.762C52.3486 231.523 52.2109 231.346 52.0342 231.231C51.8574 231.112 51.6521 231.052 51.4182 231.052C51.1895 231.052 50.9842 231.112 50.8023 231.231C50.6255 231.346 50.4878 231.523 50.389 231.762C50.2903 232.001 50.2409 232.302 50.2409 232.666ZM53.7724 232.674C53.7724 232.232 53.8452 231.86 53.9907 231.559C54.1415 231.252 54.3442 231.021 54.5989 230.865C54.8536 230.704 55.1369 230.623 55.4488 230.623C55.7398 230.623 56.0023 230.696 56.2362 230.842C56.4753 230.987 56.6651 231.198 56.8054 231.473C56.9458 231.749 57.0159 232.084 57.0159 232.479C57.0159 232.531 57.0133 232.58 57.0081 232.627C57.0081 232.674 57.0055 232.718 57.0003 232.76H54.1155V232.37H56.6729L56.5715 232.557C56.5715 232.042 56.4624 231.663 56.244 231.419C56.0309 231.174 55.7658 231.052 55.4488 231.052C55.2149 231.052 55.0069 231.112 54.825 231.231C54.6483 231.351 54.5079 231.53 54.404 231.769C54.3 232.009 54.248 232.31 54.248 232.674C54.248 233.048 54.3052 233.355 54.4196 233.594C54.5339 233.828 54.6899 234.002 54.8874 234.116C55.0849 234.231 55.3032 234.288 55.5423 234.288C55.7346 234.288 55.9088 234.251 56.0647 234.179C56.2258 234.106 56.3766 234.01 56.5169 233.89L56.7976 234.233C56.6105 234.394 56.4104 234.517 56.1973 234.6C55.9893 234.683 55.7736 234.724 55.5501 234.724C55.2278 234.724 54.9316 234.649 54.6613 234.498C54.391 234.342 54.1753 234.114 54.0141 233.812C53.853 233.506 53.7724 233.126 53.7724 232.674Z" fill="#94A3B8"/>
<path d="M25.7455 267.895L23.9445 262.515H24.7397L26.6032 267.895H25.7455ZM21.6912 267.895L23.5546 262.515H24.2875L22.5254 267.895H21.6912ZM22.7126 266.406V265.657H25.5818V266.406H22.7126ZM28.5866 267.973C28.2696 267.973 27.9863 267.887 27.7368 267.716C27.4873 267.544 27.2924 267.3 27.152 266.983C27.0117 266.661 26.9415 266.276 26.9415 265.829C26.9415 265.382 27.0117 265 27.152 264.683C27.2924 264.36 27.4873 264.114 27.7368 263.942C27.9863 263.77 28.2696 263.685 28.5866 263.685C29.0233 263.685 29.3741 263.843 29.6392 264.16C29.9043 264.472 30.0368 264.914 30.0368 265.486V266.172C30.0368 266.744 29.9043 267.188 29.6392 267.505C29.3741 267.817 29.0233 267.973 28.5866 267.973ZM28.8049 267.287C29.1168 267.287 29.3689 267.173 29.5612 266.944C29.7588 266.71 29.8575 266.338 29.8575 265.829C29.8575 265.319 29.7588 264.95 29.5612 264.722C29.3689 264.488 29.1168 264.371 28.8049 264.371C28.4931 264.371 28.2384 264.488 28.0409 264.722C27.8485 264.95 27.7524 265.319 27.7524 265.829C27.7524 266.338 27.8485 266.71 28.0409 266.944C28.2384 267.173 28.4931 267.287 28.8049 267.287ZM29.8185 267.895V266.936L29.9355 265.829L29.8185 264.714V262.32H30.5982V267.895H29.8185ZM33.0485 267.973C32.7314 267.973 32.4481 267.887 32.1986 267.716C31.9491 267.544 31.7542 267.3 31.6139 266.983C31.4735 266.661 31.4034 266.276 31.4034 265.829C31.4034 265.382 31.4735 265 31.6139 264.683C31.7542 264.36 31.9491 264.114 32.1986 263.942C32.4481 263.77 32.7314 263.685 33.0485 263.685C33.4851 263.685 33.836 263.843 34.1011 264.16C34.3662 264.472 34.4987 264.914 34.4987 265.486V266.172C34.4987 266.744 34.3662 267.188 34.1011 267.505C33.836 267.817 33.4851 267.973 33.0485 267.973ZM33.2668 267.287C33.5787 267.287 33.8308 267.173 34.0231 266.944C34.2206 266.71 34.3194 266.338 34.3194 265.829C34.3194 265.319 34.2206 264.95 34.0231 264.722C33.8308 264.488 33.5787 264.371 33.2668 264.371C32.9549 264.371 32.7002 264.488 32.5027 264.722C32.3104 264.95 32.2142 265.319 32.2142 265.829C32.2142 266.338 32.3104 266.71 32.5027 266.944C32.7002 267.173 32.9549 267.287 33.2668 267.287ZM34.2804 267.895V266.936L34.3974 265.829L34.2804 264.714V262.32H35.0601V267.895H34.2804ZM40.2839 267.895C40.2527 267.76 40.2267 267.622 40.2059 267.482C40.1904 267.341 40.1826 267.204 40.1826 267.069V265.322C40.1826 264.984 40.0942 264.742 39.9175 264.597C39.7459 264.446 39.538 264.371 39.2937 264.371C39.0702 264.371 38.8805 264.433 38.7245 264.558C38.5738 264.678 38.4647 264.859 38.3971 265.104L37.6642 264.862C37.7785 264.483 37.9838 264.192 38.2801 263.989C38.5816 263.786 38.9351 263.685 39.3405 263.685C39.8551 263.685 40.2527 263.822 40.5334 264.098C40.8193 264.373 40.9622 264.75 40.9622 265.228V266.975C40.9622 267.282 41.0012 267.588 41.0792 267.895H40.2839ZM38.7713 267.973C38.4127 267.973 38.1242 267.869 37.9059 267.661C37.6928 267.453 37.5862 267.191 37.5862 266.874C37.5862 266.562 37.6902 266.294 37.8981 266.071C38.1112 265.842 38.4387 265.689 38.8805 265.611L40.3385 265.361V265.961L39.1378 266.203C38.8623 266.255 38.6648 266.336 38.5452 266.445C38.4257 266.549 38.3659 266.674 38.3659 266.819C38.3659 266.939 38.4153 267.05 38.514 267.154C38.6128 267.253 38.7713 267.302 38.9896 267.302C39.182 267.302 39.3691 267.258 39.551 267.17C39.7329 267.076 39.8837 266.946 40.0032 266.78C40.1228 266.609 40.1826 266.406 40.1826 266.172H40.4399C40.4399 266.541 40.3619 266.861 40.2059 267.131C40.0552 267.401 39.8525 267.609 39.5978 267.755C39.3483 267.9 39.0728 267.973 38.7713 267.973ZM44.1577 267.895V267.17H45.8028C46.203 267.17 46.4915 267.095 46.6683 266.944C46.845 266.788 46.9334 266.58 46.9334 266.32C46.9334 266.045 46.845 265.831 46.6683 265.681C46.4915 265.53 46.203 265.455 45.8028 265.455H44.1577V264.924H45.8808C46.4837 264.924 46.9489 265.06 47.2764 265.33C47.6091 265.6 47.7754 265.954 47.7754 266.39C47.7754 266.837 47.6117 267.201 47.2842 267.482C46.9567 267.757 46.5045 267.895 45.9276 267.895H44.1577ZM43.7678 267.895V262.515H44.5865V267.895H43.7678ZM44.1577 265.213V264.784H45.7638C46.1017 264.784 46.3512 264.709 46.5123 264.558C46.6787 264.407 46.7618 264.218 46.7618 263.989C46.7618 263.76 46.6787 263.578 46.5123 263.443C46.3512 263.308 46.1017 263.24 45.7638 263.24H44.1577V262.515H45.8808C46.2238 262.515 46.5227 262.575 46.7774 262.695C47.0321 262.814 47.2296 262.98 47.37 263.194C47.5103 263.401 47.5805 263.643 47.5805 263.919C47.5805 264.293 47.4324 264.602 47.1361 264.846C46.845 265.091 46.4136 265.213 45.8418 265.213H44.1577ZM48.5477 267.895V263.763H49.3274V267.895H48.5477ZM48.9375 263.201C48.8024 263.201 48.688 263.157 48.5944 263.069C48.5009 262.98 48.4541 262.866 48.4541 262.726C48.4541 262.58 48.5009 262.463 48.5944 262.375C48.688 262.286 48.8024 262.242 48.9375 262.242C49.0727 262.242 49.187 262.286 49.2806 262.375C49.3741 262.463 49.4209 262.58 49.4209 262.726C49.4209 262.866 49.3741 262.98 49.2806 263.069C49.187 263.157 49.0727 263.201 48.9375 263.201ZM52.0209 267.973C51.6519 267.973 51.3244 267.885 51.0385 267.708C50.7578 267.531 50.5369 267.282 50.3758 266.959C50.2146 266.637 50.1341 266.26 50.1341 265.829C50.1341 265.392 50.2146 265.015 50.3758 264.698C50.5369 264.376 50.7578 264.127 51.0385 263.95C51.3244 263.773 51.6519 263.685 52.0209 263.685C52.3952 263.685 52.7226 263.773 53.0033 263.95C53.2892 264.127 53.5127 264.376 53.6739 264.698C53.835 265.015 53.9156 265.392 53.9156 265.829C53.9156 266.26 53.835 266.637 53.6739 266.959C53.5127 267.282 53.2892 267.531 53.0033 267.708C52.7226 267.885 52.3952 267.973 52.0209 267.973ZM52.0209 267.271C52.3484 267.271 52.6109 267.157 52.8084 266.928C53.0059 266.694 53.1047 266.328 53.1047 265.829C53.1047 265.33 53.0059 264.966 52.8084 264.737C52.6109 264.503 52.3484 264.386 52.0209 264.386C51.6986 264.386 51.4388 264.503 51.2412 264.737C51.0437 264.966 50.945 265.33 50.945 265.829C50.945 266.328 51.0437 266.694 51.2412 266.928C51.4388 267.157 51.6986 267.271 52.0209 267.271Z" fill="#0F0B1C"/>
<rect x="13.7773" y="275.093" width="217.662" height="66.923" rx="10.3958" fill="#F1F5F9"/>
<path d="M24.7971 290.54C24.7971 289.999 24.8751 289.513 25.031 289.082C25.1869 288.65 25.4078 288.284 25.6937 287.982C25.9796 287.681 26.3201 287.449 26.7151 287.288C27.1102 287.127 27.5468 287.047 28.025 287.047C28.4304 287.047 28.8177 287.119 29.1867 287.265C29.5558 287.405 29.8832 287.616 30.1691 287.896C30.455 288.177 30.6785 288.528 30.8396 288.949C31.006 289.37 31.0891 289.859 31.0891 290.415C31.0891 290.836 31.0502 291.184 30.9722 291.46C30.8994 291.735 30.8007 291.953 30.6759 292.115C30.5564 292.27 30.4264 292.382 30.2861 292.45C30.1457 292.517 30.008 292.551 29.8728 292.551C29.6337 292.551 29.431 292.481 29.2647 292.341C29.0984 292.2 28.9788 291.982 28.906 291.686C28.7605 291.888 28.5786 292.055 28.3602 292.185C28.1419 292.315 27.921 292.38 27.6975 292.38C27.4428 292.38 27.2089 292.312 26.9958 292.177C26.7879 292.042 26.6216 291.836 26.4968 291.561C26.3721 291.285 26.3097 290.94 26.3097 290.524C26.3097 290.072 26.3772 289.705 26.5124 289.425C26.6527 289.139 26.8373 288.928 27.066 288.793C27.2947 288.658 27.5468 288.59 27.8223 288.59C28.051 288.59 28.2563 288.648 28.4382 288.762C28.6253 288.871 28.7735 289.035 28.8826 289.253L28.9762 288.653H29.405L29.3582 288.957C29.3427 289.071 29.3323 289.175 29.3271 289.269C29.3219 289.362 29.3193 289.474 29.3193 289.604V291.421C29.3193 291.644 29.3712 291.821 29.4752 291.951C29.5792 292.081 29.7117 292.146 29.8728 292.146C29.9872 292.146 30.1041 292.099 30.2237 292.005C30.3432 291.912 30.4446 291.74 30.5278 291.491C30.6109 291.236 30.6525 290.877 30.6525 290.415C30.6525 289.921 30.5824 289.49 30.442 289.121C30.3069 288.746 30.1171 288.437 29.8728 288.193C29.6285 287.943 29.3478 287.759 29.0308 287.639C28.7137 287.514 28.3784 287.452 28.025 287.452C27.604 287.452 27.2219 287.525 26.8788 287.67C26.5358 287.816 26.2421 288.026 25.9978 288.302C25.7535 288.572 25.5638 288.897 25.4286 289.276C25.2987 289.651 25.2337 290.072 25.2337 290.54C25.2337 290.981 25.2987 291.389 25.4286 291.764C25.5638 292.133 25.7509 292.452 25.99 292.723C26.2343 292.998 26.5254 293.211 26.8633 293.362C27.2011 293.513 27.5754 293.588 27.986 293.588C28.3083 293.588 28.6175 293.547 28.9138 293.463C29.2101 293.385 29.4674 293.281 29.6857 293.152L29.865 293.549C29.6311 293.658 29.3504 293.76 29.023 293.853C28.7007 293.947 28.3551 293.994 27.986 293.994C27.513 293.994 27.079 293.908 26.6839 293.736C26.2941 293.565 25.9588 293.323 25.6781 293.011C25.3974 292.704 25.1791 292.341 25.0232 291.92C24.8725 291.499 24.7971 291.039 24.7971 290.54ZM26.7853 290.485C26.7853 290.833 26.8295 291.117 26.9178 291.335C27.0114 291.548 27.1309 291.704 27.2765 291.803C27.4272 291.901 27.5884 291.951 27.7599 291.951C27.9574 291.951 28.1497 291.901 28.3369 291.803C28.5292 291.699 28.7007 291.556 28.8515 291.374V290.212C28.8515 289.942 28.8073 289.718 28.7189 289.542C28.6305 289.36 28.511 289.224 28.3602 289.136C28.2095 289.043 28.0406 288.996 27.8535 288.996C27.5468 288.996 27.2921 289.11 27.0894 289.339C26.8866 289.562 26.7853 289.944 26.7853 290.485ZM31.0954 293.869L31.1967 293.471C31.2695 293.502 31.3423 293.526 31.415 293.541C31.4826 293.557 31.5528 293.565 31.6255 293.565C31.8075 293.565 31.9504 293.51 32.0544 293.401C32.1635 293.292 32.2181 293.11 32.2181 292.855V288.512H32.6859V292.863C32.6859 293.206 32.5898 293.479 32.3974 293.682C32.2103 293.89 31.9582 293.994 31.6411 293.994C31.558 293.994 31.467 293.981 31.3682 293.955C31.2643 293.934 31.1733 293.905 31.0954 293.869ZM32.1167 287.164C32.1167 287.065 32.1479 286.982 32.2103 286.914C32.2779 286.846 32.3584 286.813 32.452 286.813C32.5508 286.813 32.6313 286.846 32.6937 286.914C32.7561 286.982 32.7873 287.065 32.7873 287.164C32.7873 287.257 32.7561 287.338 32.6937 287.405C32.6313 287.473 32.5508 287.507 32.452 287.507C32.3584 287.507 32.2779 287.473 32.2103 287.405C32.1479 287.338 32.1167 287.257 32.1167 287.164ZM33.6605 291.545C33.6605 291.322 33.7151 291.114 33.8243 290.922C33.9386 290.729 34.1231 290.571 34.3778 290.446C34.6377 290.316 34.9808 290.238 35.407 290.212L36.0308 290.173V289.963C36.0308 289.578 35.9398 289.302 35.7579 289.136C35.5759 288.965 35.3342 288.879 35.0328 288.879C34.8456 288.879 34.6637 288.905 34.487 288.957C34.3103 289.004 34.1335 289.079 33.9568 289.183L33.7697 288.809C33.9568 288.705 34.1673 288.619 34.4012 288.551C34.6351 288.484 34.856 288.45 35.064 288.45C35.3394 288.45 35.5837 288.507 35.7969 288.622C36.0152 288.731 36.1867 288.894 36.3115 289.113C36.4362 289.331 36.4986 289.607 36.4986 289.939V291.538C36.4986 291.668 36.5012 291.779 36.5064 291.873C36.5116 291.966 36.522 292.07 36.5376 292.185L36.5843 292.489H36.1555L36.0697 291.912C35.9086 292.104 35.7059 292.26 35.4616 292.38C35.2173 292.494 34.9756 292.551 34.7365 292.551C34.5234 292.551 34.3337 292.507 34.1673 292.419C34.0062 292.325 33.8814 292.203 33.7931 292.052C33.7047 291.901 33.6605 291.732 33.6605 291.545ZM34.1205 291.491C34.1205 291.673 34.1803 291.826 34.2999 291.951C34.4194 292.07 34.5909 292.13 34.8145 292.13C35.0276 292.13 35.2407 292.083 35.4538 291.99C35.6721 291.891 35.8644 291.745 36.0308 291.553V290.508L35.4616 290.555C35.1029 290.581 34.8275 290.646 34.6351 290.75C34.4428 290.849 34.3077 290.966 34.2297 291.101C34.1569 291.231 34.1205 291.361 34.1205 291.491ZM37.6188 288.512H38.0476L38.1412 289.121C38.3023 288.923 38.4998 288.762 38.7337 288.637C38.9676 288.512 39.2041 288.45 39.4432 288.45C39.6823 288.45 39.898 288.507 40.0904 288.622C40.2879 288.731 40.4464 288.897 40.566 289.121C40.6855 289.344 40.7453 289.622 40.7453 289.955V292.489H40.2775V289.994C40.2775 289.723 40.2359 289.508 40.1527 289.347C40.0748 289.186 39.9682 289.069 39.8331 288.996C39.6979 288.918 39.5472 288.879 39.3809 288.879C39.1625 288.879 38.9468 288.933 38.7337 289.043C38.5258 289.147 38.3387 289.295 38.1723 289.487V292.489H37.7045V289.464C37.7045 289.334 37.7019 289.222 37.6967 289.128C37.6915 289.035 37.6811 288.931 37.6655 288.816L37.6188 288.512ZM41.6824 290.501C41.6824 290.059 41.7552 289.687 41.9008 289.386C42.0515 289.079 42.2542 288.848 42.5089 288.692C42.7636 288.531 43.0469 288.45 43.3588 288.45C43.6499 288.45 43.9123 288.523 44.1463 288.668C44.3854 288.814 44.5751 289.024 44.7154 289.3C44.8558 289.575 44.9259 289.911 44.9259 290.306C44.9259 290.358 44.9233 290.407 44.9181 290.454C44.9181 290.501 44.9155 290.545 44.9103 290.586H42.0255V290.196H44.5829L44.4815 290.384C44.4815 289.869 44.3724 289.49 44.154 289.245C43.9409 289.001 43.6758 288.879 43.3588 288.879C43.1249 288.879 42.9169 288.939 42.735 289.058C42.5583 289.178 42.4179 289.357 42.314 289.596C42.21 289.835 42.1581 290.137 42.1581 290.501C42.1581 290.875 42.2152 291.181 42.3296 291.421C42.4439 291.655 42.5999 291.829 42.7974 291.943C42.9949 292.057 43.2132 292.115 43.4523 292.115C43.6447 292.115 43.8188 292.078 43.9747 292.005C44.1359 291.933 44.2866 291.836 44.4269 291.717L44.7076 292.06C44.5205 292.221 44.3204 292.343 44.1073 292.426C43.8994 292.51 43.6836 292.551 43.4601 292.551C43.1379 292.551 42.8416 292.476 42.5713 292.325C42.301 292.169 42.0853 291.94 41.9241 291.639C41.763 291.332 41.6824 290.953 41.6824 290.501ZM45.6287 290.54C45.6287 290.051 45.7015 289.653 45.847 289.347C45.9925 289.04 46.1849 288.814 46.424 288.668C46.6683 288.523 46.9334 288.45 47.2192 288.45C47.4532 288.45 47.6663 288.505 47.8586 288.614C48.0561 288.723 48.212 288.881 48.3264 289.089V286.898L48.7942 286.789V291.538C48.7942 291.668 48.7968 291.779 48.802 291.873C48.8072 291.966 48.8176 292.07 48.8332 292.185L48.88 292.489H48.4511L48.3576 291.881C48.2016 292.073 48.0093 292.234 47.7806 292.364C47.5519 292.489 47.3232 292.551 47.0945 292.551C46.8294 292.551 46.5851 292.478 46.3616 292.333C46.1381 292.187 45.9588 291.966 45.8236 291.67C45.6937 291.369 45.6287 290.992 45.6287 290.54ZM46.1043 290.501C46.1043 290.885 46.1537 291.197 46.2524 291.436C46.3512 291.675 46.4811 291.849 46.6423 291.959C46.8034 292.068 46.9749 292.122 47.1569 292.122C47.37 292.122 47.5779 292.07 47.7806 291.966C47.9833 291.857 48.1653 291.706 48.3264 291.514V290.072C48.3264 289.801 48.2796 289.578 48.1861 289.401C48.0925 289.219 47.9625 289.084 47.7962 288.996C47.6351 288.902 47.4532 288.855 47.2504 288.855C46.9178 288.855 46.6423 288.983 46.424 289.237C46.2109 289.487 46.1043 289.908 46.1043 290.501ZM49.7653 290.501C49.7653 290.054 49.8381 289.679 49.9836 289.378C50.1291 289.071 50.3267 288.84 50.5762 288.684C50.8257 288.528 51.1063 288.45 51.4182 288.45C51.7301 288.45 52.0108 288.528 52.2603 288.684C52.5098 288.84 52.7073 289.071 52.8528 289.378C52.9984 289.679 53.0711 290.054 53.0711 290.501C53.0711 290.942 52.9984 291.317 52.8528 291.623C52.7073 291.93 52.5098 292.161 52.2603 292.317C52.0108 292.473 51.7301 292.551 51.4182 292.551C51.1063 292.551 50.8257 292.473 50.5762 292.317C50.3267 292.161 50.1291 291.93 49.9836 291.623C49.8381 291.317 49.7653 290.942 49.7653 290.501ZM50.2409 290.493C50.2409 290.862 50.2903 291.169 50.389 291.413C50.4878 291.652 50.6255 291.831 50.8023 291.951C50.9842 292.065 51.1895 292.122 51.4182 292.122C51.6521 292.122 51.8574 292.065 52.0342 291.951C52.2109 291.831 52.3486 291.652 52.4474 291.413C52.5462 291.169 52.5955 290.862 52.5955 290.493C52.5955 290.129 52.5462 289.827 52.4474 289.588C52.3486 289.349 52.2109 289.173 52.0342 289.058C51.8574 288.939 51.6521 288.879 51.4182 288.879C51.1895 288.879 50.9842 288.939 50.8023 289.058C50.6255 289.173 50.4878 289.349 50.389 289.588C50.2903 289.827 50.2409 290.129 50.2409 290.493ZM53.7724 290.501C53.7724 290.059 53.8452 289.687 53.9907 289.386C54.1415 289.079 54.3442 288.848 54.5989 288.692C54.8536 288.531 55.1369 288.45 55.4488 288.45C55.7398 288.45 56.0023 288.523 56.2362 288.668C56.4753 288.814 56.6651 289.024 56.8054 289.3C56.9458 289.575 57.0159 289.911 57.0159 290.306C57.0159 290.358 57.0133 290.407 57.0081 290.454C57.0081 290.501 57.0055 290.545 57.0003 290.586H54.1155V290.196H56.6729L56.5715 290.384C56.5715 289.869 56.4624 289.49 56.244 289.245C56.0309 289.001 55.7658 288.879 55.4488 288.879C55.2149 288.879 55.0069 288.939 54.825 289.058C54.6483 289.178 54.5079 289.357 54.404 289.596C54.3 289.835 54.248 290.137 54.248 290.501C54.248 290.875 54.3052 291.181 54.4196 291.421C54.5339 291.655 54.6899 291.829 54.8874 291.943C55.0849 292.057 55.3032 292.115 55.5423 292.115C55.7346 292.115 55.9088 292.078 56.0647 292.005C56.2258 291.933 56.3766 291.836 56.5169 291.717L56.7976 292.06C56.6105 292.221 56.4104 292.343 56.1973 292.426C55.9893 292.51 55.7736 292.551 55.5501 292.551C55.2278 292.551 54.9316 292.476 54.6613 292.325C54.391 292.169 54.1753 291.94 54.0141 291.639C53.853 291.332 53.7724 290.953 53.7724 290.501Z" fill="#94A3B8"/>
<rect x="80.7007" y="105.907" width="83.8161" height="83.8161" rx="41.9081" fill="#F1F5F9"/>
<path fill-rule="evenodd" clip-rule="evenodd" d="M113.931 136.661C113.931 133.91 116.161 131.68 118.912 131.68H127.575C130.326 131.68 132.556 133.91 132.556 136.661V145.325C132.556 148.076 130.326 150.306 127.575 150.306H118.912C116.161 150.306 113.931 148.076 113.931 145.325V136.661ZM118.912 132.98C116.879 132.98 115.23 134.628 115.23 136.661V145.325C115.23 147.358 116.879 149.007 118.912 149.007H127.575C129.609 149.007 131.257 147.358 131.257 145.325V136.661C131.257 134.628 129.609 132.98 127.575 132.98H118.912Z" fill="#64748B"/>
<path fill-rule="evenodd" clip-rule="evenodd" d="M114.58 136.661C114.58 134.269 116.519 132.33 118.912 132.33H127.575C129.967 132.33 131.906 134.269 131.906 136.661V145.325C131.906 145.954 131.772 146.553 131.53 147.093L131.838 144.937C131.881 144.639 131.766 144.341 131.535 144.149L127.803 141.038C127.183 140.522 126.272 140.563 125.702 141.134L121.38 145.456C120.974 145.862 120.315 145.862 119.909 145.456L118.98 144.526C118.441 143.987 117.591 143.917 116.971 144.36L115.376 145.499C115.149 145.661 115.013 145.924 115.013 146.204V147.074C115.013 147.135 115.02 147.195 115.032 147.254C114.743 146.673 114.58 146.018 114.58 145.325V136.661ZM129.514 149.058L131.182 147.723C130.406 148.889 129.08 149.656 127.575 149.656H118.912C117.405 149.656 116.077 148.887 115.302 147.719C115.314 147.73 115.326 147.74 115.339 147.75L116.965 149.052C117.105 149.163 117.275 149.229 117.453 149.24L124.047 149.652C124.089 149.655 124.131 149.654 124.173 149.651L129.045 149.245C129.216 149.231 129.379 149.166 129.514 149.058ZM119.778 139.26C118.821 139.26 118.046 138.485 118.046 137.528C118.046 136.571 118.821 135.795 119.778 135.795C120.735 135.795 121.511 136.571 121.511 137.528C121.511 138.485 120.735 139.26 119.778 139.26Z" fill="#64748B"/>
<path d="M103.11 162.416L101.009 156.14H101.937L104.111 162.416H103.11ZM98.3801 162.416L100.554 156.14H101.409L99.3534 162.416H98.3801ZM99.5717 160.679V159.806H102.919V160.679H99.5717ZM106.425 162.507C106.055 162.507 105.724 162.407 105.433 162.207C105.142 162.007 104.915 161.722 104.751 161.352C104.587 160.976 104.505 160.527 104.505 160.006C104.505 159.484 104.587 159.038 104.751 158.669C104.915 158.293 105.142 158.005 105.433 157.804C105.724 157.604 106.055 157.504 106.425 157.504C106.934 157.504 107.344 157.689 107.653 158.059C107.962 158.423 108.117 158.938 108.117 159.605V160.406C108.117 161.073 107.962 161.592 107.653 161.961C107.344 162.325 106.934 162.507 106.425 162.507ZM106.679 161.707C107.043 161.707 107.337 161.573 107.562 161.307C107.792 161.034 107.908 160.6 107.908 160.006C107.908 159.411 107.792 158.981 107.562 158.714C107.337 158.441 107.043 158.305 106.679 158.305C106.316 158.305 106.018 158.441 105.788 158.714C105.564 158.981 105.451 159.411 105.451 160.006C105.451 160.6 105.564 161.034 105.788 161.307C106.018 161.573 106.316 161.707 106.679 161.707ZM107.862 162.416V161.297L107.998 160.006L107.862 158.705V155.912H108.772V162.416H107.862ZM111.63 162.507C111.26 162.507 110.93 162.407 110.639 162.207C110.348 162.007 110.12 161.722 109.957 161.352C109.793 160.976 109.711 160.527 109.711 160.006C109.711 159.484 109.793 159.038 109.957 158.669C110.12 158.293 110.348 158.005 110.639 157.804C110.93 157.604 111.26 157.504 111.63 157.504C112.14 157.504 112.549 157.689 112.858 158.059C113.168 158.423 113.322 158.938 113.322 159.605V160.406C113.322 161.073 113.168 161.592 112.858 161.961C112.549 162.325 112.14 162.507 111.63 162.507ZM111.885 161.707C112.249 161.707 112.543 161.573 112.767 161.307C112.998 161.034 113.113 160.6 113.113 160.006C113.113 159.411 112.998 158.981 112.767 158.714C112.543 158.441 112.249 158.305 111.885 158.305C111.521 158.305 111.224 158.441 110.994 158.714C110.769 158.981 110.657 159.411 110.657 160.006C110.657 160.6 110.769 161.034 110.994 161.307C111.224 161.573 111.521 161.707 111.885 161.707ZM113.068 162.416V161.297L113.204 160.006L113.068 158.705V155.912H113.977V162.416H113.068ZM120.072 162.416C120.035 162.259 120.005 162.098 119.981 161.934C119.962 161.77 119.953 161.61 119.953 161.452V159.414C119.953 159.02 119.85 158.738 119.644 158.569C119.444 158.393 119.201 158.305 118.916 158.305C118.656 158.305 118.434 158.377 118.252 158.523C118.077 158.663 117.949 158.875 117.87 159.16L117.015 158.878C117.149 158.435 117.388 158.096 117.734 157.859C118.086 157.622 118.498 157.504 118.971 157.504C119.571 157.504 120.035 157.665 120.363 157.986C120.696 158.308 120.863 158.747 120.863 159.305V161.343C120.863 161.701 120.908 162.058 120.999 162.416H120.072ZM118.307 162.507C117.889 162.507 117.552 162.386 117.297 162.143C117.049 161.901 116.924 161.595 116.924 161.225C116.924 160.861 117.046 160.548 117.288 160.288C117.537 160.021 117.919 159.842 118.434 159.751L120.135 159.46V160.16L118.734 160.442C118.413 160.503 118.183 160.597 118.043 160.724C117.904 160.846 117.834 160.991 117.834 161.161C117.834 161.3 117.892 161.431 118.007 161.552C118.122 161.667 118.307 161.725 118.562 161.725C118.786 161.725 119.004 161.673 119.217 161.57C119.429 161.461 119.605 161.31 119.744 161.115C119.884 160.915 119.953 160.679 119.953 160.406H120.254C120.254 160.837 120.163 161.209 119.981 161.525C119.805 161.84 119.568 162.083 119.271 162.253C118.98 162.422 118.659 162.507 118.307 162.507ZM126.392 162.507C125.883 162.507 125.473 162.325 125.164 161.961C124.855 161.592 124.7 161.073 124.7 160.406V159.605C124.7 158.938 124.855 158.423 125.164 158.059C125.473 157.689 125.883 157.504 126.392 157.504C126.768 157.504 127.099 157.604 127.384 157.804C127.675 158.005 127.902 158.293 128.066 158.669C128.23 159.038 128.311 159.484 128.311 160.006C128.311 160.527 128.23 160.976 128.066 161.352C127.902 161.722 127.675 162.007 127.384 162.207C127.099 162.407 126.768 162.507 126.392 162.507ZM124.045 164.008V157.595H124.955V158.714L124.818 160.006L124.955 161.307V164.008H124.045ZM126.137 161.707C126.501 161.707 126.795 161.573 127.02 161.307C127.25 161.034 127.365 160.6 127.365 160.006C127.365 159.411 127.25 158.981 127.02 158.714C126.795 158.441 126.501 158.305 126.137 158.305C125.774 158.305 125.476 158.441 125.246 158.714C125.022 158.981 124.909 159.411 124.909 160.006C124.909 160.6 125.022 161.034 125.246 161.307C125.476 161.573 125.774 161.707 126.137 161.707ZM132.38 162.416V159.605C132.38 159.175 132.271 158.851 132.052 158.632C131.834 158.414 131.573 158.305 131.27 158.305C130.967 158.305 130.706 158.414 130.488 158.632C130.27 158.851 130.16 159.175 130.16 159.605H129.86C129.86 159.175 129.936 158.802 130.088 158.487C130.245 158.171 130.458 157.929 130.724 157.759C130.991 157.589 131.288 157.504 131.616 157.504C131.943 157.504 132.231 157.583 132.48 157.741C132.735 157.892 132.932 158.111 133.071 158.396C133.217 158.675 133.29 159.008 133.29 159.396V162.416H132.38ZM129.251 162.416V155.912H130.16V162.416H129.251ZM136.43 162.507C135.999 162.507 135.617 162.404 135.284 162.198C134.956 161.992 134.698 161.701 134.51 161.325C134.322 160.949 134.228 160.509 134.228 160.006C134.228 159.496 134.322 159.057 134.51 158.687C134.698 158.311 134.956 158.02 135.284 157.814C135.617 157.607 135.999 157.504 136.43 157.504C136.866 157.504 137.248 157.607 137.576 157.814C137.909 158.02 138.17 158.311 138.358 158.687C138.546 159.057 138.64 159.496 138.64 160.006C138.64 160.509 138.546 160.949 138.358 161.325C138.17 161.701 137.909 161.992 137.576 162.198C137.248 162.404 136.866 162.507 136.43 162.507ZM136.43 161.689C136.812 161.689 137.118 161.555 137.348 161.288C137.579 161.015 137.694 160.588 137.694 160.006C137.694 159.424 137.579 158.999 137.348 158.732C137.118 158.459 136.812 158.323 136.43 158.323C136.054 158.323 135.751 158.459 135.52 158.732C135.29 158.999 135.174 159.424 135.174 160.006C135.174 160.588 135.29 161.015 135.52 161.288C135.751 161.555 136.054 161.689 136.43 161.689ZM141.256 162.507C140.783 162.507 140.413 162.383 140.146 162.134C139.885 161.88 139.755 161.504 139.755 161.006V156.595L140.665 156.413V160.843C140.665 161.122 140.731 161.328 140.865 161.461C140.998 161.588 141.192 161.652 141.447 161.652C141.568 161.652 141.68 161.643 141.783 161.625C141.893 161.607 141.999 161.585 142.102 161.561V162.416C141.974 162.447 141.844 162.468 141.711 162.48C141.583 162.498 141.432 162.507 141.256 162.507ZM139.073 158.387V157.595H142.056V158.387H139.073ZM144.869 162.507C144.438 162.507 144.056 162.404 143.723 162.198C143.395 161.992 143.137 161.701 142.949 161.325C142.761 160.949 142.667 160.509 142.667 160.006C142.667 159.496 142.761 159.057 142.949 158.687C143.137 158.311 143.395 158.02 143.723 157.814C144.056 157.607 144.438 157.504 144.869 157.504C145.305 157.504 145.687 157.607 146.015 157.814C146.348 158.02 146.609 158.311 146.797 158.687C146.985 159.057 147.079 159.496 147.079 160.006C147.079 160.509 146.985 160.949 146.797 161.325C146.609 161.701 146.348 161.992 146.015 162.198C145.687 162.404 145.305 162.507 144.869 162.507ZM144.869 161.689C145.251 161.689 145.557 161.555 145.787 161.288C146.018 161.015 146.133 160.588 146.133 160.006C146.133 159.424 146.018 158.999 145.787 158.732C145.557 158.459 145.251 158.323 144.869 158.323C144.493 158.323 144.19 158.459 143.959 158.732C143.729 158.999 143.613 159.424 143.613 160.006C143.613 160.588 143.729 161.015 143.959 161.288C144.19 161.555 144.493 161.689 144.869 161.689Z" fill="#64748B"/>
<rect x="13.7773" y="422.329" width="217.662" height="32.4869" rx="16.2434" fill="#01040F"/>
<path d="M106.8 441.691C106.236 441.691 105.739 441.558 105.309 441.291C104.884 441.024 104.551 440.648 104.308 440.163C104.072 439.672 103.953 439.096 103.953 438.435C103.953 437.767 104.072 437.191 104.308 436.706C104.551 436.221 104.884 435.845 105.309 435.578C105.739 435.311 106.236 435.178 106.8 435.178C107.255 435.178 107.665 435.263 108.028 435.433C108.398 435.603 108.708 435.845 108.956 436.16C109.205 436.47 109.375 436.843 109.466 437.279L108.219 437.625C108.147 437.219 107.986 436.906 107.737 436.688C107.495 436.47 107.179 436.361 106.791 436.361C106.324 436.361 105.948 436.542 105.663 436.906C105.378 437.27 105.236 437.78 105.236 438.435C105.236 439.083 105.378 439.593 105.663 439.963C105.948 440.327 106.324 440.508 106.791 440.508C107.192 440.508 107.516 440.399 107.765 440.181C108.013 439.957 108.174 439.638 108.247 439.226L109.493 439.572C109.396 440.014 109.223 440.393 108.974 440.709C108.726 441.024 108.417 441.267 108.047 441.436C107.683 441.606 107.267 441.691 106.8 441.691ZM112.374 441.691C111.925 441.691 111.525 441.585 111.173 441.373C110.827 441.16 110.554 440.866 110.354 440.49C110.16 440.114 110.063 439.672 110.063 439.162C110.063 438.653 110.16 438.21 110.354 437.834C110.554 437.452 110.827 437.158 111.173 436.952C111.525 436.74 111.925 436.633 112.374 436.633C112.834 436.633 113.238 436.74 113.583 436.952C113.929 437.158 114.199 437.452 114.393 437.834C114.593 438.21 114.693 438.653 114.693 439.162C114.693 439.672 114.593 440.114 114.393 440.49C114.199 440.866 113.929 441.16 113.583 441.373C113.238 441.585 112.834 441.691 112.374 441.691ZM112.374 440.609C112.707 440.609 112.968 440.49 113.156 440.254C113.35 440.017 113.447 439.653 113.447 439.162C113.447 438.671 113.35 438.307 113.156 438.071C112.968 437.834 112.707 437.716 112.374 437.716C112.046 437.716 111.785 437.834 111.591 438.071C111.403 438.307 111.309 438.671 111.309 439.162C111.309 439.653 111.403 440.017 111.591 440.254C111.785 440.49 112.046 440.609 112.374 440.609ZM118.544 441.573V438.789C118.544 438.431 118.456 438.162 118.28 437.98C118.104 437.798 117.886 437.707 117.625 437.707C117.364 437.707 117.146 437.798 116.97 437.98C116.794 438.162 116.706 438.431 116.706 438.789H116.442C116.442 438.334 116.512 437.946 116.652 437.625C116.797 437.304 116.994 437.058 117.243 436.888C117.497 436.718 117.792 436.633 118.125 436.633C118.44 436.633 118.719 436.712 118.962 436.87C119.211 437.022 119.405 437.24 119.544 437.525C119.684 437.804 119.753 438.143 119.753 438.544V441.573H118.544ZM115.496 441.573V436.752H116.706V441.573H115.496ZM122.619 441.691C122.11 441.691 121.709 441.548 121.418 441.263C121.127 440.972 120.982 440.542 120.982 439.972V435.751L122.182 435.515V439.817C122.182 440.072 122.246 440.263 122.373 440.39C122.507 440.518 122.692 440.581 122.928 440.581C123.043 440.581 123.15 440.572 123.247 440.554C123.344 440.53 123.444 440.505 123.547 440.481V441.573C123.407 441.609 123.265 441.636 123.119 441.655C122.974 441.679 122.807 441.691 122.619 441.691ZM120.354 437.761V436.752H123.501V437.761H120.354ZM124.22 441.573V436.752H125.429V441.573H124.22ZM124.829 436.179C124.641 436.179 124.486 436.121 124.365 436.006C124.244 435.885 124.183 435.727 124.183 435.533C124.183 435.339 124.244 435.184 124.365 435.069C124.486 434.954 124.641 434.896 124.829 434.896C125.011 434.896 125.163 434.954 125.284 435.069C125.411 435.184 125.475 435.339 125.475 435.533C125.475 435.727 125.411 435.885 125.284 436.006C125.163 436.121 125.011 436.179 124.829 436.179ZM129.514 441.573V438.789C129.514 438.431 129.426 438.162 129.25 437.98C129.075 437.798 128.856 437.707 128.595 437.707C128.335 437.707 128.116 437.798 127.941 437.98C127.765 438.162 127.677 438.431 127.677 438.789H127.413C127.413 438.334 127.483 437.946 127.622 437.625C127.768 437.304 127.965 437.058 128.213 436.888C128.468 436.718 128.762 436.633 129.096 436.633C129.411 436.633 129.69 436.712 129.933 436.87C130.181 437.022 130.375 437.24 130.515 437.525C130.654 437.804 130.724 438.143 130.724 438.544V441.573H129.514ZM126.467 441.573V436.752H127.677V441.573H126.467ZM133.39 441.691C132.91 441.691 132.519 441.521 132.216 441.182C131.913 440.842 131.761 440.375 131.761 439.781V436.752H132.971V439.535C132.971 439.887 133.056 440.157 133.226 440.345C133.402 440.527 133.62 440.618 133.881 440.618C134.148 440.618 134.366 440.527 134.536 440.345C134.705 440.157 134.79 439.887 134.79 439.535H135.054C135.054 439.984 134.984 440.372 134.845 440.7C134.705 441.021 134.511 441.267 134.263 441.436C134.014 441.606 133.723 441.691 133.39 441.691ZM134.79 441.573V436.752H136V441.573H134.79ZM139.075 441.691C138.633 441.691 138.239 441.585 137.893 441.373C137.547 441.16 137.277 440.866 137.083 440.49C136.895 440.108 136.801 439.666 136.801 439.162C136.801 438.647 136.898 438.201 137.092 437.825C137.287 437.443 137.556 437.149 137.902 436.943C138.248 436.737 138.642 436.633 139.085 436.633C139.527 436.633 139.918 436.737 140.258 436.943C140.598 437.149 140.861 437.44 141.049 437.816C141.243 438.192 141.34 438.641 141.34 439.162C141.34 439.223 141.337 439.28 141.331 439.335C141.331 439.39 141.331 439.45 141.331 439.517H137.556V438.671H140.44L140.103 439.162C140.103 438.623 140.012 438.237 139.83 438.007C139.655 437.77 139.406 437.652 139.085 437.652C138.775 437.652 138.524 437.77 138.33 438.007C138.142 438.237 138.048 438.623 138.048 439.162C138.048 439.666 138.145 440.039 138.339 440.281C138.533 440.518 138.796 440.636 139.13 440.636C139.354 440.636 139.548 440.584 139.712 440.481C139.876 440.378 139.997 440.217 140.076 439.999L141.213 440.327C141.086 440.739 140.837 441.069 140.467 441.318C140.103 441.567 139.639 441.691 139.075 441.691Z" fill="white"/>
<rect x="14.1022" y="462.938" width="217.012" height="31.8371" rx="15.9186" stroke="#01040F" stroke-width="0.649738"/>
<path d="M116.425 481.975C115.77 481.975 115.224 481.826 114.788 481.529C114.357 481.232 114.048 480.792 113.86 480.21L115.088 479.801C115.209 480.165 115.388 480.431 115.625 480.601C115.861 480.765 116.152 480.847 116.498 480.847C116.856 480.847 117.125 480.786 117.307 480.665C117.489 480.537 117.58 480.374 117.58 480.174C117.58 479.986 117.517 479.831 117.389 479.71C117.262 479.588 117.092 479.491 116.88 479.419C116.668 479.34 116.437 479.267 116.188 479.2C115.94 479.128 115.691 479.049 115.443 478.964C115.194 478.879 114.964 478.77 114.751 478.636C114.539 478.497 114.369 478.321 114.242 478.109C114.121 477.89 114.06 477.618 114.06 477.29C114.06 476.938 114.151 476.626 114.333 476.353C114.515 476.08 114.782 475.865 115.133 475.707C115.485 475.544 115.907 475.462 116.398 475.462C116.992 475.462 117.495 475.604 117.908 475.889C118.326 476.168 118.62 476.575 118.79 477.108L117.608 477.517C117.498 477.19 117.332 476.954 117.107 476.808C116.883 476.656 116.61 476.581 116.289 476.581C115.943 476.581 115.694 476.644 115.543 476.772C115.397 476.893 115.324 477.038 115.324 477.208C115.324 477.378 115.388 477.514 115.515 477.618C115.643 477.715 115.809 477.799 116.016 477.872C116.228 477.945 116.461 478.015 116.716 478.081C116.971 478.142 117.222 478.221 117.471 478.318C117.726 478.409 117.956 478.53 118.162 478.682C118.375 478.827 118.544 479.015 118.672 479.246C118.799 479.476 118.863 479.764 118.863 480.11C118.863 480.474 118.763 480.795 118.563 481.074C118.369 481.353 118.09 481.574 117.726 481.738C117.368 481.896 116.934 481.975 116.425 481.975ZM120.812 480.574V479.091L122.468 477.035H123.896L120.812 480.574ZM119.694 481.856V475.353H120.903V481.856H119.694ZM122.613 481.856L121.167 479.692L121.913 478.836L124.033 481.856H122.613ZM124.57 481.856V477.035H125.78V481.856H124.57ZM125.18 476.462C124.992 476.462 124.837 476.405 124.716 476.289C124.595 476.168 124.534 476.011 124.534 475.816C124.534 475.622 124.595 475.468 124.716 475.353C124.837 475.237 124.992 475.18 125.18 475.18C125.362 475.18 125.513 475.237 125.635 475.353C125.762 475.468 125.826 475.622 125.826 475.816C125.826 476.011 125.762 476.168 125.635 476.289C125.513 476.405 125.362 476.462 125.18 476.462ZM129.419 481.975C128.928 481.975 128.531 481.787 128.228 481.411C127.931 481.035 127.782 480.504 127.782 479.819V479.073C127.782 478.382 127.931 477.851 128.228 477.481C128.531 477.105 128.928 476.917 129.419 476.917C129.795 476.917 130.123 477.02 130.402 477.226C130.681 477.427 130.899 477.715 131.057 478.091C131.214 478.467 131.293 478.918 131.293 479.446C131.293 479.974 131.214 480.425 131.057 480.801C130.899 481.177 130.681 481.468 130.402 481.675C130.123 481.875 129.795 481.975 129.419 481.975ZM126.818 483.448V477.035H128.028V478.254L127.864 479.446L128.028 480.592V483.448H126.818ZM128.992 480.892C129.307 480.892 129.562 480.774 129.756 480.537C129.95 480.301 130.047 479.937 130.047 479.446C130.047 478.955 129.95 478.591 129.756 478.354C129.562 478.118 129.307 478 128.992 478C128.683 478 128.431 478.118 128.237 478.354C128.043 478.591 127.946 478.955 127.946 479.446C127.946 479.937 128.043 480.301 128.237 480.537C128.431 480.774 128.683 480.892 128.992 480.892Z" fill="#01040F"/>
</g>
<defs>
<clipPath id="clip0_1012_4169">
<rect x="0.782715" width="243.652" height="527.587" rx="20" fill="white"/>
</clipPath>
<clipPath id="clip1_1012_4169">
<rect width="243.652" height="30.5377" fill="white" transform="translate(0.782715)"/>
</clipPath>
</defs>
</svg>
