<svg width="161" height="51" viewBox="0 0 161 51" fill="none" xmlns="http://www.w3.org/2000/svg">
<g clip-path="url(#clip0_1020_4068)">
<path d="M106.875 2.48487H107.415C107.936 2.48487 108.112 2.25883 108.112 1.58666C108.112 0.914505 107.821 0.599243 107.217 0.599243H107.073C106.458 0.599243 106.159 0.921643 106.159 1.58666C106.159 2.25169 106.346 2.48487 106.875 2.48487Z" fill="white"/>
<path d="M1.6977 15.6025C1.56468 15.3121 1.46017 15.336 1.46017 15.6548V19.1048C1.47279 19.4845 1.55324 19.8588 1.6977 20.21L3.83544 24.8307C3.96906 25.1693 3.96906 25.5461 3.83544 25.8848L1.70364 30.4495C1.55579 30.8003 1.47289 31.1753 1.45898 31.5559V35.0939C1.45898 35.4128 1.56587 35.4366 1.69651 35.1451L5.92329 25.8657C6.05566 25.5273 6.05566 25.1513 5.92329 24.8129L1.6977 15.6025Z" fill="#B9E1F8"/>
<path d="M1.55491 6.60141C1.42071 6.31233 1.31738 6.33612 1.31738 6.65376V10.124C1.32858 10.505 1.40908 10.8807 1.55491 11.2328L7.83154 24.8426C7.96697 25.181 7.97036 25.5581 7.84104 25.899L1.69743 39.8419C1.5541 40.1956 1.47371 40.5717 1.4599 40.9531V44.5019C1.4599 44.8207 1.56679 44.8433 1.69743 44.5507L9.94433 25.8824C10.0721 25.5414 10.0696 25.1651 9.93721 24.8259L1.55491 6.60141Z" fill="#7FB5D5"/>
<path d="M14.1682 25.8931C14.3005 25.5539 14.3005 25.1772 14.1682 24.8379L4.62913 4.30901C4.49492 4.01992 4.64575 3.78317 4.96403 3.78317H34.061C34.2143 3.78254 34.3611 3.7211 34.4693 3.61229C34.5775 3.50348 34.6381 3.35618 34.6381 3.20262V2.45193C34.6381 2.29848 34.5774 2.1513 34.4692 2.04268C34.361 1.93406 34.2142 1.87288 34.061 1.87256H1.89283C1.57454 1.87256 1.41777 2.1105 1.55672 2.39602L12.0411 24.8617C12.1741 25.2008 12.1741 25.5778 12.0411 25.917L1.69805 48.8882C1.56741 49.1785 1.71824 49.4164 2.03771 49.4164H34.061C34.2144 49.4161 34.3614 49.355 34.4701 49.2465C34.5787 49.1379 34.64 48.9907 34.6406 48.8371V48.0853C34.64 47.9315 34.5787 47.7843 34.4701 47.6758C34.3614 47.5672 34.2144 47.5061 34.061 47.5058H5.03174C4.71226 47.5058 4.55668 47.2679 4.6897 46.9776L14.1682 25.8931Z" fill="#7FB5D5"/>
<path d="M18.1725 25.898C18.3028 25.5582 18.2999 25.1816 18.1641 24.8439L10.4956 8.49311C10.3614 8.20521 10.511 7.96846 10.8294 7.96846H34.0593C34.2129 7.96815 34.36 7.90684 34.4684 7.798C34.5769 7.68916 34.6378 7.54168 34.6378 7.38791V6.63842C34.6378 6.48465 34.5769 6.33716 34.4684 6.22832C34.36 6.11947 34.2129 6.05817 34.0593 6.05786H7.72961C7.41132 6.05786 7.26287 6.29579 7.39707 6.5825L16.0418 24.8737C16.1791 25.2109 16.1825 25.588 16.0513 25.9277L7.54434 44.6793C7.41132 44.9695 7.56572 45.2075 7.88401 45.2075H34.0593C34.213 45.2072 34.3602 45.1459 34.4689 45.037C34.5775 44.9283 34.6387 44.7808 34.639 44.6269V43.875C34.6384 43.7214 34.577 43.5742 34.4684 43.4656C34.3598 43.3571 34.2128 43.296 34.0593 43.2957H10.8899C10.5716 43.2957 10.4148 43.0577 10.5502 42.7675L18.1725 25.898Z" fill="#4085AD"/>
<path d="M22.1811 25.9038C22.3134 25.5655 22.31 25.1892 22.1716 24.8533L16.3664 12.6771C16.2287 12.3892 16.3771 12.1525 16.6954 12.1525H34.0598C34.2131 12.1525 34.3601 12.0916 34.4688 11.9833C34.5773 11.8749 34.6387 11.7278 34.6393 11.5743V10.8224C34.6387 10.6686 34.5775 10.5213 34.4689 10.4126C34.3603 10.3038 34.2133 10.2425 34.0598 10.2418H13.5743C13.256 10.2418 13.1076 10.4798 13.2465 10.7653L20.0481 24.8855C20.1865 25.2213 20.1899 25.5977 20.0576 25.936L13.3914 40.4595C13.2596 40.7485 13.4105 40.9852 13.7287 40.9852H34.0598C34.2131 40.9852 34.3601 40.9244 34.4688 40.816C34.5773 40.7077 34.6387 40.5607 34.6393 40.407V39.6552C34.6387 39.5015 34.5775 39.3542 34.4689 39.2454C34.3603 39.1366 34.2133 39.0753 34.0598 39.0747H16.7488C16.4305 39.0747 16.2798 38.8367 16.4116 38.5465L22.1811 25.9038Z" fill="#4085AD"/>
<path d="M22.608 34.8584C22.2897 34.8584 22.1329 34.6205 22.273 34.3326L26.1922 25.9085C26.326 25.5721 26.3222 25.1964 26.1815 24.8628L22.2433 16.8599C22.1008 16.5732 22.2433 16.34 22.5652 16.34H34.0603C34.2137 16.3391 34.3605 16.2776 34.469 16.169C34.5775 16.0603 34.6389 15.9132 34.6398 15.7595V15.0076C34.6389 14.8539 34.5775 14.7068 34.469 14.5981C34.3605 14.4895 34.2137 14.428 34.0603 14.427H19.4073C19.089 14.427 18.9441 14.6649 19.0855 14.947L24.0402 24.8997C24.1115 25.0637 24.1489 25.2405 24.1503 25.4193C24.1518 25.5982 24.1171 25.7755 24.0485 25.9406L19.0795 36.248C18.9429 36.5346 19.089 36.7702 19.4073 36.7702H34.0603C34.2138 36.7695 34.3608 36.7082 34.4694 36.5995C34.5779 36.4907 34.6392 36.3435 34.6398 36.1896V35.439C34.6392 35.2851 34.5779 35.1379 34.4694 35.0291C34.3608 34.9204 34.2138 34.8591 34.0603 34.8584H22.608Z" fill="#005884"/>
<path d="M43.0694 14.3426C42.6929 14.3426 42.624 14.5591 42.624 14.9874C42.624 15.4157 42.6929 15.6323 43.0694 15.6323H52.6821C53.4243 15.6323 53.6511 15.4312 53.6511 14.7709V12.6378C53.6511 12.2667 53.3697 12.1917 52.9148 12.1917C52.46 12.1917 52.1642 12.2679 52.1642 12.6378V14.3426H45.4031V9.47929H50.1655V10.4025C50.1655 10.7748 50.4469 10.8498 50.8994 10.8498C51.3519 10.8498 51.6333 10.7748 51.6333 10.4025V7.39142C51.6333 7.01906 51.3531 6.94411 50.8994 6.94411C50.4457 6.94411 50.1655 7.01906 50.1655 7.39142V8.22419H45.4031V3.65349H52.0359V5.35352C52.0359 5.7247 52.3364 5.80084 52.7865 5.80084C53.2367 5.80084 53.5217 5.72589 53.5217 5.35352V3.22521C53.5217 2.55662 53.3091 2.36389 52.5716 2.36389H43.0516C42.6561 2.36389 42.624 2.65536 42.624 3.00869C42.624 3.43697 42.6929 3.65349 43.0694 3.65349H43.8473V14.3426H43.0694Z" fill="white"/>
<path d="M59.3703 15.844C60.862 15.844 61.9902 15.3967 62.5591 14.5818H62.5686C62.7396 15.2861 63.2609 15.6287 64.1589 15.6287H64.6992C65.1125 15.6287 65.1457 15.3563 65.1457 15.0005C65.1457 14.677 65.1113 14.4057 64.6992 14.4057H64.4831C64.0389 14.4057 63.9926 14.2938 63.9926 14.0417V3.20736C63.9926 2.61253 63.7479 2.36389 63.1493 2.36389H62.052C61.5638 2.36389 61.3548 2.57327 61.3548 3.06341C61.3548 3.22997 61.3548 3.61898 61.7836 3.61898H62.3584C62.5246 3.61898 62.5246 3.61898 62.5246 3.78316V5.82225C62.5233 6.46606 62.5733 7.10894 62.6743 7.74476C61.9415 6.79302 60.9807 6.36593 59.5865 6.36593C56.7919 6.36593 55.0557 8.12664 55.0557 10.9605V11.3947C55.0545 14.0976 56.7492 15.844 59.3703 15.844ZM56.5948 11.2495V11.0865C56.5948 8.85233 57.6565 7.62104 59.5853 7.62104C61.5722 7.62104 62.5793 8.72028 62.5793 10.889V11.7004C62.5793 13.5753 61.4724 14.6067 59.4618 14.6067C57.6352 14.6067 56.5948 13.3838 56.5948 11.2495Z" fill="white"/>
<path d="M76.4605 15.0004C76.4605 14.5911 76.3964 14.4056 76.0128 14.4056H75.7752C75.3239 14.4056 75.3001 14.3175 75.3001 14.0415V7.42695C75.3001 6.84045 75.0626 6.60132 74.4772 6.60132H73.3608C72.8702 6.60132 72.6612 6.8107 72.6612 7.30085C72.6612 7.66964 72.8049 7.85523 73.09 7.85523H73.666C73.8228 7.85523 73.831 7.86594 73.831 8.02178V11.5563C73.831 13.5978 72.8465 14.59 70.8227 14.59C68.9487 14.59 68.3156 13.8333 68.3156 11.5931V7.42932C68.3156 6.83449 68.0853 6.6037 67.4915 6.6037H66.3762C65.8858 6.6037 65.6768 6.81308 65.6768 7.30322C65.6768 7.67202 65.8205 7.85761 66.1055 7.85761H66.6826C66.8382 7.85761 66.8478 7.86831 66.8478 8.02416V11.9917C66.8478 14.6221 68.0532 15.8462 70.6411 15.8462C72.2052 15.8462 73.223 15.3989 73.8346 14.4412H73.8417C74.0519 15.2514 74.5935 15.6309 75.5377 15.6309H76.0044C76.4284 15.6285 76.4605 15.3561 76.4605 15.0004Z" fill="white"/>
<path d="M82.7393 15.8441C83.8426 15.8441 85.1645 15.6871 85.6846 15.4943C86.0409 15.3683 86.0504 15.1969 85.991 14.8305C85.9317 14.4641 85.7927 14.2451 85.3735 14.3213C84.5666 14.4909 83.7443 14.5751 82.9198 14.5723C80.4887 14.5723 79.4045 13.5016 79.4045 11.0878V10.9986C79.4045 8.67039 80.4875 7.58541 82.813 7.58541C83.4612 7.57712 84.1082 7.6454 84.7405 7.78885V8.76081C84.7405 9.17481 85.0801 9.20812 85.4531 9.20812C85.9079 9.20812 86.1656 9.13555 86.1656 8.76081V7.80907C86.1656 7.12858 85.8676 6.88827 85.3497 6.70387C84.7452 6.49092 83.8557 6.37195 82.9198 6.37195C79.6598 6.37195 77.8652 7.99704 77.8652 10.9474V11.1426C77.8652 14.3058 79.4591 15.8441 82.7393 15.8441Z" fill="white"/>
<path d="M91.2447 15.8451C92.7412 15.8451 93.7649 15.4608 94.3742 14.6721H94.3979C94.6272 15.3752 95.0535 15.6238 95.9786 15.6238H96.4537C96.867 15.6238 96.9003 15.3514 96.9003 14.9969C96.9003 14.6733 96.8658 14.402 96.4537 14.402H96.2162C95.7898 14.402 95.7411 14.2915 95.7411 14.038V10.0062C95.7411 7.48889 94.5155 6.36584 91.7673 6.36584C90.6236 6.37427 89.4891 6.57203 88.4099 6.95116C88.3464 6.96635 88.2866 6.99406 88.2341 7.03266C88.1815 7.07128 88.1371 7.12 88.1035 7.17601C88.0322 7.31995 88.0679 7.4996 88.1403 7.7185C88.2139 7.97785 88.2994 8.11703 88.4277 8.18366C88.481 8.20866 88.5391 8.2222 88.598 8.22343C88.6568 8.22465 88.7154 8.21355 88.7697 8.1908C89.68 7.86503 90.6391 7.69687 91.6058 7.69352C93.5761 7.69352 94.3089 8.36925 94.3089 10.1918V10.952C93.6996 10.3703 92.8029 10.0859 91.5701 10.0859C88.9419 10.0859 87.4336 11.1567 87.4336 13.0054V13.1136C87.4336 14.7958 88.8956 15.8451 91.2447 15.8451ZM88.9728 12.9994V12.928C88.9728 11.9085 89.9633 11.2994 91.6224 11.2994C93.2815 11.2994 94.3326 11.9454 94.3326 12.9447C94.3326 13.7358 93.487 14.5889 91.6283 14.5889C89.6712 14.5889 88.9752 13.768 88.9752 12.9994H88.9728Z" fill="white"/>
<path d="M97.649 7.81986H99.1275V13.215C99.1275 15.059 99.9244 15.8441 101.789 15.8441C102.535 15.8482 103.276 15.7238 103.979 15.4765C104.303 15.3576 104.317 15.1589 104.23 14.7902C104.178 14.5665 104.119 14.4023 103.992 14.3261C103.941 14.2998 103.884 14.2843 103.827 14.2809C103.77 14.2774 103.712 14.2859 103.658 14.3059C103.145 14.4627 102.612 14.546 102.075 14.5533C100.955 14.5533 100.595 14.1965 100.595 13.0889V7.81986H103.372C103.769 7.81986 103.835 7.63784 103.835 7.22502C103.835 6.7896 103.769 6.59687 103.372 6.59687H100.597V4.34959C100.597 3.86778 100.284 3.82971 99.8437 3.82971C99.4518 3.82971 99.1312 3.86897 99.1312 4.34959V6.60996H97.649C97.2511 6.60996 97.1846 6.80269 97.1846 7.23811C97.1834 7.64617 97.2487 7.81986 97.649 7.81986Z" fill="white"/>
<path d="M105.741 14.3736C105.324 14.3736 105.293 14.6223 105.293 15.0006C105.293 15.3789 105.324 15.6276 105.741 15.6276H109.016C109.433 15.6276 109.463 15.3789 109.463 15.0006C109.463 14.6223 109.433 14.3736 109.016 14.3736H107.991V7.44265C107.991 6.84188 107.746 6.5968 107.149 6.5968H105.997C105.506 6.5968 105.297 6.80738 105.297 7.29752C105.297 7.43432 105.297 7.8519 105.728 7.8519H106.357C106.515 7.8519 106.524 7.86261 106.524 8.01845V14.3701L105.741 14.3736Z" fill="white"/>
<path d="M115.221 15.8441C118.147 15.8441 119.826 14.156 119.826 11.2139V11.0117C119.826 8.01372 118.19 6.36365 115.221 6.36365C112.209 6.37198 110.618 7.97446 110.618 11.0117V11.2139C110.618 14.156 112.296 15.8441 115.221 15.8441ZM112.157 11.1782V11.0522C112.157 8.65495 113.107 7.58663 115.221 7.58663C117.335 7.58663 118.285 8.65733 118.285 11.0522V11.1782C118.285 13.5873 117.335 14.6616 115.221 14.6616C113.107 14.6616 112.157 13.5873 112.157 11.1782Z" fill="white"/>
<path d="M121.658 7.85649H122.324C122.473 7.85649 122.473 7.85649 122.473 8.02187V14.3735H121.695C121.279 14.3735 121.248 14.6222 121.248 15.0005C121.248 15.3787 121.279 15.6275 121.695 15.6275H125.06C125.476 15.6275 125.507 15.38 125.507 15.0005C125.507 14.621 125.476 14.3735 125.06 14.3735H123.94V10.6855C123.94 8.65357 124.994 7.58049 126.987 7.58049C128.816 7.58049 129.528 8.44062 129.528 10.651V14.3687H128.589C128.174 14.3687 128.143 14.6173 128.143 14.9957C128.143 15.374 128.174 15.6226 128.589 15.6226H131.955C132.37 15.6226 132.402 15.3752 132.402 14.9957C132.402 14.6162 132.37 14.3687 131.955 14.3687H130.998V10.4916C130.998 7.71611 129.81 6.36584 127.366 6.36584C125.567 6.36584 124.473 6.82506 123.836 7.85055L123.796 7.42941C123.735 6.84171 123.477 6.59664 122.9 6.59664H121.928C121.439 6.59664 121.229 6.80483 121.229 7.29616C121.229 7.4425 121.229 7.85649 121.658 7.85649Z" fill="white"/>
<path d="M47.659 32.2744C52.0105 32.2744 54.406 29.9902 54.406 25.8418V25.4267C54.406 21.1688 52.0698 19.0107 47.4606 19.0107H43.0665C42.6899 19.0107 42.6211 19.2274 42.6211 19.6555C42.6211 20.0838 42.6899 20.3004 43.0665 20.3004H43.8443V30.9836H43.0665C42.6899 30.9836 42.6211 31.2013 42.6211 31.6296C42.6211 32.0579 42.6899 32.2744 43.0665 32.2744H47.659ZM45.4025 30.9836V20.3004H47.3146C51.0889 20.3004 52.7717 21.9147 52.7717 25.535V25.7515C52.7717 29.3205 51.1577 30.986 47.6911 30.986L45.4025 30.9836Z" fill="white"/>
<path d="M64.1675 31.2357C64.1092 31.0323 64.0486 30.8789 63.9204 30.8147C63.8601 30.789 63.7952 30.7759 63.7298 30.7759C63.6643 30.7759 63.5995 30.789 63.5391 30.8147C62.677 31.0748 61.7828 31.2125 60.8824 31.2239C58.5262 31.2239 57.5867 30.4209 57.4645 28.2771H63.4726C64.4561 28.2771 64.5689 28.1712 64.5689 27.2516V27.0137C64.5689 24.4344 63.1437 23.014 60.5392 23.014C57.645 23.014 55.917 24.7318 55.917 27.6085V27.9654C55.917 31.0086 57.5048 32.4861 60.7731 32.4861C61.8609 32.4897 62.9416 32.3109 63.9702 31.9567C64.348 31.8306 64.2529 31.513 64.1675 31.2357ZM57.4965 27.0398C57.5452 25.2053 58.5571 24.2382 60.4311 24.2382C62.2565 24.2382 63.1295 25.1293 63.1698 27.0398H57.4965Z" fill="white"/>
<path d="M75.2232 23.2487H72.1995C71.7838 23.2487 71.753 23.4973 71.753 23.8757C71.753 24.2539 71.7838 24.5026 72.1995 24.5026H73.1176L70.8812 29.5348C70.6626 30.0485 70.5113 30.5883 70.4311 31.141C70.33 30.5875 70.1629 30.0483 69.9335 29.5348L67.715 24.5026H68.5618C68.9763 24.5026 69.0083 24.2552 69.0083 23.8757C69.0083 23.4962 68.9763 23.2487 68.5618 23.2487H65.4847C65.069 23.2487 65.0381 23.4973 65.0381 23.8757C65.0381 24.2539 65.069 24.5026 65.4847 24.5026H66.0785L69.4596 31.8655C69.6271 32.2628 69.8301 32.3841 70.3266 32.3841H70.5641C70.9988 32.3841 71.1366 32.1641 71.285 31.8512L74.6104 24.5026H75.222C75.6377 24.5026 75.6685 24.2552 75.6685 23.8757C75.6685 23.4962 75.6388 23.2487 75.2232 23.2487Z" fill="white"/>
<path d="M80.8662 23.014C77.9731 23.014 76.2451 24.7318 76.2451 27.6085V27.9654C76.2451 31.0086 77.8329 32.4861 81.1013 32.4861C82.1891 32.4897 83.2697 32.3109 84.2985 31.9567C84.6761 31.8282 84.5799 31.5082 84.4956 31.2263C84.4373 31.0241 84.3768 30.8694 84.2485 30.8051C84.1885 30.7796 84.1238 30.7664 84.0586 30.7664C83.9932 30.7664 83.9285 30.7796 83.8685 30.8051C83.0059 31.065 82.1113 31.2027 81.2106 31.2144C78.8543 31.2144 77.9149 30.4113 77.7926 28.2676H83.8008C84.783 28.2676 84.8958 28.1617 84.8958 27.242V27.0041C84.8958 24.4344 83.4647 23.014 80.8662 23.014ZM83.498 27.0351H77.8246C77.8733 25.2006 78.8852 24.2334 80.7592 24.2334C82.5846 24.2334 83.4576 25.1244 83.498 27.0351Z" fill="white"/>
<path d="M86.8506 31.0205C86.435 31.0205 86.4053 31.2691 86.4053 31.6475C86.4053 32.0258 86.435 32.2744 86.8506 32.2744H90.1272C90.5429 32.2744 90.5738 32.0258 90.5738 31.6475C90.5738 31.2691 90.5429 31.0205 90.1272 31.0205H89.1071V19.853C89.1071 19.2582 88.8636 19.0107 88.2651 19.0107H87.1131C86.6225 19.0107 86.4147 19.219 86.4147 19.7103C86.4147 19.8471 86.4147 20.2658 86.8423 20.2658H87.473C87.6296 20.2658 87.638 20.273 87.638 20.4312V31.0193L86.8506 31.0205Z" fill="white"/>
<path d="M96.0821 23.014C93.0702 23.014 91.4824 24.6213 91.4824 27.6668V27.8643C91.4824 30.8075 93.1605 32.4957 96.0868 32.4957C99.0132 32.4957 100.691 30.8075 100.691 27.8643V27.6668C100.687 24.664 99.0523 23.014 96.0821 23.014ZM99.1462 27.6977V27.825C99.1462 30.2341 98.1961 31.3084 96.0821 31.3084C93.9682 31.3084 93.0192 30.2377 93.0192 27.825V27.6977C93.0192 25.3017 93.9633 24.2334 96.0821 24.2334C98.2008 24.2334 99.1462 25.3017 99.1462 27.6977Z" fill="white"/>
<path d="M107.614 23.014C106.15 23.014 104.992 23.541 104.339 24.501L104.296 24.0764C104.241 23.5517 104.076 23.2436 103.401 23.2436H102.429C101.941 23.2436 101.731 23.453 101.731 23.942C101.731 24.3107 101.875 24.4975 102.159 24.4975H102.807C102.968 24.4975 102.972 24.5094 102.972 24.6652V35.0547H102.177C101.763 35.0547 101.731 35.3033 101.731 35.6828C101.731 36.0623 101.763 36.3097 102.177 36.3097H105.671C106.085 36.3097 106.115 36.0611 106.115 35.6828C106.115 35.3045 106.085 35.0547 105.671 35.0547H104.441V33.627C104.449 32.8234 104.395 32.0203 104.277 31.2251C105.001 32.0852 105.99 32.4873 107.379 32.4873C110.165 32.4873 111.892 30.7028 111.892 27.8215V27.5002C111.895 24.8116 110.174 23.014 107.614 23.014ZM110.353 27.6442V27.806C110.353 30.083 109.323 31.2369 107.289 31.2369C105.364 31.2369 104.388 30.1912 104.388 28.1307V27.5549C104.388 25.5171 105.555 24.2512 107.434 24.2512C109.29 24.2512 110.353 25.4873 110.353 27.6442Z" fill="white"/>
<path d="M130.451 31.0192H129.494V26.8495C129.494 24.1965 128.424 23.014 126.023 23.014C124.248 23.014 123.006 23.5803 122.427 24.6546H122.383C121.827 23.5351 120.814 23.014 119.2 23.014C117.512 23.014 116.483 23.4708 115.887 24.4939L115.847 24.0764C115.789 23.5648 115.618 23.2436 114.951 23.2436H114.001C113.513 23.2436 113.304 23.453 113.304 23.942C113.304 24.1085 113.304 24.4975 113.731 24.4975H114.379C114.524 24.4975 114.527 24.4975 114.527 24.6652V31.0145H113.751C113.335 31.0145 113.304 31.2643 113.304 31.6438C113.304 32.0233 113.335 32.2708 113.751 32.2708H117.115C117.532 32.2708 117.562 32.0222 117.562 31.6438C117.562 31.2655 117.532 31.0145 117.115 31.0145H115.998V27.2302C115.998 25.241 116.98 24.2322 118.916 24.2322C120.746 24.2322 121.277 24.8805 121.277 27.1219V31.0192H120.338C119.922 31.0192 119.892 31.2691 119.892 31.6486C119.892 32.0281 119.922 32.2755 120.338 32.2755H123.704C124.119 32.2755 124.151 32.0269 124.151 31.6486C124.151 31.2702 124.119 31.0192 123.704 31.0192H122.728V27.4098C122.728 25.3315 123.75 24.2322 125.685 24.2322C127.503 24.2322 128.028 24.8805 128.028 27.1219V31.0192H127.124C126.709 31.0192 126.679 31.2691 126.679 31.6486C126.679 32.0281 126.709 32.2755 127.124 32.2755H130.45C130.864 32.2755 130.895 32.0269 130.895 31.6486C130.895 31.2702 130.865 31.0192 130.451 31.0192Z" fill="white"/>
<path d="M136.494 23.014C133.601 23.014 131.873 24.7318 131.873 27.6085V27.9654C131.873 31.0086 133.461 32.4861 136.729 32.4861C137.816 32.4899 138.897 32.3111 139.925 31.9567C140.304 31.8294 140.208 31.5082 140.123 31.2263C140.065 31.0229 140.004 30.8693 139.875 30.8039C139.816 30.7787 139.751 30.7656 139.686 30.7656C139.62 30.7656 139.556 30.7787 139.497 30.8039C138.633 31.0637 137.739 31.2014 136.838 31.2132C134.482 31.2132 133.542 30.4101 133.421 28.2664H139.428C140.41 28.2664 140.524 28.1605 140.524 27.2408V27.0029C140.52 24.4344 139.089 23.014 136.494 23.014ZM139.125 27.0351H133.451C133.499 25.2006 134.512 24.2334 136.386 24.2334C138.209 24.2334 139.082 25.1244 139.122 27.0351H139.125Z" fill="white"/>
<path d="M152.757 31.0192H151.8V27.1385C151.8 24.3631 150.612 23.014 148.168 23.014C146.366 23.014 145.273 23.472 144.639 24.4975L144.598 24.0776C144.539 23.4827 144.278 23.2448 143.703 23.2448H142.731C142.241 23.2448 142.031 23.4542 142.031 23.9432C142.031 24.0811 142.031 24.4987 142.46 24.4987H143.126C143.274 24.4987 143.274 24.4987 143.274 24.6664V31.0157H142.496C142.082 31.0157 142.05 31.2655 142.05 31.645C142.05 32.0245 142.082 32.272 142.496 32.272H145.864C146.279 32.272 146.309 32.0233 146.309 31.645C146.309 31.2667 146.279 31.0157 145.864 31.0157H144.743V27.3384C144.743 25.3065 145.797 24.2322 147.789 24.2322C149.619 24.2322 150.331 25.0935 150.331 27.3015V31.0192H149.391C148.976 31.0192 148.946 31.2691 148.946 31.6486C148.946 32.0281 148.976 32.2755 149.391 32.2755H152.757C153.173 32.2755 153.204 32.0269 153.204 31.6486C153.204 31.2702 153.173 31.0192 152.757 31.0192Z" fill="white"/>
<path d="M160.466 31.4358C160.416 31.2133 160.356 31.0503 160.228 30.973C160.177 30.9466 160.121 30.9311 160.063 30.9277C160.006 30.9242 159.948 30.9327 159.893 30.9527C159.381 31.1115 158.848 31.1948 158.311 31.2002C157.191 31.2002 156.833 30.8434 156.833 29.737V24.4679H159.608C160.005 24.4679 160.071 24.2847 160.071 23.8731C160.071 23.4388 160.005 23.2462 159.608 23.2462H156.833V20.9858C156.833 20.5027 156.519 20.4658 156.08 20.4658C155.687 20.4658 155.366 20.5052 155.366 20.9858V23.2462H153.887C153.489 23.2462 153.421 23.4388 153.421 23.8731C153.421 24.2823 153.489 24.4679 153.887 24.4679H155.366V29.8618C155.366 31.7058 156.162 32.4922 158.028 32.4922C158.773 32.4966 159.513 32.3713 160.215 32.1222C160.539 32.0056 160.554 31.8069 160.466 31.4358Z" fill="white"/>
<path d="M54.0597 35.3997H43.8901C43.1466 35.3997 42.9209 35.6007 42.9209 36.261V38.4023C42.9209 38.8128 43.3093 38.8473 43.6751 38.8473C44.1264 38.8473 44.4067 38.7736 44.4067 38.4023V36.6869H48.1964V47.3713H46.4149C46.0385 47.3713 45.9696 47.5878 45.9696 48.0161C45.9696 48.4444 46.0385 48.6609 46.4149 48.6609H51.5657C51.941 48.6609 52.0111 48.4348 52.0111 48.0161C52.0111 47.5973 51.941 47.3713 51.5657 47.3713H49.7605V36.6869H53.5301V38.406C53.5301 38.7759 53.8305 38.8509 54.2818 38.8509C54.7331 38.8509 55.0158 38.7771 55.0158 38.406V36.2645C55.0099 35.59 54.7972 35.3997 54.0597 35.3997Z" fill="white"/>
<path d="M62.98 39.5898C62.5865 39.4587 62.1738 39.3943 61.7591 39.3995C60.2152 39.3995 59.1582 39.9836 58.6831 41.0912L58.6416 40.469C58.6024 39.8837 58.3351 39.6362 57.7449 39.6362H56.7948C56.3056 39.6362 56.0977 39.8456 56.0977 40.3357C56.0977 40.7046 56.2414 40.8913 56.5252 40.8913H57.1737C57.3186 40.8913 57.3209 40.8913 57.3209 41.0567V47.4095H56.543C56.1285 47.4095 56.0977 47.657 56.0977 48.0365C56.0977 48.416 56.1285 48.6635 56.543 48.6635H59.8744C60.2876 48.6635 60.3197 48.4148 60.3197 48.0365C60.3197 47.6582 60.2876 47.4095 59.8744 47.4095H58.7901V44.3735C58.7901 41.8645 59.657 40.745 61.6012 40.745C61.9127 40.7486 62.2227 40.7886 62.5251 40.8639C62.9005 40.9496 63.0382 40.745 63.1582 40.3547C63.2626 40.0134 63.3256 39.716 62.98 39.5898Z" fill="white"/>
<path d="M74.424 47.4428H74.1864C73.7375 47.4428 73.7114 47.3548 73.7114 47.0788V40.4606C73.7114 39.8742 73.4738 39.635 72.8872 39.635H71.7696C71.2803 39.635 71.0712 39.8444 71.0712 40.3345C71.0712 40.7034 71.215 40.8901 71.4988 40.8901H72.076C72.2328 40.8901 72.2411 40.8997 72.2411 41.0567V44.5912C72.2411 46.6315 71.2566 47.6236 69.2316 47.6236C67.3587 47.6236 66.7269 46.8682 66.7269 44.6268V40.463C66.7269 39.8682 66.4894 39.6374 65.8956 39.6374H64.7792C64.291 39.6374 64.082 39.8468 64.082 40.337C64.082 40.7057 64.2257 40.8925 64.5096 40.8925H65.0856C65.2424 40.8925 65.2518 40.902 65.2518 41.059V45.0255C65.2518 47.6558 66.4573 48.8811 69.0523 48.8811C70.6153 48.8811 71.6318 48.4338 72.2434 47.4749H72.253C72.4632 48.2851 73.0047 48.6646 73.9477 48.6646H74.4156C74.8289 48.6646 74.8622 48.3934 74.8622 48.0376C74.8705 47.626 74.8064 47.4428 74.424 47.4428Z" fill="white"/>
<path d="M80.9544 43.3703L80.5055 43.3001C78.1302 42.9182 77.9224 42.6494 77.9224 41.9772C77.9224 41.1075 78.2882 40.6044 80.1587 40.6044C80.9391 40.6294 81.7138 40.7451 82.4675 40.9494V41.6346C82.4675 42.0474 82.806 42.0819 83.1801 42.0819C83.6337 42.0819 83.8927 42.0082 83.8927 41.6346V40.9505C83.8927 40.3438 83.6551 40.0595 82.9425 39.824C82.0912 39.5808 81.2142 39.439 80.3298 39.4016C77.6908 39.4016 76.4106 40.2511 76.4106 41.9962V42.0677C76.4106 43.5618 77.3274 44.2971 79.5744 44.6052L80.0969 44.679C82.382 44.9883 82.7846 45.4498 82.7846 46.3052C82.7846 47.2047 82.3939 47.6614 80.2609 47.6614C79.3771 47.6726 78.4966 47.5523 77.6481 47.3046V46.5789C77.6481 46.2041 77.3725 46.1316 76.8963 46.1316C76.5091 46.1316 76.1611 46.1661 76.1611 46.5789V47.3177C76.1611 48.0421 76.4391 48.3777 77.1873 48.5537C78.0741 48.7812 78.9868 48.892 79.9022 48.8832C83.0197 48.8832 84.2965 48.1373 84.2965 46.3076V46.2362C84.2953 44.5397 83.3903 43.7641 80.9544 43.3703Z" fill="white"/>
<path d="M91.7204 47.3593C91.6688 47.3331 91.6123 47.3179 91.5544 47.3143C91.4967 47.3109 91.4387 47.3193 91.3843 47.3391C90.8709 47.4961 90.3379 47.5798 89.8012 47.5877C88.6813 47.5877 88.3226 47.2308 88.3226 46.1221V40.853H91.0981C91.4948 40.853 91.5613 40.671 91.5613 40.2582C91.5613 39.824 91.4948 39.6301 91.0981 39.6301H88.3214V37.3697C88.3214 36.8879 88.0091 36.851 87.5684 36.851C87.1766 36.851 86.8559 36.8902 86.8559 37.3697V39.6301H85.3725C84.9747 39.6301 84.9082 39.824 84.9082 40.2582C84.9082 40.6924 84.9723 40.853 85.3725 40.853H86.8511V46.2494C86.8511 48.0921 87.6468 48.8785 89.5126 48.8785C90.2583 48.8825 90.9992 48.7578 91.7026 48.5098C92.0268 48.3908 92.0423 48.1933 91.9543 47.8233C91.9045 47.602 91.8452 47.4367 91.7204 47.3593Z" fill="white"/>
</g>
<defs>
<clipPath id="clip0_1020_4068">
<rect width="160" height="50.3047" fill="white" transform="translate(0.764648 0.0961914)"/>
</clipPath>
</defs>
</svg>
