<svg width="178" height="59" viewBox="0 0 178 59" fill="none" xmlns="http://www.w3.org/2000/svg">
<path fill-rule="evenodd" clip-rule="evenodd" d="M43.3652 6.52795C47.2824 6.52795 50.3397 7.7072 52.5371 10.0657C54.7345 12.3914 55.8332 15.749 55.8332 20.1384V20.551H49.6231V20.3841C49.6231 17.6653 48.9225 15.618 47.5212 14.2422C46.1518 12.8336 44.3524 12.1294 42.1232 12.1294C39.6391 12.1294 37.6487 12.85 36.1519 14.2913C34.6869 15.7326 33.9544 17.9437 33.9544 20.9246V41.414H27.7443V20.3841C27.7443 17.6325 27.0914 15.5688 25.7857 14.193C24.5118 12.8173 22.7603 12.1294 20.531 12.1294C18.0151 12.1294 15.9928 12.8664 14.4641 14.3405C12.9673 15.7818 12.2189 17.9765 12.2189 20.9246V41.414H6.00879V7.01931H12.0279V11.5397C13.047 9.93466 14.4323 8.70628 16.1839 7.8546C17.9354 6.97017 19.9577 6.52795 22.2507 6.52795C24.6074 6.52795 26.6615 6.98655 28.4131 7.90374C30.1647 8.82093 31.4863 10.1148 32.378 11.7854C33.4927 10.1148 35.0054 8.82093 36.9162 7.90374C38.8589 6.98655 41.0085 6.52795 43.3652 6.52795ZM74.7316 32.2128V38.1574C74.7316 47.3948 70.3208 52.0135 61.4993 52.0135C59.1744 52.0135 56.9451 51.686 54.8114 51.0308C52.7095 50.4084 50.9739 49.4912 49.6044 48.2792L52.2796 43.6605C53.3624 44.6105 54.684 45.3639 56.2445 45.9208C57.805 46.4776 59.4451 46.7561 61.1649 46.7561C63.7763 46.7561 65.6871 46.1009 66.8973 44.7907C68.1393 43.5131 68.7603 41.5313 68.7603 38.8453V37.6169C67.8049 38.6979 66.6425 39.5332 65.2731 40.1228C63.9037 40.6797 62.4228 40.9581 60.8305 40.9581C57.4229 40.9581 54.7318 39.9918 52.7573 38.0591C50.8146 36.1265 49.8433 33.2275 49.8433 29.3622V26.3306H55.8146V28.576C55.8146 30.9018 56.3241 32.6543 57.3432 33.8335C58.3942 34.98 59.8751 35.5532 61.7859 35.5532C63.9196 35.5532 65.6075 34.8817 66.8495 33.5387C68.1234 32.1957 68.7603 30.2466 68.7603 27.6916V15.8991H74.7316V25.9934H72.6186V32.2128H74.7316ZM79.6369 32.2128V43.3166H94.2547C97.8215 43.3166 100.99 42.6123 103.761 41.2038C106.532 39.7625 108.681 37.7479 110.21 35.1601C111.739 32.5396 112.503 29.526 112.503 26.1193C112.503 22.7126 111.739 19.7153 110.21 17.1275C108.681 14.507 106.532 12.4924 103.761 11.0839C100.99 9.6426 97.8215 8.92195 94.2547 8.92195H79.6369V25.9934H83.0995V32.2128H79.6369ZM100.417 36.4868C98.5699 37.4367 96.4202 37.9117 93.968 37.9117H85.8471V14.3268H93.968C96.4202 14.3268 98.5699 14.8182 100.417 15.8009C102.296 16.7508 103.729 18.1266 104.716 19.9282C105.735 21.6971 106.245 23.7608 106.245 26.1193C106.245 28.4778 105.735 30.5578 104.716 32.3594C103.729 34.1283 102.296 35.5041 100.417 36.4868ZM130.664 38.4522C133.435 38.4522 135.743 37.5023 137.591 35.6024L140.743 39.3858C139.629 40.7943 138.196 41.8589 136.444 42.5796C134.692 43.3002 132.718 43.6605 130.521 43.6605C127.718 43.6605 125.25 43.0873 123.116 41.9408C120.982 40.7943 119.326 39.2056 118.148 37.1747C117.002 35.111 116.428 32.7853 116.428 30.1975C116.428 27.6425 116.986 25.3495 118.1 23.3186C119.247 21.2549 120.807 19.6498 122.782 18.5033C124.788 17.3568 127.049 16.7836 129.565 16.7836C131.954 16.7836 134.119 17.3241 136.062 18.405C138.036 19.4533 139.597 20.9765 140.743 22.9746C141.89 24.94 142.463 27.2494 142.463 29.9027L122.925 33.8335C123.53 35.3403 124.501 36.4868 125.839 37.273C127.177 38.0591 128.785 38.4522 130.664 38.4522ZM129.565 21.6971C127.368 21.6971 125.584 22.4341 124.215 23.9082C122.877 25.3822 122.209 27.364 122.209 29.8535V29.9027L136.635 27.0528C136.221 25.4478 135.377 24.1539 134.103 23.1712C132.861 22.1885 131.349 21.6971 129.565 21.6971ZM157.198 34.2266L163.742 43.3166H170.478L160.494 29.9027L170.048 17.0784H163.599L157.341 25.6771L151.083 17.0784H144.443L153.949 30.001L144.013 43.3166H150.605L157.198 34.2266Z" fill="white"/>
</svg>
