<svg width="141" height="46" viewBox="0 0 141 46" fill="none" xmlns="http://www.w3.org/2000/svg">
<g clip-path="url(#clip0_1020_4028)">
<path d="M1.49219 27.6606V18.5171H139.477V27.6606C139.477 37.3258 131.583 45.1606 121.845 45.1606H19.1242C9.38604 45.1606 1.49219 37.3258 1.49219 27.6606Z" fill="white"/>
<path d="M121.845 45.9206H19.1238C8.97879 45.9206 0.725586 37.7292 0.725586 27.6601V18.9735H140.243V27.6601C140.243 37.7292 131.99 45.9206 121.845 45.9206ZM2.25803 19.2771V27.6601C2.25803 36.8891 9.82223 44.3996 19.1238 44.3996H121.845C131.143 44.3996 138.711 36.8921 138.711 27.6601V19.2771H2.25803Z" fill="#232323"/>
<path d="M122.306 1.33704H18.6638C9.1802 1.33704 1.49219 8.9675 1.49219 18.3802V19.2939C1.49219 28.7066 9.1802 36.337 18.6638 36.337H122.306C131.789 36.337 139.477 28.7066 139.477 19.2939V18.3802C139.477 8.9675 131.789 1.33704 122.306 1.33704Z" fill="white"/>
<path d="M121.845 37.0981H18.2087C11.5563 37.0981 5.45619 33.3075 2.67047 27.315C-3.61075 13.8119 6.22835 0.577148 19.1234 0.577148H122.759C129.412 0.577148 135.512 4.36778 138.297 10.3603C144.579 23.8633 134.74 37.0952 121.845 37.0952V37.0981ZM19.1234 2.09812C9.72089 2.09812 2.09135 9.77666 2.26064 19.1442C2.42695 28.3172 10.1782 35.5742 19.4204 35.5742H121.548C130.793 35.5742 138.541 28.3172 138.707 19.1442C138.877 9.77371 131.247 2.09812 121.845 2.09812H19.1234Z" fill="#232323"/>
<path d="M28.1492 12.368V24.919H25.3665V23.6132C24.5557 24.6508 23.3945 25.1695 21.8769 25.1695C20.3593 25.1695 19.204 24.6891 18.3101 23.7252C17.4162 22.7643 16.9707 21.4791 16.9707 19.8727V12.368H19.7534V19.4217C19.7534 20.4268 19.994 21.2168 20.4751 21.7945C20.9562 22.3723 21.6245 22.6611 22.4857 22.6611C23.1272 22.6611 23.7004 22.4813 24.2052 22.1217C24.7101 21.7621 25.0992 21.2816 25.3694 20.6774V12.368H28.1522H28.1492Z" fill="#232323"/>
<path d="M30.8818 24.9184V12.3675H33.6646V13.6969C34.5258 12.6416 35.7643 12.1169 37.3828 12.1169C38.8826 12.1169 40.0854 12.5974 40.9853 13.5613C41.8881 14.5251 42.3395 15.8074 42.3395 17.4138V24.9184H39.5568V17.8648C39.5568 16.8449 39.3162 16.0491 38.8351 15.4802C38.354 14.9113 37.6679 14.6254 36.774 14.6254C35.2891 14.6254 34.2526 15.2856 33.6646 16.6091V24.9184H30.8818Z" fill="#232323"/>
<path d="M50.684 25.0426C49.3861 25.0426 48.3289 24.6859 47.5092 23.9756C46.6925 23.2652 46.2826 22.2306 46.2826 20.8747V14.8262H43.1465V12.3649H46.2826V8.72461H49.0654V12.3649H52.9351V14.8262H49.0654V20.4237C49.0654 21.8474 49.7217 22.5578 51.0374 22.5578C51.7293 22.5578 52.3263 22.4074 52.8341 22.1068L53.6687 24.4177C52.7925 24.8363 51.7976 25.0456 50.684 25.0456V25.0426Z" fill="#232323"/>
<path d="M59.9377 25.169C58.0993 25.169 56.5907 24.5323 55.4116 23.2619C54.2326 21.9915 53.6416 20.4499 53.6416 18.643C53.6416 16.8361 54.2326 15.2974 55.4116 14.0241C56.5907 12.7536 58.0993 12.1169 59.9377 12.1169C61.4879 12.1169 62.7204 12.5856 63.6292 13.523V12.3675H66.4119V24.9184H63.6292V23.7394C62.7175 24.6944 61.4879 25.169 59.9377 25.169ZM60.2673 22.6576C61.7166 22.6576 62.8392 22.071 63.6322 20.9008V16.3586C62.8214 15.2031 61.7018 14.6254 60.2673 14.6254C59.1715 14.6254 58.2686 15.0144 57.5618 15.7926C56.855 16.5708 56.4986 17.5199 56.4986 18.64C56.4986 19.7601 56.852 20.7122 57.5618 21.4904C58.2686 22.2685 59.1715 22.6576 60.2673 22.6576Z" fill="#232323"/>
<path d="M69.168 28.9478V12.3675H71.9507V13.523C72.8625 12.5856 74.092 12.1169 75.6422 12.1169C77.4806 12.1169 78.9922 12.7536 80.1831 14.0241C81.3711 15.2945 81.965 16.8361 81.965 18.643C81.965 20.4499 81.3711 21.9915 80.1831 23.2619C78.9952 24.5323 77.4806 25.169 75.6422 25.169C74.092 25.169 72.8595 24.6915 71.9507 23.7394V28.9508H69.168V28.9478ZM75.3393 22.6576C76.4352 22.6576 77.338 22.2685 78.0448 21.4904C78.7517 20.7122 79.108 19.7631 79.108 18.64C79.108 17.517 78.7546 16.5708 78.0448 15.7926C77.338 15.0144 76.4352 14.6254 75.3393 14.6254C73.89 14.6254 72.7585 15.2031 71.9507 16.3586V20.9008C72.7437 22.071 73.8722 22.6576 75.3393 22.6576Z" fill="#232323"/>
<path d="M83.8125 28.9478V12.3675H86.5953V13.523C87.507 12.5856 88.7365 12.1169 90.2868 12.1169C92.1251 12.1169 93.6368 12.7536 94.8277 14.0241C96.0156 15.2945 96.6096 16.8361 96.6096 18.643C96.6096 20.4499 96.0156 21.9915 94.8277 23.2619C93.6397 24.5323 92.1251 25.169 90.2868 25.169C88.7365 25.169 87.504 24.6915 86.5953 23.7394V28.9508H83.8125V28.9478ZM89.9838 22.6576C91.0797 22.6576 91.9826 22.2685 92.6894 21.4904C93.3962 20.7122 93.7526 19.7631 93.7526 18.64C93.7526 17.517 93.3992 16.5708 92.6894 15.7926C91.9826 15.0144 91.0797 14.6254 89.9838 14.6254C88.5346 14.6254 87.4031 15.2031 86.5953 16.3586V20.9008C87.3882 22.071 88.5167 22.6576 89.9838 22.6576Z" fill="#232323"/>
<path d="M104.17 25.1696C102.249 25.1696 100.669 24.5595 99.4275 23.3362C98.1891 22.1159 97.5684 20.5507 97.5684 18.6406C97.5684 16.7306 98.192 15.2303 99.4394 13.9834C100.687 12.7366 102.264 12.1146 104.167 12.1146C105.92 12.1146 107.375 12.6658 108.53 13.7712C109.685 14.8765 110.261 16.3975 110.261 18.34C110.261 18.676 110.253 18.9767 110.235 19.2449H100.295C100.363 20.2648 100.758 21.0901 101.483 21.718C102.207 22.3458 103.11 22.6583 104.188 22.6583C105.807 22.6583 107.012 22.0216 107.805 20.7511L109.929 22.2574C108.714 24.1999 106.793 25.1696 104.161 25.1696H104.17ZM100.428 17.2376H107.458C107.306 16.368 106.914 15.6842 106.282 15.1919C105.649 14.6997 104.913 14.4521 104.069 14.4521C103.226 14.4521 102.412 14.6938 101.729 15.1801C101.046 15.6665 100.612 16.3533 100.425 17.2376H100.428Z" fill="#232323"/>
<path d="M117.524 25.1691C115.685 25.1691 114.177 24.5324 112.998 23.262C111.819 21.9916 111.228 20.45 111.228 18.6431C111.228 16.8362 111.819 15.2975 112.998 14.0242C114.177 12.7537 115.685 12.1171 117.524 12.1171C119.074 12.1171 120.306 12.5857 121.215 13.5231V8.72729H123.998V24.9186H121.215V23.7395C120.303 24.6945 119.074 25.1691 117.524 25.1691ZM117.853 22.6577C119.303 22.6577 120.425 22.0712 121.218 20.9009V16.3587C120.407 15.2032 119.288 14.6255 117.853 14.6255C116.757 14.6255 115.855 15.0146 115.148 15.7927C114.441 16.5709 114.085 17.52 114.085 18.6401C114.085 19.7602 114.438 20.7123 115.148 21.4905C115.855 22.2686 116.757 22.6577 117.853 22.6577Z" fill="#232323"/>
</g>
<defs>
<clipPath id="clip0_1020_4028">
<rect width="139.518" height="45.3432" fill="white" transform="translate(0.725586 0.577026)"/>
</clipPath>
</defs>
</svg>
