<svg width="24" height="24" viewBox="0 0 24 24" fill="none" xmlns="http://www.w3.org/2000/svg">
<g clip-path="url(#clip0_668_631)">
<path d="M4.25006 0.300004H19.7499C22.1 0.300004 24 2.19994 24 4.55006V19.4499C24 21.8001 22.1 23.7 19.7499 23.7H4.25006C1.89994 23.7 0 21.8001 0 19.4499V4.55006C0 2.19994 1.89994 0.300004 4.25006 0.300004Z" fill="#001E36"/>
<path d="M8.6002 6.25C8.3002 6.25 8.0002 6.25 7.69026 6.26013C7.38014 6.27006 7.09008 6.27006 6.82008 6.28019C6.55008 6.29013 6.30014 6.29013 6.06014 6.30006C5.83008 6.31 5.67014 6.31 5.50008 6.31C5.43014 6.31 5.40014 6.34994 5.40014 6.42006V16.7101C5.40014 16.8001 5.44008 16.8402 5.52014 16.8402H7.4602C7.53014 16.8301 7.5802 16.7701 7.57008 16.7001V13.4901C7.76001 13.4901 7.90008 13.4901 8.0002 13.5001C8.10014 13.51 8.26007 13.51 8.50008 13.51C9.3202 13.51 10.0702 13.42 10.7501 13.1701C11.4001 12.9301 11.9602 12.5101 12.3601 11.95C12.7601 11.3901 12.9601 10.6801 12.9601 9.82C12.9601 9.37 12.8803 8.94006 12.7303 8.52006C12.5714 8.09212 12.3224 7.70333 12.0001 7.38006C11.6199 7.01061 11.1621 6.73046 10.6601 6.55994C10.1 6.34994 9.42014 6.25 8.6002 6.25ZM8.82332 8.21969C9.17957 8.22644 9.52645 8.28869 9.85007 8.41994C10.1401 8.53 10.3801 8.73006 10.5502 8.98994C10.7099 9.25881 10.7897 9.56761 10.7803 9.88019C10.7803 10.3201 10.6801 10.6602 10.4701 10.9101C10.25 11.1601 9.97007 11.3502 9.6502 11.4402C9.28007 11.5602 8.89007 11.62 8.50008 11.62H7.97001C7.85001 11.62 7.72026 11.6101 7.5802 11.6001V8.24012C7.65014 8.23 7.7902 8.22006 7.99026 8.23019C8.1802 8.22006 8.41008 8.22006 8.67014 8.22006C8.72133 8.21875 8.77251 8.21856 8.82332 8.21969ZM17.2102 8.73025C16.5001 8.73025 15.9101 8.84012 15.4402 9.08012C15.0103 9.28019 14.6401 9.60006 14.3902 10C14.1703 10.3701 14.0501 10.78 14.0501 11.2101C14.0415 11.5639 14.1205 11.9143 14.2801 12.2301C14.4672 12.5664 14.7269 12.8568 15.0403 13.0801C15.4802 13.3809 15.9575 13.6229 16.4602 13.8001C16.9501 13.99 17.2801 14.14 17.4403 14.2699C17.6002 14.4001 17.6803 14.53 17.6803 14.6701C17.6803 14.8501 17.5702 15.0201 17.4103 15.0901C17.2303 15.1801 16.9603 15.2301 16.5802 15.2301C16.1803 15.2301 15.7801 15.1801 15.4001 15.0801C14.9637 14.9826 14.5453 14.8172 14.1601 14.5902C14.1301 14.5701 14.1001 14.5602 14.0701 14.5802C14.0401 14.6001 14.0302 14.6401 14.0302 14.6701V16.4101C14.0203 16.4901 14.0701 16.5601 14.1403 16.6C14.4645 16.7515 14.8076 16.8591 15.1603 16.9201C15.6103 17.0101 16.0601 17.05 16.52 17.05C17.24 17.05 17.8402 16.9401 18.3301 16.7301C18.7801 16.5501 19.1701 16.2402 19.4501 15.8401C19.7121 15.4467 19.8482 14.9828 19.8401 14.5101C19.8498 14.1531 19.7709 13.7992 19.6102 13.4802C19.4201 13.1401 19.1501 12.8601 18.8201 12.6501C18.3373 12.347 17.8204 12.1019 17.2801 11.92C17.0388 11.8202 16.8019 11.7101 16.5701 11.59C16.4401 11.5201 16.3201 11.4301 16.2301 11.32C16.1701 11.2399 16.1302 11.1501 16.1302 11.0601C16.1302 10.9701 16.1602 10.8702 16.2101 10.7901C16.2802 10.6902 16.3901 10.6201 16.52 10.5901C16.7101 10.5402 16.9201 10.51 17.12 10.5199C17.5001 10.5199 17.87 10.57 18.2401 10.6501C18.5803 10.72 18.9001 10.8301 19.2001 10.9902C19.2401 11.0101 19.2901 11.0101 19.3801 10.9902C19.3958 10.9786 19.4085 10.9636 19.4172 10.9461C19.4259 10.9287 19.4304 10.9095 19.4302 10.8901V9.26012C19.4302 9.22 19.4201 9.18006 19.4101 9.14012C19.3901 9.10019 19.3501 9.06006 19.3102 9.05012C19.0344 8.93732 18.7454 8.86002 18.4501 8.82006C18.0395 8.76026 17.6251 8.73037 17.2102 8.73025Z" fill="#31A8FF"/>
</g>
<defs>
<clipPath id="clip0_668_631">
<rect width="23.5714" height="23.5714" fill="white" transform="scale(1.01818)"/>
</clipPath>
</defs>
</svg>
