<svg width="236" height="419" viewBox="0 0 236 419" fill="none" xmlns="http://www.w3.org/2000/svg">
<g clip-path="url(#clip0_687_3143)">
<rect x="0.688477" width="235.23" height="418.395" rx="15" fill="white"/>
<g clip-path="url(#clip1_687_3143)">
<rect width="235.23" height="12.5456" transform="translate(0.688477)" fill="white"/>
<path d="M105.823 3.17288C106.955 3.17288 107.94 3.9778 107.94 5.88904V5.8964C107.94 7.68267 107.135 8.7412 105.801 8.7412C104.827 8.7412 104.099 8.16416 103.93 7.35188L103.923 7.31145H104.856L104.867 7.3482C105.007 7.71942 105.334 7.96201 105.801 7.96201C106.642 7.96201 106.999 7.1387 107.039 6.12427C107.039 6.08384 107.043 6.04341 107.043 6.00298H106.97C106.775 6.42199 106.312 6.79321 105.584 6.79321C104.566 6.79321 103.853 6.05077 103.853 5.04369V5.03634C103.853 3.95943 104.672 3.17288 105.823 3.17288ZM105.819 6.06547C106.418 6.06547 106.878 5.63176 106.878 5.03266V5.02531C106.878 4.41886 106.418 3.94473 105.83 3.94473C105.246 3.94473 104.779 4.41151 104.779 5.00326V5.01061C104.779 5.62441 105.216 6.06547 105.819 6.06547ZM109.609 5.17233C109.274 5.17233 109.024 4.91505 109.024 4.59161C109.024 4.26449 109.274 4.01088 109.609 4.01088C109.947 4.01088 110.193 4.26449 110.193 4.59161C110.193 4.91505 109.947 5.17233 109.609 5.17233ZM109.609 7.89952C109.274 7.89952 109.024 7.64592 109.024 7.3188C109.024 6.99168 109.274 6.73808 109.609 6.73808C109.947 6.73808 110.193 6.99168 110.193 7.3188C110.193 7.64592 109.947 7.89952 109.609 7.89952ZM113.85 8.60889V7.59078H111.255V6.81526C111.942 5.62074 112.696 4.40048 113.416 3.30519H114.758V6.80791H115.471V7.59078H114.758V8.60889H113.85ZM112.137 6.82996H113.865V4.06234H113.81C113.266 4.89299 112.652 5.87434 112.137 6.77483V6.82996ZM117.669 8.60889V4.23876H117.606L116.287 5.17233V4.27919L117.673 3.30519H118.617V8.60889H117.669ZM121.804 8.60889L123.686 3.30519H124.755L126.637 8.60889H125.645L125.2 7.23794H123.237L122.796 8.60889H121.804ZM124.189 4.29022L123.476 6.50652H124.965L124.252 4.29022H124.189ZM127.548 8.60889V3.30519H128.636L130.232 7.38496H130.294L131.886 3.30519H132.973V8.60889H132.121V4.83786H132.055L130.584 8.60889H129.938L128.467 4.83786H128.405V8.60889H127.548Z" fill="#020202"/>
<path fill-rule="evenodd" clip-rule="evenodd" d="M13.8612 2.86377H13.2339C12.8875 2.86377 12.6066 3.14461 12.6066 3.49105V8.92747C12.6066 9.2739 12.8875 9.55474 13.2339 9.55474H13.8612C14.2076 9.55474 14.4884 9.2739 14.4884 8.92747V3.49105C14.4884 3.14461 14.2076 2.86377 13.8612 2.86377ZM10.3067 4.32752H10.934C11.2804 4.32752 11.5612 4.60836 11.5612 4.9548V8.92757C11.5612 9.274 11.2804 9.55485 10.934 9.55485H10.3067C9.96025 9.55485 9.67941 9.274 9.67941 8.92757V4.9548C9.67941 4.60836 9.96025 4.32752 10.3067 4.32752ZM8.00646 5.79097H7.37919C7.03275 5.79097 6.75191 6.07181 6.75191 6.41825V8.92736C6.75191 9.2738 7.03275 9.55464 7.37919 9.55464H8.00646C8.3529 9.55464 8.63374 9.2738 8.63374 8.92736V6.41825C8.63374 6.07181 8.3529 5.79097 8.00646 5.79097ZM5.07926 7.04553H4.45199C4.10555 7.04553 3.82471 7.32637 3.82471 7.67281V8.92736C3.82471 9.2738 4.10555 9.55464 4.45199 9.55464H5.07926C5.4257 9.55464 5.70654 9.2738 5.70654 8.92736V7.67281C5.70654 7.32637 5.4257 7.04553 5.07926 7.04553Z" fill="#020202"/>
<path d="M17.6738 8.5V3.19631H20.8935V3.79173H18.3354V5.61476H20.684V6.20284H18.3354V8.5H17.6738ZM22.2074 3.77336C21.9648 3.77336 21.7663 3.57488 21.7663 3.3323C21.7663 3.08972 21.9648 2.89124 22.2074 2.89124C22.45 2.89124 22.6485 3.08972 22.6485 3.3323C22.6485 3.57488 22.45 3.77336 22.2074 3.77336ZM21.884 8.5V4.53785H22.5235V8.5H21.884ZM25.3296 9.89668C24.374 9.89668 23.7638 9.46665 23.6646 8.81609L23.672 8.81241H24.3335L24.3372 8.81609C24.407 9.11748 24.7599 9.33065 25.3296 9.33065C26.039 9.33065 26.4616 8.99619 26.4616 8.41179V7.61054H26.4028C26.1529 8.04792 25.7045 8.29417 25.1605 8.29417C24.1351 8.29417 23.4992 7.50027 23.4992 6.39028V6.38293C23.4992 5.27294 24.1387 4.46802 25.1752 4.46802C25.7339 4.46802 26.1676 4.74368 26.4102 5.19208H26.4543V4.53785H27.0938V8.44487C27.0938 9.33065 26.4102 9.89668 25.3296 9.89668ZM25.3002 7.72815C26.0353 7.72815 26.4763 7.17683 26.4763 6.39028V6.38293C26.4763 5.59638 26.0316 5.03404 25.3002 5.03404C24.5651 5.03404 24.1534 5.59638 24.1534 6.38293V6.39028C24.1534 7.17683 24.5651 7.72815 25.3002 7.72815ZM28.2533 8.5V4.53785H28.8928V5.14063H28.9516C29.1281 4.71427 29.503 4.46802 30.0212 4.46802C30.5578 4.46802 30.9327 4.75103 31.1165 5.16268H31.1753C31.3885 4.74368 31.8405 4.46802 32.3882 4.46802C33.1968 4.46802 33.6489 4.93113 33.6489 5.76178V8.5H33.0093V5.9088C33.0093 5.3244 32.741 5.03404 32.1824 5.03404C31.631 5.03404 31.2672 5.44937 31.2672 5.9529V8.5H30.6276V5.80956C30.6276 5.3391 30.3042 5.03404 29.8043 5.03404C29.2861 5.03404 28.8928 5.48612 28.8928 6.04479V8.5H28.2533ZM35.8595 8.56983C35.1061 8.56983 34.5364 8.11408 34.5364 7.39369V7.38633C34.5364 6.68065 35.0583 6.27267 35.9808 6.21754L37.1165 6.1477V5.78751C37.1165 5.29867 36.8188 5.03404 36.2271 5.03404C35.753 5.03404 35.4405 5.21046 35.3376 5.5192L35.3339 5.53023H34.6944L34.6981 5.50817C34.801 4.88702 35.4038 4.46802 36.2491 4.46802C37.2158 4.46802 37.7561 4.96421 37.7561 5.78751V8.5H37.1165V7.9156H37.0577C36.8078 8.33828 36.3925 8.56983 35.8595 8.56983ZM35.1906 7.37898C35.1906 7.77961 35.5324 8.01484 35.9919 8.01484C36.6424 8.01484 37.1165 7.58849 37.1165 7.02246V6.66227L36.058 6.72843C35.4552 6.76518 35.1906 6.97836 35.1906 7.37163V7.37898Z" fill="#020202"/>
<g clip-path="url(#clip2_687_3143)">
<path opacity="0.35" d="M218.438 3.90907C218.438 3.15846 219.047 2.54997 219.797 2.54997L230.252 2.54997C231.003 2.54997 231.611 3.15846 231.611 3.90907V7.67274C231.611 8.42336 231.003 9.03185 230.252 9.03185H219.797C219.047 9.03185 218.438 8.42336 218.438 7.67274V3.90907Z" stroke="#020202" stroke-width="0.627279"/>
<path opacity="0.4" d="M232.552 4.53613V7.04525C233.057 6.83274 233.385 6.33839 233.385 5.79069C233.385 5.24299 233.057 4.74864 232.552 4.53613Z" fill="#020202"/>
<path d="M219.379 4.32709C219.379 3.86518 219.753 3.49072 220.215 3.49072L229.834 3.49072C230.295 3.49072 230.67 3.86518 230.67 4.32709V7.2544C230.67 7.71631 230.295 8.09077 229.834 8.09077H220.215C219.753 8.09077 219.379 7.71631 219.379 7.2544V4.32709Z" fill="#020202"/>
</g>
</g>
<rect x="9.47021" y="20.7002" width="215.157" height="22.582" rx="6.27279" fill="#F5F5F5" stroke="#757575" stroke-width="0.627279"/>
<path d="M211.928 32.4943C211.928 33.1243 212.056 33.6837 212.313 34.1723C212.574 34.6609 212.936 35.0531 213.398 35.3488C213.861 35.6413 214.4 35.8133 215.014 35.8648V36.9882H213.225C213.122 36.9882 213.035 37.0236 212.964 37.0943C212.894 37.165 212.858 37.2518 212.858 37.3547C212.858 37.4544 212.894 37.5395 212.964 37.6103C213.035 37.681 213.122 37.7163 213.225 37.7163H217.531C217.634 37.7163 217.72 37.681 217.791 37.6103C217.862 37.5395 217.897 37.4544 217.897 37.3547C217.897 37.2518 217.862 37.165 217.791 37.0943C217.72 37.0236 217.634 36.9882 217.531 36.9882H215.742V35.8648C216.356 35.8133 216.894 35.6413 217.357 35.3488C217.82 35.0531 218.18 34.6609 218.437 34.1723C218.698 33.6837 218.828 33.1243 218.828 32.4943V31.5154C218.828 31.4158 218.792 31.3306 218.722 31.2599C218.651 31.1892 218.566 31.1538 218.466 31.1538C218.363 31.1538 218.277 31.1892 218.206 31.2599C218.135 31.3306 218.1 31.4158 218.1 31.5154V32.4653C218.1 33.0118 217.987 33.4908 217.762 33.9023C217.537 34.3137 217.221 34.6336 216.812 34.8618C216.407 35.0868 215.93 35.1993 215.38 35.1993C214.83 35.1993 214.352 35.0868 213.943 34.8618C213.535 34.6336 213.218 34.3137 212.993 33.9023C212.768 33.4908 212.656 33.0118 212.656 32.4653V31.5154C212.656 31.4158 212.62 31.3306 212.55 31.2599C212.479 31.1892 212.392 31.1538 212.289 31.1538C212.19 31.1538 212.105 31.1892 212.034 31.2599C211.963 31.3306 211.928 31.4158 211.928 31.5154V32.4943ZM215.38 34.1626C215.698 34.1626 215.978 34.0887 216.219 33.9408C216.463 33.793 216.652 33.5888 216.783 33.3285C216.918 33.0649 216.986 32.7611 216.986 32.4171V29.1913C216.986 28.8474 216.918 28.5452 216.783 28.2848C216.652 28.0212 216.463 27.8155 216.219 27.6676C215.978 27.5197 215.698 27.4458 215.38 27.4458C215.059 27.4458 214.777 27.5197 214.536 27.6676C214.295 27.8155 214.107 28.0212 213.972 28.2848C213.837 28.5452 213.77 28.8474 213.77 29.1913V32.4171C213.77 32.7611 213.837 33.0649 213.972 33.3285C214.107 33.5888 214.295 33.793 214.536 33.9408C214.777 34.0887 215.059 34.1626 215.38 34.1626Z" fill="#9E9E9E"/>
<path d="M20.2199 35.454C21.0843 35.454 21.8913 35.1728 22.5474 34.7042L25.0155 37.1723C25.13 37.2869 25.281 37.3441 25.4372 37.3441C25.7757 37.3441 26.0204 37.0838 26.0204 36.7505C26.0204 36.5943 25.9684 36.4485 25.8538 36.334L23.4013 33.8763C23.9168 33.1994 24.224 32.3611 24.224 31.4499C24.224 29.2474 22.4225 27.4458 20.2199 27.4458C18.0122 27.4458 16.2158 29.2474 16.2158 31.4499C16.2158 33.6524 18.0122 35.454 20.2199 35.454ZM20.2199 34.5897C18.4964 34.5897 17.0802 33.1682 17.0802 31.4499C17.0802 29.7316 18.4964 28.3101 20.2199 28.3101C21.9382 28.3101 23.3597 29.7316 23.3597 31.4499C23.3597 33.1682 21.9382 34.5897 20.2199 34.5897Z" fill="#9E9E9E"/>
<path d="M32.9639 36.2683C34.6405 36.2683 35.7392 35.3936 35.7392 33.9877V33.9825C35.7392 32.8995 35.1196 32.2694 33.5523 31.9206L32.7192 31.7331C31.6986 31.5092 31.2873 31.1031 31.2873 30.5043V30.4991C31.2873 29.7129 32.011 29.2703 32.9483 29.2651C33.9272 29.2598 34.552 29.7493 34.6561 30.4106L34.6666 30.4783H35.6038L35.5986 30.4054C35.5205 29.2859 34.4739 28.4007 32.9743 28.4007C31.4227 28.4007 30.3344 29.2807 30.3292 30.5251V30.5303C30.3292 31.6186 30.9801 32.3111 32.4849 32.6443L33.318 32.8266C34.3489 33.0557 34.7811 33.4826 34.7811 34.1075V34.1127C34.7811 34.8781 34.0365 35.404 33.016 35.404C31.9329 35.404 31.1519 34.9302 31.0842 34.1804L31.079 34.1231H30.1418L30.147 34.1804C30.2563 35.404 31.3185 36.2683 32.9639 36.2683ZM39.2218 36.1902C40.5444 36.1902 41.3462 35.4404 41.5389 34.6802L41.5493 34.6386H40.6433L40.6225 34.6854C40.4715 35.0239 40.0028 35.3832 39.2426 35.3832C38.2429 35.3832 37.6025 34.7063 37.5764 33.5451H41.617V33.1911C41.617 31.5144 40.6902 30.3793 39.1645 30.3793C37.6389 30.3793 36.6496 31.5665 36.6496 33.3004V33.3056C36.6496 35.0655 37.6181 36.1902 39.2218 36.1902ZM39.1593 31.1864C39.9872 31.1864 40.6016 31.7123 40.6954 32.8214H37.5921C37.691 31.754 38.3262 31.1864 39.1593 31.1864ZM44.3082 36.1902C45.0632 36.1902 45.6515 35.8622 46.0056 35.2634H46.0889V36.0913H46.9949V32.2486C46.9949 31.0823 46.2295 30.3793 44.8601 30.3793C43.6625 30.3793 42.8086 30.9729 42.6628 31.8529L42.6576 31.8841H43.5636L43.5688 31.8685C43.7146 31.4311 44.1572 31.1812 44.8289 31.1812C45.6672 31.1812 46.0889 31.5561 46.0889 32.2486V32.7589L44.48 32.8578C43.1731 32.9359 42.4337 33.5139 42.4337 34.5136V34.524C42.4337 35.5446 43.2408 36.1902 44.3082 36.1902ZM43.3605 34.5032V34.4928C43.3605 33.9356 43.7354 33.6336 44.5893 33.5816L46.0889 33.4879V33.9981C46.0889 34.8 45.4172 35.404 44.4956 35.404C43.8448 35.404 43.3605 35.0708 43.3605 34.5032ZM48.3948 36.0913H49.3008V32.6131C49.3008 31.7904 49.9152 31.2437 50.7796 31.2437C50.9774 31.2437 51.1493 31.2645 51.3367 31.2957V30.4158C51.2482 30.4002 51.0555 30.3793 50.8837 30.3793C50.1235 30.3793 49.5976 30.723 49.3841 31.3114H49.3008V30.4783H48.3948V36.0913ZM54.3403 36.1902C55.6889 36.1902 56.4439 35.4665 56.673 34.4511L56.6834 34.3939L55.7878 34.3991L55.7774 34.4303C55.5691 35.0551 55.0901 35.3884 54.3351 35.3884C53.3354 35.3884 52.6897 34.5605 52.6897 33.2692V33.2588C52.6897 31.9935 53.3249 31.1812 54.3351 31.1812C55.1422 31.1812 55.642 31.629 55.7826 32.1809L55.7878 32.1965H56.6886L56.6834 32.1653C56.5168 31.1656 55.6993 30.3793 54.3351 30.3793C52.7626 30.3793 51.7629 31.5144 51.7629 33.2588V33.2692C51.7629 35.0499 52.7678 36.1902 54.3403 36.1902ZM57.8073 36.0913H58.7133V32.7693C58.7133 31.7852 59.2809 31.1812 60.1764 31.1812C61.072 31.1812 61.4886 31.6654 61.4886 32.6756V36.0913H62.3946V32.4569C62.3946 31.1239 61.6916 30.3793 60.4316 30.3793C59.6037 30.3793 59.0778 30.7282 58.7966 31.3218H58.7133V28.2497H57.8073V36.0913Z" fill="#9E9E9E"/>
<rect x="0.688477" y="51.437" width="235.23" height="0.627279" fill="#020202"/>
<g opacity="0.6">
<rect x="8.54102" y="77" width="200" height="18" rx="2" fill="#BDBDBD"/>
</g>
<path d="M71.4382 82.3107V89H70.2851V82.3107H71.4382ZM75.4583 82.3107L72.7476 85.5313L71.2039 87.1669L71.0018 86.0229L72.1044 84.663L74.0524 82.3107H75.4583ZM74.2178 89L72.0171 85.8299L72.8119 85.0443L75.5869 89H74.2178ZM76.7182 82.3107L78.2711 85.5037L79.824 82.3107H81.1012L78.85 86.5374V89H77.6876V86.5374L75.4364 82.3107H76.7182ZM85.4944 86.8223H86.643C86.6062 87.2603 86.4837 87.6508 86.2755 87.9938C86.0672 88.3338 85.7747 88.6018 85.3979 88.7978C85.0212 88.9939 84.5633 89.0919 84.0242 89.0919C83.6107 89.0919 83.2386 89.0184 82.9078 88.8714C82.577 88.7213 82.2937 88.5099 82.0579 88.2373C81.822 87.9617 81.6413 87.6294 81.5157 87.2404C81.3932 86.8514 81.332 86.4165 81.332 85.9356V85.3797C81.332 84.8988 81.3947 84.4639 81.5203 84.0749C81.649 83.6859 81.8327 83.3536 82.0716 83.0779C82.3105 82.7992 82.5969 82.5863 82.9308 82.4393C83.2677 82.2923 83.646 82.2188 84.0656 82.2188C84.5985 82.2188 85.0488 82.3168 85.4163 82.5128C85.7839 82.7088 86.0687 82.9799 86.2709 83.326C86.4761 83.6721 86.6016 84.0688 86.6476 84.5159H85.499C85.4684 84.228 85.401 83.9815 85.2969 83.7762C85.1958 83.571 85.0457 83.4148 84.8466 83.3076C84.6475 83.1974 84.3872 83.1422 84.0656 83.1422C83.8022 83.1422 83.5725 83.1912 83.3764 83.2893C83.1804 83.3873 83.0165 83.5312 82.8848 83.7211C82.7531 83.911 82.6536 84.1453 82.5862 84.424C82.5219 84.6997 82.4897 85.0152 82.4897 85.3705V85.9356C82.4897 86.2725 82.5188 86.5788 82.577 86.8544C82.6383 87.127 82.7302 87.3614 82.8527 87.5574C82.9783 87.7534 83.1375 87.905 83.3305 88.0122C83.5235 88.1194 83.7547 88.173 84.0242 88.173C84.352 88.173 84.6169 88.121 84.8191 88.0168C85.0243 87.9127 85.1789 87.7611 85.2831 87.562C85.3903 87.3598 85.4607 87.1133 85.4944 86.8223ZM92.2732 86.5053H90.5319V85.591H92.2732C92.5764 85.591 92.8214 85.542 93.0083 85.444C93.1951 85.346 93.3314 85.2112 93.4172 85.0397C93.506 84.8651 93.5504 84.666 93.5504 84.4424C93.5504 84.2311 93.506 84.0335 93.4172 83.8498C93.3314 83.6629 93.1951 83.5128 93.0083 83.3995C92.8214 83.2862 92.5764 83.2295 92.2732 83.2295H90.8857V89H89.7325V82.3107H92.2732C92.7908 82.3107 93.2303 82.4025 93.5918 82.5863C93.9562 82.767 94.2334 83.0182 94.4233 83.3398C94.6132 83.6583 94.7082 84.0228 94.7082 84.4332C94.7082 84.8651 94.6132 85.2357 94.4233 85.5451C94.2334 85.8544 93.9562 86.0918 93.5918 86.2572C93.2303 86.4226 92.7908 86.5053 92.2732 86.5053ZM96.5929 84.9754V89H95.4857V84.0289H96.5424L96.5929 84.9754ZM98.1136 83.9968L98.1044 85.0259C98.0371 85.0137 97.9636 85.0045 97.8839 84.9983C97.8073 84.9922 97.7308 84.9892 97.6542 84.9892C97.4643 84.9892 97.2974 85.0167 97.1534 85.0719C97.0095 85.1239 96.8885 85.2005 96.7905 85.3016C96.6955 85.3996 96.622 85.519 96.5699 85.6599C96.5179 85.8008 96.4872 85.9586 96.4781 86.1331L96.2254 86.1515C96.2254 85.8391 96.256 85.5497 96.3173 85.2832C96.3785 85.0167 96.4704 84.7824 96.5929 84.5803C96.7185 84.3781 96.8747 84.2204 97.0615 84.107C97.2514 83.9937 97.4704 83.9371 97.7185 83.9371C97.7859 83.9371 97.8579 83.9432 97.9345 83.9554C98.0141 83.9677 98.0738 83.9815 98.1136 83.9968ZM98.326 86.5696V86.4639C98.326 86.1056 98.3781 85.7733 98.4823 85.467C98.5864 85.1576 98.7365 84.8896 98.9325 84.663C99.1316 84.4332 99.3735 84.2556 99.6584 84.13C99.9463 84.0014 100.271 83.9371 100.632 83.9371C100.997 83.9371 101.322 84.0014 101.606 84.13C101.894 84.2556 102.138 84.4332 102.337 84.663C102.536 84.8896 102.688 85.1576 102.792 85.467C102.896 85.7733 102.948 86.1056 102.948 86.4639V86.5696C102.948 86.928 102.896 87.2603 102.792 87.5666C102.688 87.8729 102.536 88.1409 102.337 88.3706C102.138 88.5972 101.896 88.7749 101.611 88.9035C101.326 89.0291 101.003 89.0919 100.642 89.0919C100.277 89.0919 99.9509 89.0291 99.663 88.9035C99.3781 88.7749 99.1362 88.5972 98.9371 88.3706C98.738 88.1409 98.5864 87.8729 98.4823 87.5666C98.3781 87.2603 98.326 86.928 98.326 86.5696ZM99.4333 86.4639V86.5696C99.4333 86.7932 99.4562 87.0045 99.5022 87.2036C99.5481 87.4027 99.6201 87.5773 99.7181 87.7274C99.8161 87.8775 99.9417 87.9954 100.095 88.0811C100.248 88.1669 100.43 88.2098 100.642 88.2098C100.847 88.2098 101.024 88.1669 101.175 88.0811C101.328 87.9954 101.453 87.8775 101.551 87.7274C101.649 87.5773 101.721 87.4027 101.767 87.2036C101.816 87.0045 101.841 86.7932 101.841 86.5696V86.4639C101.841 86.2434 101.816 86.0351 101.767 85.8391C101.721 85.64 101.648 85.4639 101.547 85.3108C101.449 85.1576 101.323 85.0382 101.17 84.9524C101.02 84.8636 100.841 84.8192 100.632 84.8192C100.424 84.8192 100.243 84.8636 100.09 84.9524C99.9402 85.0382 99.8161 85.1576 99.7181 85.3108C99.6201 85.4639 99.5481 85.64 99.5022 85.8391C99.4562 86.0351 99.4333 86.2434 99.4333 86.4639ZM104.833 85.0397V89H103.725V84.0289H104.768L104.833 85.0397ZM104.653 86.3307L104.277 86.3261C104.277 85.9831 104.32 85.666 104.405 85.3751C104.491 85.0841 104.617 84.8314 104.782 84.617C104.948 84.3995 105.153 84.2326 105.398 84.1162C105.646 83.9968 105.932 83.9371 106.257 83.9371C106.484 83.9371 106.69 83.9707 106.877 84.0381C107.067 84.1024 107.231 84.2051 107.369 84.3459C107.51 84.4868 107.617 84.6675 107.69 84.8881C107.767 85.1086 107.805 85.3751 107.805 85.6875V89H106.698V85.784C106.698 85.542 106.661 85.3521 106.588 85.2143C106.517 85.0764 106.415 84.9784 106.28 84.9202C106.148 84.859 105.99 84.8284 105.807 84.8284C105.598 84.8284 105.421 84.8682 105.274 84.9478C105.13 85.0274 105.012 85.1362 104.92 85.274C104.828 85.4118 104.761 85.5711 104.718 85.7518C104.675 85.9325 104.653 86.1255 104.653 86.3307ZM107.736 86.0367L107.217 86.1515C107.217 85.8514 107.258 85.568 107.341 85.3016C107.427 85.032 107.551 84.7962 107.713 84.594C107.879 84.3888 108.082 84.228 108.324 84.1116C108.566 83.9952 108.844 83.9371 109.156 83.9371C109.41 83.9371 109.637 83.9723 109.836 84.0427C110.038 84.1101 110.21 84.2173 110.35 84.3643C110.491 84.5113 110.599 84.7028 110.672 84.9386C110.746 85.1714 110.782 85.4532 110.782 85.784V89H109.671V85.7794C109.671 85.5282 109.634 85.3337 109.56 85.1959C109.49 85.0581 109.389 84.9631 109.257 84.911C109.125 84.8559 108.968 84.8284 108.784 84.8284C108.612 84.8284 108.461 84.8605 108.329 84.9248C108.2 84.9861 108.092 85.0734 108.003 85.1867C107.914 85.297 107.847 85.4241 107.801 85.568C107.758 85.712 107.736 85.8682 107.736 86.0367ZM112.883 84.9846V90.9112H111.776V84.0289H112.796L112.883 84.9846ZM116.122 86.4685V86.565C116.122 86.9264 116.079 87.2618 115.993 87.5712C115.911 87.8775 115.787 88.1455 115.621 88.3752C115.459 88.6018 115.258 88.7779 115.019 88.9035C114.78 89.0291 114.505 89.0919 114.192 89.0919C113.883 89.0919 113.612 89.0352 113.379 88.9219C113.149 88.8055 112.955 88.6416 112.796 88.4303C112.636 88.219 112.508 87.9709 112.41 87.686C112.315 87.3981 112.247 87.0826 112.208 86.7396V86.3675C112.247 86.003 112.315 85.6722 112.41 85.3751C112.508 85.078 112.636 84.8222 112.796 84.6078C112.955 84.3934 113.149 84.228 113.379 84.1116C113.609 83.9952 113.877 83.9371 114.183 83.9371C114.496 83.9371 114.773 83.9983 115.015 84.1208C115.257 84.2403 115.46 84.4118 115.626 84.6354C115.791 84.8559 115.915 85.1224 115.998 85.4348C116.081 85.7442 116.122 86.0887 116.122 86.4685ZM115.015 86.565V86.4685C115.015 86.2388 114.993 86.0259 114.95 85.8299C114.908 85.6308 114.84 85.4562 114.748 85.3062C114.656 85.1561 114.538 85.0397 114.395 84.957C114.254 84.8712 114.084 84.8284 113.885 84.8284C113.689 84.8284 113.52 84.862 113.379 84.9294C113.238 84.9937 113.12 85.0841 113.025 85.2005C112.93 85.3169 112.857 85.4532 112.805 85.6094C112.753 85.7625 112.716 85.9295 112.695 86.1102V87.0015C112.731 87.222 112.794 87.4241 112.883 87.6079C112.972 87.7917 113.097 87.9387 113.26 88.049C113.425 88.1562 113.636 88.2098 113.894 88.2098C114.093 88.2098 114.263 88.1669 114.404 88.0811C114.545 87.9954 114.659 87.8775 114.748 87.7274C114.84 87.5742 114.908 87.3981 114.95 87.199C114.993 86.9999 115.015 86.7886 115.015 86.565ZM119.192 84.0289V84.8375H116.39V84.0289H119.192ZM117.198 82.8114H118.305V87.6263C118.305 87.7794 118.327 87.8974 118.37 87.9801C118.416 88.0597 118.478 88.1133 118.558 88.1409C118.638 88.1684 118.731 88.1822 118.838 88.1822C118.915 88.1822 118.988 88.1776 119.059 88.1684C119.129 88.1592 119.186 88.15 119.229 88.1409L119.233 88.9862C119.142 89.0138 119.034 89.0383 118.912 89.0597C118.792 89.0812 118.655 89.0919 118.498 89.0919C118.244 89.0919 118.019 89.0475 117.823 88.9587C117.627 88.8668 117.474 88.7182 117.364 88.513C117.253 88.3078 117.198 88.0352 117.198 87.6952V82.8114Z" fill="black"/>
<g clip-path="url(#clip3_687_3143)">
<rect width="235.23" height="33.2458" transform="translate(0.688477 363.821)" fill="white"/>
<rect x="23.8978" y="370.094" width="11.291" height="11.291" rx="3.13639" stroke="#424242" stroke-width="1.25456"/>
<path d="M22.1751 393.031V388.611H22.8612V392.44H24.9317V393.031H22.1751ZM26.4872 393.086C25.8531 393.086 25.3845 392.7 25.3845 392.097V392.09C25.3845 391.496 25.8317 391.15 26.625 391.101L27.5255 391.049V390.755C27.5255 390.391 27.2958 390.188 26.8455 390.188C26.478 390.188 26.236 390.323 26.1564 390.559L26.1533 390.571H25.5132L25.5162 390.55C25.5959 390.005 26.1196 389.64 26.8761 389.64C27.7123 389.64 28.184 390.057 28.184 390.755V393.031H27.5255V392.559H27.4734C27.2774 392.896 26.9282 393.086 26.4872 393.086ZM26.0461 392.069C26.0461 392.375 26.3065 392.556 26.6648 392.556C27.161 392.556 27.5255 392.231 27.5255 391.803V391.518L26.7138 391.57C26.2544 391.597 26.0461 391.763 26.0461 392.063V392.069ZM30.738 393.086C30.2724 393.086 29.9079 392.871 29.715 392.507H29.666V393.031H29.0013V388.4H29.666V390.231H29.715C29.8926 389.873 30.2816 389.646 30.738 389.646C31.5833 389.646 32.1163 390.311 32.1163 391.365V391.371C32.1163 392.415 31.5772 393.086 30.738 393.086ZM30.5511 392.519C31.1055 392.519 31.4394 392.084 31.4394 391.371V391.365C31.4394 390.651 31.1055 390.216 30.5511 390.216C29.9968 390.216 29.6537 390.654 29.6537 391.365V391.371C29.6537 392.081 29.9968 392.519 30.5511 392.519ZM34.1557 393.095C33.1817 393.095 32.5936 392.43 32.5936 391.377V391.374C32.5936 390.335 33.194 389.64 34.122 389.64C35.0501 389.64 35.6198 390.311 35.6198 391.309V391.542H33.2613C33.2736 392.179 33.6228 392.55 34.171 392.55C34.5968 392.55 34.851 392.339 34.9306 392.167L34.9429 392.143L35.583 392.139L35.5769 392.167C35.4666 392.605 35.0072 393.095 34.1557 393.095ZM34.1251 390.185C33.6718 390.185 33.3287 390.495 33.2705 391.067H34.9612C34.9092 390.473 34.5753 390.185 34.1251 390.185ZM36.2901 393.031V388.4H36.9547V393.031H36.2901Z" fill="#212121"/>
<rect x="82.8621" y="370.094" width="11.291" height="11.291" rx="3.13639" stroke="#424242" stroke-width="1.25456"/>
<path d="M81.139 393.031V388.611H81.825V392.44H83.8956V393.031H81.139ZM85.451 393.086C84.817 393.086 84.3484 392.7 84.3484 392.097V392.09C84.3484 391.496 84.7956 391.15 85.5889 391.101L86.4893 391.049V390.755C86.4893 390.391 86.2596 390.188 85.8094 390.188C85.4418 390.188 85.1999 390.323 85.1202 390.559L85.1172 390.571H84.477L84.4801 390.55C84.5597 390.005 85.0835 389.64 85.84 389.64C86.6762 389.64 87.1479 390.057 87.1479 390.755V393.031H86.4893V392.559H86.4373C86.2413 392.896 85.8921 393.086 85.451 393.086ZM85.01 392.069C85.01 392.375 85.2703 392.556 85.6287 392.556C86.1249 392.556 86.4893 392.231 86.4893 391.803V391.518L85.6777 391.57C85.2183 391.597 85.01 391.763 85.01 392.063V392.069ZM89.7018 393.086C89.2363 393.086 88.8718 392.871 88.6788 392.507H88.6298V393.031H87.9652V388.4H88.6298V390.231H88.6788C88.8565 389.873 89.2455 389.646 89.7018 389.646C90.5472 389.646 91.0801 390.311 91.0801 391.365V391.371C91.0801 392.415 90.5411 393.086 89.7018 393.086ZM89.515 392.519C90.0694 392.519 90.4033 392.084 90.4033 391.371V391.365C90.4033 390.651 90.0694 390.216 89.515 390.216C88.9606 390.216 88.6176 390.654 88.6176 391.365V391.371C88.6176 392.081 88.9606 392.519 89.515 392.519ZM93.1196 393.095C92.1456 393.095 91.5575 392.43 91.5575 391.377V391.374C91.5575 390.335 92.1578 389.64 93.0859 389.64C94.0139 389.64 94.5836 390.311 94.5836 391.309V391.542H92.2252C92.2375 392.179 92.5866 392.55 93.1349 392.55C93.5606 392.55 93.8148 392.339 93.8945 392.167L93.9067 392.143L94.5469 392.139L94.5407 392.167C94.4305 392.605 93.971 393.095 93.1196 393.095ZM93.0889 390.185C92.6356 390.185 92.2926 390.495 92.2344 391.067H93.9251C93.873 390.473 93.5392 390.185 93.0889 390.185ZM95.2539 393.031V388.4H95.9186V393.031H95.2539Z" fill="#212121"/>
<rect x="141.826" y="370.094" width="11.291" height="11.291" rx="3.13639" stroke="#424242" stroke-width="1.25456"/>
<path d="M140.103 393.031V388.611H140.789V392.44H142.86V393.031H140.103ZM144.415 393.086C143.781 393.086 143.313 392.7 143.313 392.097V392.09C143.313 391.496 143.76 391.15 144.553 391.101L145.454 391.049V390.755C145.454 390.391 145.224 390.188 144.774 390.188C144.406 390.188 144.164 390.323 144.085 390.559L144.082 390.571H143.441L143.444 390.55C143.524 390.005 144.048 389.64 144.804 389.64C145.641 389.64 146.112 390.057 146.112 390.755V393.031H145.454V392.559H145.402C145.206 392.896 144.856 393.086 144.415 393.086ZM143.974 392.069C143.974 392.375 144.235 392.556 144.593 392.556C145.089 392.556 145.454 392.231 145.454 391.803V391.518L144.642 391.57C144.183 391.597 143.974 391.763 143.974 392.063V392.069ZM148.666 393.086C148.201 393.086 147.836 392.871 147.643 392.507H147.594V393.031H146.93V388.4H147.594V390.231H147.643C147.821 389.873 148.21 389.646 148.666 389.646C149.512 389.646 150.045 390.311 150.045 391.365V391.371C150.045 392.415 149.505 393.086 148.666 393.086ZM148.479 392.519C149.034 392.519 149.368 392.084 149.368 391.371V391.365C149.368 390.651 149.034 390.216 148.479 390.216C147.925 390.216 147.582 390.654 147.582 391.365V391.371C147.582 392.081 147.925 392.519 148.479 392.519ZM152.084 393.095C151.11 393.095 150.522 392.43 150.522 391.377V391.374C150.522 390.335 151.122 389.64 152.05 389.64C152.978 389.64 153.548 390.311 153.548 391.309V391.542H151.19C151.202 392.179 151.551 392.55 152.099 392.55C152.525 392.55 152.779 392.339 152.859 392.167L152.871 392.143L153.511 392.139L153.505 392.167C153.395 392.605 152.935 393.095 152.084 393.095ZM152.053 390.185C151.6 390.185 151.257 390.495 151.199 391.067H152.889C152.837 390.473 152.504 390.185 152.053 390.185ZM154.218 393.031V388.4H154.883V393.031H154.218Z" fill="#212121"/>
<rect x="200.79" y="370.094" width="11.291" height="11.291" rx="3.13639" stroke="#424242" stroke-width="1.25456"/>
<path d="M199.068 393.031V388.611H199.754V392.44H201.824V393.031H199.068ZM203.38 393.086C202.746 393.086 202.277 392.7 202.277 392.097V392.09C202.277 391.496 202.724 391.15 203.518 391.101L204.418 391.049V390.755C204.418 390.391 204.188 390.188 203.738 390.188C203.371 390.188 203.129 390.323 203.049 390.559L203.046 390.571H202.406L202.409 390.55C202.488 390.005 203.012 389.64 203.769 389.64C204.605 389.64 205.077 390.057 205.077 390.755V393.031H204.418V392.559H204.366C204.17 392.896 203.821 393.086 203.38 393.086ZM202.939 392.069C202.939 392.375 203.199 392.556 203.557 392.556C204.054 392.556 204.418 392.231 204.418 391.803V391.518L203.606 391.57C203.147 391.597 202.939 391.763 202.939 392.063V392.069ZM207.631 393.086C207.165 393.086 206.801 392.871 206.608 392.507H206.559V393.031H205.894V388.4H206.559V390.231H206.608C206.785 389.873 207.174 389.646 207.631 389.646C208.476 389.646 209.009 390.311 209.009 391.365V391.371C209.009 392.415 208.47 393.086 207.631 393.086ZM207.444 392.519C207.998 392.519 208.332 392.084 208.332 391.371V391.365C208.332 390.651 207.998 390.216 207.444 390.216C206.889 390.216 206.546 390.654 206.546 391.365V391.371C206.546 392.081 206.889 392.519 207.444 392.519ZM211.048 393.095C210.074 393.095 209.486 392.43 209.486 391.377V391.374C209.486 390.335 210.087 389.64 211.015 389.64C211.943 389.64 212.512 390.311 212.512 391.309V391.542H210.154C210.166 392.179 210.515 392.55 211.064 392.55C211.489 392.55 211.744 392.339 211.823 392.167L211.835 392.143L212.476 392.139L212.469 392.167C212.359 392.605 211.9 393.095 211.048 393.095ZM211.018 390.185C210.564 390.185 210.221 390.495 210.163 391.067H211.854C211.802 390.473 211.468 390.185 211.018 390.185ZM213.183 393.031V388.4H213.847V393.031H213.183Z" fill="#212121"/>
<rect x="0.688477" y="363.821" width="235.23" height="0.627279" fill="#020202"/>
</g>
<rect width="235.23" height="21.3275" transform="translate(0.688477 397.067)" fill="white"/>
<rect x="76.5894" y="410.24" width="84.0554" height="3.13639" rx="1.5682" fill="#020202"/>
<path d="M10.4113 115.733H197.968V303.289H10.4113L10.4113 115.733Z" stroke="#020202" stroke-width="0.627279"/>
<path d="M208.004 115.733H395.56V303.289H208.004V115.733Z" stroke="#020202" stroke-width="0.627279"/>
</g>
<rect x="1.00212" y="0.313639" width="234.602" height="417.768" rx="14.6864" stroke="#020202" stroke-width="0.627279"/>
<defs>
<clipPath id="clip0_687_3143">
<rect x="0.688477" width="235.23" height="418.395" rx="15" fill="white"/>
</clipPath>
<clipPath id="clip1_687_3143">
<rect width="235.23" height="12.5456" fill="white" transform="translate(0.688477)"/>
</clipPath>
<clipPath id="clip2_687_3143">
<rect width="15.682" height="10.0365" fill="white" transform="translate(217.497 0.981445)"/>
</clipPath>
<clipPath id="clip3_687_3143">
<rect width="235.23" height="33.2458" fill="white" transform="translate(0.688477 363.821)"/>
</clipPath>
</defs>
</svg>
