<svg width="236" height="419" viewBox="0 0 236 419" fill="none" xmlns="http://www.w3.org/2000/svg">
<g clip-path="url(#clip0_687_3189)">
<rect width="235.23" height="418.395" rx="15" fill="white"/>
<g clip-path="url(#clip1_687_3189)">
<rect width="235.23" height="12.5456" fill="white"/>
<path d="M105.134 3.17288C106.266 3.17288 107.251 3.9778 107.251 5.88904V5.8964C107.251 7.68267 106.446 8.7412 105.112 8.7412C104.138 8.7412 103.41 8.16416 103.241 7.35188L103.234 7.31145H104.167L104.178 7.3482C104.318 7.71942 104.645 7.96201 105.112 7.96201C105.953 7.96201 106.31 7.1387 106.35 6.12427C106.35 6.08384 106.354 6.04341 106.354 6.00298H106.281C106.086 6.42199 105.623 6.79321 104.895 6.79321C103.877 6.79321 103.164 6.05077 103.164 5.04369V5.03634C103.164 3.95943 103.983 3.17288 105.134 3.17288ZM105.13 6.06547C105.729 6.06547 106.189 5.63176 106.189 5.03266V5.02531C106.189 4.41886 105.729 3.94473 105.141 3.94473C104.557 3.94473 104.09 4.41151 104.09 5.00326V5.01061C104.09 5.62441 104.527 6.06547 105.13 6.06547ZM108.92 5.17233C108.585 5.17233 108.335 4.91505 108.335 4.59161C108.335 4.26449 108.585 4.01088 108.92 4.01088C109.258 4.01088 109.504 4.26449 109.504 4.59161C109.504 4.91505 109.258 5.17233 108.92 5.17233ZM108.92 7.89952C108.585 7.89952 108.335 7.64592 108.335 7.3188C108.335 6.99168 108.585 6.73808 108.92 6.73808C109.258 6.73808 109.504 6.99168 109.504 7.3188C109.504 7.64592 109.258 7.89952 108.92 7.89952ZM113.161 8.60889V7.59078H110.566V6.81526C111.253 5.62074 112.007 4.40048 112.727 3.30519H114.069V6.80791H114.782V7.59078H114.069V8.60889H113.161ZM111.448 6.82996H113.176V4.06234H113.121C112.577 4.89299 111.963 5.87434 111.448 6.77483V6.82996ZM116.98 8.60889V4.23876H116.917L115.598 5.17233V4.27919L116.984 3.30519H117.928V8.60889H116.98ZM121.115 8.60889L122.997 3.30519H124.066L125.948 8.60889H124.956L124.511 7.23794H122.548L122.107 8.60889H121.115ZM123.5 4.29022L122.787 6.50652H124.276L123.563 4.29022H123.5ZM126.86 8.60889V3.30519H127.947L129.543 7.38496H129.605L131.197 3.30519H132.284V8.60889H131.432V4.83786H131.366L129.895 8.60889H129.249L127.778 4.83786H127.716V8.60889H126.86Z" fill="#020202"/>
<path fill-rule="evenodd" clip-rule="evenodd" d="M13.1729 2.86328H12.5457C12.1992 2.86328 11.9184 3.14412 11.9184 3.49056V8.92698C11.9184 9.27341 12.1992 9.55426 12.5457 9.55426H13.1729C13.5194 9.55426 13.8002 9.27341 13.8002 8.92698V3.49056C13.8002 3.14412 13.5194 2.86328 13.1729 2.86328ZM9.6183 4.32703H10.2456C10.592 4.32703 10.8729 4.60788 10.8729 4.95431V8.92708C10.8729 9.27352 10.592 9.55436 10.2456 9.55436H9.6183C9.27187 9.55436 8.99103 9.27352 8.99103 8.92708V4.95431C8.99103 4.60788 9.27187 4.32703 9.6183 4.32703ZM7.31838 5.79048H6.69111C6.34467 5.79048 6.06383 6.07132 6.06383 6.41776V8.92688C6.06383 9.27331 6.34467 9.55415 6.69111 9.55415H7.31838C7.66482 9.55415 7.94566 9.27331 7.94566 8.92688V6.41776C7.94566 6.07132 7.66482 5.79048 7.31838 5.79048ZM4.39103 7.04504H3.76375C3.41732 7.04504 3.13647 7.32588 3.13647 7.67232V8.92687C3.13647 9.27331 3.41732 9.55415 3.76375 9.55415H4.39103C4.73747 9.55415 5.01831 9.27331 5.01831 8.92687V7.67232C5.01831 7.32588 4.73747 7.04504 4.39103 7.04504Z" fill="#020202"/>
<g clip-path="url(#clip2_687_3189)">
<path opacity="0.35" d="M217.75 3.90907C217.75 3.15846 218.358 2.54997 219.109 2.54997L229.564 2.54997C230.314 2.54997 230.923 3.15846 230.923 3.90907V7.67274C230.923 8.42336 230.314 9.03185 229.564 9.03185H219.109C218.358 9.03185 217.75 8.42336 217.75 7.67274V3.90907Z" stroke="#020202" stroke-width="0.627279"/>
<path opacity="0.4" d="M231.864 4.53613V7.04525C232.368 6.83274 232.697 6.33839 232.697 5.79069C232.697 5.24299 232.368 4.74864 231.864 4.53613Z" fill="#020202"/>
<path d="M218.691 4.32709C218.691 3.86518 219.065 3.49072 219.527 3.49072L229.145 3.49072C229.607 3.49072 229.982 3.86518 229.982 4.32709V7.2544C229.982 7.71631 229.607 8.09077 229.145 8.09077H219.527C219.065 8.09077 218.691 7.71631 218.691 7.2544V4.32709Z" fill="#020202"/>
</g>
</g>
<rect y="18.8184" width="235.23" height="0.627279" fill="#020202"/>
<path d="M117.615 164.197L167.615 254.197H67.6147L117.615 164.197Z" fill="#BDBDBD"/>
</g>
<rect x="0.313639" y="0.313639" width="234.602" height="417.768" rx="14.6864" stroke="#020202" stroke-width="0.627279"/>
<defs>
<clipPath id="clip0_687_3189">
<rect width="235.23" height="418.395" rx="15" fill="white"/>
</clipPath>
<clipPath id="clip1_687_3189">
<rect width="235.23" height="12.5456" fill="white"/>
</clipPath>
<clipPath id="clip2_687_3189">
<rect width="15.682" height="10.0365" fill="white" transform="translate(216.809 0.981445)"/>
</clipPath>
</defs>
</svg>
