<svg width="236" height="419" viewBox="0 0 236 419" fill="none" xmlns="http://www.w3.org/2000/svg">
<g clip-path="url(#clip0_687_3163)">
<rect x="0.229492" width="235.23" height="418.395" rx="15" fill="white"/>
<g clip-path="url(#clip1_687_3163)">
<rect width="235.23" height="12.5456" transform="translate(0.229492)" fill="white"/>
<path d="M105.363 3.17288C106.495 3.17288 107.48 3.9778 107.48 5.88904V5.8964C107.48 7.68267 106.675 8.7412 105.341 8.7412C104.367 8.7412 103.64 8.16416 103.47 7.35188L103.463 7.31145H104.397L104.408 7.3482C104.547 7.71942 104.875 7.96201 105.341 7.96201C106.183 7.96201 106.539 7.1387 106.58 6.12427C106.58 6.08384 106.584 6.04341 106.584 6.00298H106.51C106.315 6.42199 105.852 6.79321 105.124 6.79321C104.106 6.79321 103.393 6.05077 103.393 5.04369V5.03634C103.393 3.95943 104.213 3.17288 105.363 3.17288ZM105.36 6.06547C105.959 6.06547 106.418 5.63176 106.418 5.03266V5.02531C106.418 4.41886 105.959 3.94473 105.371 3.94473C104.786 3.94473 104.32 4.41151 104.32 5.00326V5.01061C104.32 5.62441 104.757 6.06547 105.36 6.06547ZM109.149 5.17233C108.815 5.17233 108.565 4.91505 108.565 4.59161C108.565 4.26449 108.815 4.01088 109.149 4.01088C109.487 4.01088 109.733 4.26449 109.733 4.59161C109.733 4.91505 109.487 5.17233 109.149 5.17233ZM109.149 7.89952C108.815 7.89952 108.565 7.64592 108.565 7.3188C108.565 6.99168 108.815 6.73808 109.149 6.73808C109.487 6.73808 109.733 6.99168 109.733 7.3188C109.733 7.64592 109.487 7.89952 109.149 7.89952ZM113.391 8.60889V7.59078H110.796V6.81526C111.483 5.62074 112.236 4.40048 112.957 3.30519H114.298V6.80791H115.011V7.59078H114.298V8.60889H113.391ZM111.678 6.82996H113.405V4.06234H113.35C112.806 4.89299 112.192 5.87434 111.678 6.77483V6.82996ZM117.209 8.60889V4.23876H117.147L115.827 5.17233V4.27919L117.213 3.30519H118.158V8.60889H117.209ZM121.344 8.60889L123.226 3.30519H124.296L126.177 8.60889H125.185L124.74 7.23794H122.778L122.337 8.60889H121.344ZM123.73 4.29022L123.017 6.50652H124.505L123.792 4.29022H123.73ZM127.089 8.60889V3.30519H128.177L129.772 7.38496H129.835L131.426 3.30519H132.514V8.60889H131.661V4.83786H131.595L130.125 8.60889H129.478L128.008 4.83786H127.945V8.60889H127.089Z" fill="#020202"/>
<path fill-rule="evenodd" clip-rule="evenodd" d="M13.4024 2.86328H12.7752C12.4287 2.86328 12.1479 3.14412 12.1479 3.49056V8.92698C12.1479 9.27341 12.4287 9.55426 12.7752 9.55426H13.4024C13.7489 9.55426 14.0297 9.27341 14.0297 8.92698V3.49056C14.0297 3.14412 13.7489 2.86328 13.4024 2.86328ZM9.8478 4.32703H10.4751C10.8215 4.32703 11.1024 4.60788 11.1024 4.95431V8.92708C11.1024 9.27352 10.8215 9.55436 10.4751 9.55436H9.8478C9.50136 9.55436 9.22052 9.27352 9.22052 8.92708V4.95431C9.22052 4.60788 9.50136 4.32703 9.8478 4.32703ZM7.54788 5.79048H6.9206C6.57416 5.79048 6.29332 6.07132 6.29332 6.41776V8.92688C6.29332 9.27331 6.57416 9.55415 6.9206 9.55415H7.54788C7.89431 9.55415 8.17516 9.27331 8.17516 8.92688V6.41776C8.17516 6.07132 7.89431 5.79048 7.54788 5.79048ZM4.62052 7.04504H3.99325C3.64681 7.04504 3.36597 7.32588 3.36597 7.67232V8.92687C3.36597 9.27331 3.64681 9.55415 3.99325 9.55415H4.62052C4.96696 9.55415 5.2478 9.27331 5.2478 8.92687V7.67232C5.2478 7.32588 4.96696 7.04504 4.62052 7.04504Z" fill="#020202"/>
<g clip-path="url(#clip2_687_3163)">
<path opacity="0.35" d="M217.979 3.90907C217.979 3.15846 218.588 2.54997 219.339 2.54997L229.793 2.54997C230.544 2.54997 231.152 3.15846 231.152 3.90907V7.67274C231.152 8.42336 230.544 9.03185 229.793 9.03185H219.339C218.588 9.03185 217.979 8.42336 217.979 7.67274V3.90907Z" stroke="#020202" stroke-width="0.627279"/>
<path opacity="0.4" d="M232.093 4.53613V7.04525C232.598 6.83274 232.926 6.33839 232.926 5.79069C232.926 5.24299 232.598 4.74864 232.093 4.53613Z" fill="#020202"/>
<path d="M218.92 4.32709C218.92 3.86518 219.295 3.49072 219.757 3.49072L229.375 3.49072C229.837 3.49072 230.211 3.86518 230.211 4.32709V7.2544C230.211 7.71631 229.837 8.09077 229.375 8.09077H219.757C219.295 8.09077 218.92 7.71631 218.92 7.2544V4.32709Z" fill="#020202"/>
</g>
</g>
<rect x="0.229492" y="18.8184" width="235.23" height="0.627279" fill="#020202"/>
<path d="M20.9523 55.7331L208.509 55.7331V342.254H20.9523L20.9523 55.7331Z" stroke="#020202" stroke-width="0.627279"/>
<path d="M218.545 55.7331L406.101 55.7331V342.254H218.545V55.7331Z" stroke="#020202" stroke-width="0.627279"/>
<g clip-path="url(#clip3_687_3163)">
<path d="M100.729 351.5H115.729V366.5H100.729V351.5Z" fill="white" stroke="#F5F5F5"/>
<circle cx="108.229" cy="359" r="3.5" fill="black" stroke="#212121"/>
</g>
<rect x="100.729" y="351.5" width="15" height="15" rx="1.5" stroke="#F5F5F5"/>
<g clip-path="url(#clip4_687_3163)">
<path d="M120.729 351.5H135.729V366.5H120.729V351.5Z" fill="white" stroke="#F5F5F5"/>
<circle cx="128.229" cy="359" r="3.5" fill="white" stroke="#212121"/>
</g>
<rect x="120.729" y="351.5" width="15" height="15" rx="1.5" stroke="#F5F5F5"/>
<g clip-path="url(#clip5_687_3163)">
<path d="M140.729 351.5H155.729V366.5H140.729V351.5Z" fill="white" stroke="#F5F5F5"/>
<circle cx="148.229" cy="359" r="3.5" fill="white" stroke="#212121"/>
</g>
<rect x="140.729" y="351.5" width="15" height="15" rx="1.5" stroke="#F5F5F5"/>
</g>
<rect x="0.543132" y="0.313639" width="234.602" height="417.768" rx="14.6864" stroke="#020202" stroke-width="0.627279"/>
<defs>
<clipPath id="clip0_687_3163">
<rect x="0.229492" width="235.23" height="418.395" rx="15" fill="white"/>
</clipPath>
<clipPath id="clip1_687_3163">
<rect width="235.23" height="12.5456" fill="white" transform="translate(0.229492)"/>
</clipPath>
<clipPath id="clip2_687_3163">
<rect width="15.682" height="10.0365" fill="white" transform="translate(217.038 0.981445)"/>
</clipPath>
<clipPath id="clip3_687_3163">
<rect x="100.229" y="351" width="16" height="16" rx="2" fill="white"/>
</clipPath>
<clipPath id="clip4_687_3163">
<rect x="120.229" y="351" width="16" height="16" rx="2" fill="white"/>
</clipPath>
<clipPath id="clip5_687_3163">
<rect x="140.229" y="351" width="16" height="16" rx="2" fill="white"/>
</clipPath>
</defs>
</svg>
