<svg width="236" height="419" viewBox="0 0 236 419" fill="none" xmlns="http://www.w3.org/2000/svg">
<g clip-path="url(#clip0_687_3176)">
<rect x="0.458984" width="235.23" height="418.395" rx="15" fill="white"/>
<g clip-path="url(#clip1_687_3176)">
<rect width="235.23" height="12.5456" transform="translate(0.458984)" fill="white"/>
<path d="M105.593 3.17288C106.725 3.17288 107.71 3.9778 107.71 5.88904V5.8964C107.71 7.68267 106.905 8.7412 105.571 8.7412C104.597 8.7412 103.869 8.16416 103.7 7.35188L103.693 7.31145H104.626L104.637 7.3482C104.777 7.71942 105.104 7.96201 105.571 7.96201C106.412 7.96201 106.769 7.1387 106.809 6.12427C106.809 6.08384 106.813 6.04341 106.813 6.00298H106.74C106.545 6.42199 106.082 6.79321 105.354 6.79321C104.336 6.79321 103.623 6.05077 103.623 5.04369V5.03634C103.623 3.95943 104.442 3.17288 105.593 3.17288ZM105.589 6.06547C106.188 6.06547 106.648 5.63176 106.648 5.03266V5.02531C106.648 4.41886 106.188 3.94473 105.6 3.94473C105.016 3.94473 104.549 4.41151 104.549 5.00326V5.01061C104.549 5.62441 104.986 6.06547 105.589 6.06547ZM109.379 5.17233C109.044 5.17233 108.794 4.91505 108.794 4.59161C108.794 4.26449 109.044 4.01088 109.379 4.01088C109.717 4.01088 109.963 4.26449 109.963 4.59161C109.963 4.91505 109.717 5.17233 109.379 5.17233ZM109.379 7.89952C109.044 7.89952 108.794 7.64592 108.794 7.3188C108.794 6.99168 109.044 6.73808 109.379 6.73808C109.717 6.73808 109.963 6.99168 109.963 7.3188C109.963 7.64592 109.717 7.89952 109.379 7.89952ZM113.62 8.60889V7.59078H111.025V6.81526C111.712 5.62074 112.466 4.40048 113.186 3.30519H114.528V6.80791H115.241V7.59078H114.528V8.60889H113.62ZM111.907 6.82996H113.635V4.06234H113.58C113.036 4.89299 112.422 5.87434 111.907 6.77483V6.82996ZM117.439 8.60889V4.23876H117.376L116.057 5.17233V4.27919L117.443 3.30519H118.387V8.60889H117.439ZM121.574 8.60889L123.456 3.30519H124.525L126.407 8.60889H125.415L124.97 7.23794H123.007L122.566 8.60889H121.574ZM123.959 4.29022L123.246 6.50652H124.735L124.022 4.29022H123.959ZM127.318 8.60889V3.30519H128.406L130.002 7.38496H130.064L131.656 3.30519H132.743V8.60889H131.891V4.83786H131.825L130.354 8.60889H129.708L128.237 4.83786H128.175V8.60889H127.318Z" fill="#020202"/>
<path fill-rule="evenodd" clip-rule="evenodd" d="M13.6319 2.86328H13.0046C12.6582 2.86328 12.3774 3.14412 12.3774 3.49056V8.92698C12.3774 9.27341 12.6582 9.55426 13.0046 9.55426H13.6319C13.9784 9.55426 14.2592 9.27341 14.2592 8.92698V3.49056C14.2592 3.14412 13.9784 2.86328 13.6319 2.86328ZM10.0773 4.32703H10.7046C11.051 4.32703 11.3318 4.60788 11.3318 4.95431V8.92708C11.3318 9.27352 11.051 9.55436 10.7046 9.55436H10.0773C9.73085 9.55436 9.45001 9.27352 9.45001 8.92708V4.95431C9.45001 4.60788 9.73085 4.32703 10.0773 4.32703ZM7.77737 5.79048H7.15009C6.80365 5.79048 6.52281 6.07132 6.52281 6.41776V8.92688C6.52281 9.27331 6.80365 9.55415 7.15009 9.55415H7.77737C8.12381 9.55415 8.40465 9.27331 8.40465 8.92688V6.41776C8.40465 6.07132 8.12381 5.79048 7.77737 5.79048ZM4.85002 7.04504H4.22274C3.8763 7.04504 3.59546 7.32588 3.59546 7.67232V8.92687C3.59546 9.27331 3.8763 9.55415 4.22274 9.55415H4.85002C5.19645 9.55415 5.4773 9.27331 5.4773 8.92687V7.67232C5.4773 7.32588 5.19645 7.04504 4.85002 7.04504Z" fill="#020202"/>
<g clip-path="url(#clip2_687_3176)">
<path opacity="0.35" d="M218.209 3.90907C218.209 3.15846 218.817 2.54997 219.568 2.54997L230.022 2.54997C230.773 2.54997 231.382 3.15846 231.382 3.90907V7.67274C231.382 8.42336 230.773 9.03185 230.022 9.03185H219.568C218.817 9.03185 218.209 8.42336 218.209 7.67274V3.90907Z" stroke="#020202" stroke-width="0.627279"/>
<path opacity="0.4" d="M232.323 4.53613V7.04525C232.827 6.83274 233.156 6.33839 233.156 5.79069C233.156 5.24299 232.827 4.74864 232.323 4.53613Z" fill="#020202"/>
<path d="M219.15 4.32709C219.15 3.86518 219.524 3.49072 219.986 3.49072L229.604 3.49072C230.066 3.49072 230.441 3.86518 230.441 4.32709V7.2544C230.441 7.71631 230.066 8.09077 229.604 8.09077H219.986C219.524 8.09077 219.15 7.71631 219.15 7.2544V4.32709Z" fill="#020202"/>
</g>
</g>
<rect x="0.458984" y="18.8184" width="235.23" height="0.627279" fill="#020202"/>
<path d="M24.2956 55.7331L211.852 55.7331V271.398H24.2956L24.2956 55.7331Z" stroke="#020202" stroke-width="0.627279"/>
<rect x="15.2002" y="298.476" width="205.747" height="30.1094" rx="2.50912" fill="#212121"/>
<path d="M96.5226 314.189H97.7477C97.7085 314.657 97.5779 315.073 97.3557 315.439C97.1335 315.802 96.8215 316.087 96.4197 316.297C96.0178 316.506 95.5294 316.61 94.9544 316.61C94.5133 316.61 94.1164 316.532 93.7635 316.375C93.4107 316.215 93.1085 315.989 92.8569 315.699C92.6054 315.405 92.4126 315.05 92.2787 314.635C92.148 314.22 92.0826 313.756 92.0826 313.243V312.651C92.0826 312.138 92.1496 311.674 92.2836 311.259C92.4208 310.844 92.6168 310.489 92.8716 310.195C93.1265 309.898 93.4319 309.671 93.788 309.514C94.1474 309.357 94.5509 309.279 94.9985 309.279C95.567 309.279 96.0472 309.383 96.4393 309.593C96.8313 309.802 97.1352 310.091 97.3508 310.46C97.5697 310.829 97.7036 311.252 97.7526 311.729H96.5275C96.4948 311.422 96.4229 311.159 96.3119 310.94C96.204 310.721 96.044 310.555 95.8316 310.44C95.6192 310.323 95.3415 310.264 94.9985 310.264C94.7175 310.264 94.4725 310.316 94.2634 310.421C94.0543 310.525 93.8795 310.679 93.739 310.881C93.5986 311.084 93.4924 311.334 93.4205 311.631C93.3519 311.925 93.3176 312.262 93.3176 312.641V313.243C93.3176 313.603 93.3486 313.93 93.4107 314.224C93.476 314.514 93.574 314.764 93.7047 314.973C93.8387 315.183 94.0086 315.344 94.2144 315.459C94.4202 315.573 94.6669 315.63 94.9544 315.63C95.304 315.63 95.5866 315.575 95.8022 315.463C96.0211 315.352 96.1861 315.191 96.2972 314.978C96.4115 314.763 96.4866 314.5 96.5226 314.189ZM105.339 312.749V313.141C105.339 313.68 105.269 314.163 105.128 314.591C104.988 315.019 104.787 315.383 104.525 315.684C104.267 315.985 103.957 316.215 103.594 316.375C103.232 316.532 102.83 316.61 102.389 316.61C101.951 316.61 101.551 316.532 101.188 316.375C100.829 316.215 100.517 315.985 100.252 315.684C99.9873 315.383 99.7815 315.019 99.6345 314.591C99.4907 314.163 99.4188 313.68 99.4188 313.141V312.749C99.4188 312.209 99.4907 311.728 99.6345 311.303C99.7782 310.875 99.9808 310.511 100.242 310.21C100.507 309.906 100.819 309.676 101.178 309.519C101.541 309.359 101.941 309.279 102.379 309.279C102.82 309.279 103.222 309.359 103.584 309.519C103.947 309.676 104.259 309.906 104.52 310.21C104.782 310.511 104.983 310.875 105.123 311.303C105.267 311.728 105.339 312.209 105.339 312.749ZM104.109 313.141V312.739C104.109 312.34 104.07 311.989 103.991 311.685C103.916 311.378 103.803 311.122 103.653 310.916C103.506 310.707 103.325 310.55 103.109 310.445C102.893 310.337 102.65 310.284 102.379 310.284C102.108 310.284 101.866 310.337 101.654 310.445C101.441 310.55 101.26 310.707 101.11 310.916C100.963 311.122 100.85 311.378 100.771 311.685C100.693 311.989 100.654 312.34 100.654 312.739V313.141C100.654 313.539 100.693 313.892 100.771 314.199C100.85 314.506 100.964 314.766 101.114 314.978C101.268 315.187 101.451 315.346 101.663 315.454C101.876 315.558 102.117 315.61 102.389 315.61C102.663 315.61 102.906 315.558 103.119 315.454C103.331 315.346 103.511 315.187 103.658 314.978C103.805 314.766 103.916 314.506 103.991 314.199C104.07 313.892 104.109 313.539 104.109 313.141ZM107.853 309.377H108.951L111.014 314.88L113.072 309.377H114.17L111.445 316.512H110.573L107.853 309.377ZM107.353 309.377H108.397L108.578 314.14V316.512H107.353V309.377ZM113.626 309.377H114.674V316.512H113.444V314.14L113.626 309.377ZM119.629 313.851H117.772V312.876H119.629C119.952 312.876 120.214 312.824 120.413 312.719C120.612 312.615 120.758 312.471 120.849 312.288C120.944 312.102 120.991 311.889 120.991 311.651C120.991 311.425 120.944 311.215 120.849 311.019C120.758 310.819 120.612 310.659 120.413 310.538C120.214 310.417 119.952 310.357 119.629 310.357H118.149V316.512H116.919V309.377H119.629C120.181 309.377 120.65 309.475 121.035 309.671C121.424 309.864 121.72 310.132 121.922 310.475C122.125 310.814 122.226 311.203 122.226 311.641C122.226 312.102 122.125 312.497 121.922 312.827C121.72 313.157 121.424 313.41 121.035 313.587C120.65 313.763 120.181 313.851 119.629 313.851ZM126.147 310.328L124.015 316.512H122.726L125.412 309.377H126.235L126.147 310.328ZM127.931 316.512L125.794 310.328L125.701 309.377H126.529L129.224 316.512H127.931ZM127.828 313.866V314.841H123.946V313.866H127.828ZM136.468 309.377V316.512H135.237L132.037 311.401V316.512H130.807V309.377H132.037L135.247 314.498V309.377H136.468ZM139.261 309.377L140.917 312.783L142.574 309.377H143.936L141.535 313.885V316.512H140.295V313.885L137.894 309.377H139.261Z" fill="white"/>
<rect x="15.2002" y="338.476" width="205.747" height="30.1094" rx="2.50912" fill="#212121"/>
<path d="M88.6243 349.377V356.512H87.3943V349.377H88.6243ZM96.5977 349.377V356.512H95.3676L92.1675 351.401V356.512H90.9374V349.377H92.1675L95.3774 354.498V349.377H96.5977ZM100.92 356.512H99.3959L99.4057 355.537H100.92C101.361 355.537 101.73 355.441 102.028 355.248C102.328 355.055 102.554 354.779 102.704 354.42C102.857 354.06 102.934 353.632 102.934 353.136V352.749C102.934 352.363 102.89 352.022 102.802 351.724C102.717 351.427 102.589 351.177 102.42 350.975C102.253 350.772 102.047 350.618 101.802 350.514C101.56 350.409 101.281 350.357 100.964 350.357H99.3665V349.377H100.964C101.438 349.377 101.871 349.457 102.263 349.617C102.655 349.774 102.993 350.001 103.277 350.298C103.565 350.596 103.785 350.952 103.939 351.367C104.092 351.781 104.169 352.245 104.169 352.758V353.136C104.169 353.649 104.092 354.113 103.939 354.527C103.785 354.942 103.565 355.298 103.277 355.596C102.99 355.89 102.647 356.117 102.248 356.277C101.853 356.434 101.41 356.512 100.92 356.512ZM100.077 349.377V356.512H98.847V349.377H100.077ZM107.502 349.377V356.512H106.271V349.377H107.502ZM112.26 355.209L114.137 349.377H115.494L112.936 356.512H112.02L112.26 355.209ZM110.525 349.377L112.387 355.209L112.642 356.512H111.721L109.173 349.377H110.525ZM118.391 349.377V356.512H117.161V349.377H118.391ZM122.777 356.512H121.253L121.262 355.537H122.777C123.218 355.537 123.587 355.441 123.884 355.248C124.185 355.055 124.41 354.779 124.561 354.42C124.714 354.06 124.791 353.632 124.791 353.136V352.749C124.791 352.363 124.747 352.022 124.659 351.724C124.574 351.427 124.446 351.177 124.276 350.975C124.11 350.772 123.904 350.618 123.659 350.514C123.417 350.409 123.138 350.357 122.821 350.357H121.223V349.377H122.821C123.295 349.377 123.727 349.457 124.12 349.617C124.512 349.774 124.85 350.001 125.134 350.298C125.421 350.596 125.642 350.952 125.796 351.367C125.949 351.781 126.026 352.245 126.026 352.758V353.136C126.026 353.649 125.949 354.113 125.796 354.527C125.642 354.942 125.421 355.298 125.134 355.596C124.846 355.89 124.503 356.117 124.105 356.277C123.709 356.434 123.267 356.512 122.777 356.512ZM121.934 349.377V356.512H120.704V349.377H121.934ZM132.049 349.377H133.274V354.145C133.274 354.688 133.156 355.142 132.921 355.508C132.686 355.873 132.366 356.15 131.96 356.336C131.559 356.519 131.109 356.61 130.613 356.61C130.1 356.61 129.643 356.519 129.241 356.336C128.839 356.15 128.522 355.873 128.29 355.508C128.061 355.142 127.947 354.688 127.947 354.145V349.377H129.172V354.145C129.172 354.488 129.231 354.771 129.348 354.993C129.466 355.212 129.633 355.374 129.848 355.478C130.064 355.583 130.319 355.635 130.613 355.635C130.907 355.635 131.16 355.583 131.372 355.478C131.588 355.374 131.755 355.212 131.872 354.993C131.99 354.771 132.049 354.488 132.049 354.145V349.377ZM138.067 350.328L135.935 356.512H134.646L137.332 349.377H138.155L138.067 350.328ZM139.85 356.512L137.714 350.328L137.621 349.377H138.449L141.144 356.512H139.85ZM139.748 353.866V354.841H135.866V353.866H139.748ZM147.197 355.537V356.512H143.614V355.537H147.197ZM143.957 349.377V356.512H142.727V349.377H143.957Z" fill="white"/>
</g>
<rect x="0.772624" y="0.313639" width="234.602" height="417.768" rx="14.6864" stroke="#020202" stroke-width="0.627279"/>
<defs>
<clipPath id="clip0_687_3176">
<rect x="0.458984" width="235.23" height="418.395" rx="15" fill="white"/>
</clipPath>
<clipPath id="clip1_687_3176">
<rect width="235.23" height="12.5456" fill="white" transform="translate(0.458984)"/>
</clipPath>
<clipPath id="clip2_687_3176">
<rect width="15.682" height="10.0365" fill="white" transform="translate(217.268 0.981445)"/>
</clipPath>
</defs>
</svg>
