<svg width="266" height="576" viewBox="0 0 266 576" fill="none" xmlns="http://www.w3.org/2000/svg">
<g clip-path="url(#clip0_687_2294)">
<rect width="265.105" height="576" rx="25" fill="white"/>
<rect x="-2.93799" y="-3.1543" width="445.876" height="962.308" fill="#113D3C"/>
<path d="M68.6619 276.093C71.9018 276.065 75.1417 276.037 78.4798 276.008C79.4952 275.996 80.5107 275.984 81.5569 275.971C82.3721 275.967 83.1872 275.963 84.0023 275.961C84.6247 275.95 84.6247 275.95 85.2596 275.939C89.3044 275.938 92.2515 276.864 95.1832 279.684C97.6066 282.413 98.1852 285.103 98.1102 288.685C97.9477 291.119 96.7122 293.513 94.8997 295.143C93.8041 294.664 93.0863 294.088 92.2589 293.23C92.0498 293.015 91.8407 292.8 91.6253 292.579C91.3908 292.333 91.3908 292.333 91.1515 292.082C91.2213 291.892 91.2911 291.703 91.3631 291.508C92.1411 289.308 92.7985 287.395 92.195 285.066C91.2885 283.585 90.2962 282.701 88.7662 281.876C87.5779 281.6 86.4366 281.591 85.2203 281.603C84.8913 281.598 84.5624 281.593 84.2235 281.589C83.1819 281.576 82.1409 281.577 81.0993 281.579C80.3894 281.573 79.6795 281.566 78.9696 281.558C77.2373 281.54 75.5055 281.535 73.7731 281.536C73.7739 281.736 73.7746 281.936 73.7754 282.142C73.783 284.239 73.7881 286.336 73.7919 288.434C73.7936 289.214 73.7959 289.995 73.7988 290.775C73.803 291.904 73.8049 293.032 73.8064 294.16C73.8082 294.504 73.8099 294.847 73.8117 295.201C73.8119 297.581 73.6554 299.917 73.4324 302.287C71.8581 302.287 70.2838 302.287 68.6619 302.287C68.6619 293.643 68.6619 284.999 68.6619 276.093Z" fill="#FC9E01"/>
<path d="M191.866 280.02C194.424 281.859 196.059 284.303 196.656 287.405C197.023 291.067 196.761 294.803 194.596 297.929C192.547 300.277 189.977 301.79 186.902 302.287C182.645 302.54 179.077 302.261 175.733 299.385C173.322 297.146 172.113 294.461 171.833 291.198C171.714 287.537 172.714 284.268 175.243 281.567C179.761 277.344 186.58 276.848 191.866 280.02ZM178.405 284.513C176.721 287.161 176.183 289.721 176.839 292.842C177.47 294.775 178.603 296.479 180.353 297.559C182.635 298.558 185.143 298.528 187.498 297.823C189.499 296.67 191.159 295.522 191.866 293.239C192.335 290.641 192.474 287.578 190.991 285.278C189.424 283.466 187.507 282.455 185.145 282.109C182.714 281.977 180.086 282.669 178.405 284.513Z" fill="#FC9E01"/>
<path d="M155.554 282.557C157.815 284.125 159.507 286.127 160.195 288.831C160.328 289.728 160.369 290.58 160.367 291.486C160.368 291.931 160.368 291.931 160.369 292.385C160.324 293.102 160.324 293.102 159.983 293.442C159.492 293.484 158.999 293.503 158.506 293.512C158.192 293.519 157.878 293.526 157.555 293.533C157.043 293.541 157.043 293.541 156.521 293.55C156.174 293.557 155.826 293.564 155.468 293.571C154.354 293.594 153.239 293.614 152.125 293.634C151.371 293.648 150.618 293.663 149.864 293.678C148.012 293.715 146.16 293.749 144.309 293.782C144.522 294.224 144.737 294.664 144.952 295.104C145.072 295.349 145.191 295.595 145.314 295.847C146.016 297.136 147.069 297.672 148.398 298.205C150.793 298.834 152.96 298.519 155.213 297.524C155.677 297.198 156.135 296.862 156.576 296.504C157.723 296.978 158.275 297.517 158.961 298.545C158.365 300.06 157.402 300.846 155.962 301.579C152.894 302.807 149.028 302.813 145.962 301.575C143.283 300.266 141.55 298.491 140.433 295.739C139.471 292.786 139.573 290.1 140.747 287.221C142.006 284.875 143.899 282.669 146.449 281.723C149.296 281.148 153.019 280.952 155.554 282.557ZM145.416 286.894C144.476 288.123 144.476 288.123 143.968 290.381C148.016 290.381 152.064 290.381 156.235 290.381C156.235 288.248 155.607 287.468 154.191 285.958C151.43 283.908 147.731 284.583 145.416 286.894Z" fill="#FC9E01"/>
<path d="M117.389 282.897C119.369 284.789 120.368 286.599 120.485 289.375C120.495 290.177 120.494 290.979 120.489 291.782C120.489 292.073 120.488 292.365 120.488 292.665C120.486 293.59 120.482 294.516 120.477 295.441C120.476 296.071 120.474 296.701 120.473 297.331C120.469 298.869 120.463 300.408 120.456 301.947C119.691 302.329 119.259 302.333 118.412 302.33C118.053 302.331 118.053 302.331 117.688 302.332C117.049 302.287 117.049 302.287 116.367 301.947C116.154 301.245 116.154 301.245 116.026 300.586C115.717 300.804 115.408 301.021 115.089 301.245C112.787 302.704 110.151 302.478 107.508 302.287C105.715 301.874 104.525 301.188 103.419 299.715C102.471 298.089 102.096 296.673 102.396 294.803C103.269 292.844 104.373 291.482 106.396 290.701C107.542 290.371 108.456 290.303 109.645 290.315C110.235 290.318 110.235 290.318 110.837 290.321C111.242 290.327 111.647 290.333 112.065 290.338C112.478 290.342 112.892 290.345 113.318 290.348C114.334 290.356 115.351 290.367 116.367 290.381C116.274 289.891 116.177 289.402 116.078 288.914C116.025 288.642 115.971 288.369 115.916 288.089C115.57 286.932 114.918 286.348 113.982 285.618C111.396 284.758 108.977 285.195 106.551 286.308C105.849 286.619 105.189 286.817 104.441 286.979C103.343 285.218 103.343 285.218 103.078 284.598C103.492 283.356 103.752 283.283 104.888 282.706C108.7 280.911 113.798 280.276 117.389 282.897ZM106.847 294.378C106.354 295.421 106.299 296.043 106.485 297.185C107.179 298.223 107.736 298.757 108.953 299.102C111.233 299.432 113.34 299.171 115.233 297.789C115.955 297.063 116.347 296.405 116.432 295.382C116.424 295.111 116.416 294.84 116.408 294.561C116.402 294.288 116.396 294.014 116.39 293.732C116.383 293.524 116.375 293.316 116.367 293.102C115.338 293.084 114.309 293.07 113.279 293.06C112.846 293.051 112.846 293.051 112.404 293.043C109.411 293.01 109.411 293.01 106.847 294.378Z" fill="#FC9E01"/>
<path d="M78.0588 283.53C78.3243 283.531 78.5898 283.532 78.8633 283.532C79.1343 283.532 79.4053 283.532 79.6845 283.531C80.2585 283.531 80.8326 283.532 81.4066 283.533C82.2884 283.535 83.1701 283.533 84.0518 283.531C84.6082 283.531 85.1646 283.532 85.7209 283.532C85.9864 283.532 86.2519 283.531 86.5255 283.53C88.3865 283.538 88.3865 283.538 88.7664 283.918C88.8001 284.654 88.8106 285.392 88.809 286.129C88.8103 286.734 88.8103 286.734 88.8117 287.351C88.7664 288.34 88.7664 288.34 88.4257 288.68C87.5211 288.835 86.6122 288.919 85.6996 289.02C87.6944 291.256 89.7526 293.421 91.8811 295.53C92.0652 295.713 92.2492 295.895 92.4389 296.084C93.3784 297.014 94.3205 297.942 95.2653 298.868C95.6174 299.215 95.9695 299.563 96.3215 299.91C96.6381 300.22 96.9547 300.531 97.2809 300.85C97.9667 301.607 97.9667 301.607 97.9667 302.287C96.6465 302.347 95.3266 302.383 94.0055 302.415C93.6325 302.432 93.2596 302.449 92.8754 302.467C90.1631 302.516 90.1631 302.516 89.0689 301.848C88.5029 301.301 88.5029 301.301 87.7442 300.246C87.7442 300.022 87.7442 299.797 87.7442 299.566C87.4398 299.428 87.4398 299.428 87.1293 299.288C86.3831 298.887 85.9051 298.489 85.315 297.888C85.1241 297.695 84.9333 297.502 84.7366 297.304C84.5414 297.103 84.3461 296.902 84.145 296.696C83.9484 296.496 83.7518 296.297 83.5493 296.092C83.1829 295.72 82.8172 295.348 82.4524 294.974C81.9483 294.46 81.4387 293.951 80.9291 293.443C80.8167 294.678 80.7042 295.912 80.5884 297.185C79.8572 297.194 79.126 297.2 78.3948 297.206C77.9876 297.21 77.5804 297.214 77.1609 297.218C76.1586 297.185 76.1586 297.185 75.8179 296.844C75.7834 295.892 75.7703 294.948 75.7726 293.996C75.7723 293.71 75.7719 293.424 75.7716 293.13C75.7714 292.525 75.772 291.92 75.7734 291.315C75.7753 290.385 75.7734 289.456 75.7713 288.526C75.7715 287.94 75.7719 287.353 75.7726 286.767C75.7719 286.487 75.7712 286.207 75.7705 285.918C75.7799 283.664 75.7903 283.54 78.0588 283.53Z" fill="#FC9E01"/>
<path d="M128.391 277.081C128.859 277.086 128.859 277.086 129.337 277.093C129.65 277.096 129.964 277.099 130.286 277.102C130.528 277.106 130.77 277.11 131.02 277.114C131.086 277.659 131.149 278.205 131.211 278.751C131.247 279.055 131.282 279.359 131.319 279.672C131.36 280.516 131.36 280.516 131.02 281.536C131.434 281.532 131.848 281.528 132.275 281.524C132.815 281.521 133.355 281.518 133.895 281.515C134.168 281.512 134.442 281.509 134.723 281.506C135.42 281.503 136.116 281.518 136.812 281.536C137.153 281.876 137.153 281.876 137.186 282.579C137.175 283.365 137.164 284.152 137.153 284.938C134.286 285.106 134.286 285.106 131.36 285.278C131.337 286.737 131.316 288.194 131.304 289.653C131.299 290.148 131.292 290.643 131.283 291.138C131.271 291.854 131.265 292.569 131.261 293.284C131.255 293.714 131.25 294.143 131.244 294.585C131.38 296.033 131.715 296.92 132.383 298.205C133.93 298.977 135.855 298.524 137.494 298.205C138.567 300.018 138.567 300.018 138.346 301.011C137.463 302.039 136.41 302.256 135.091 302.401C132.79 302.429 130.828 302.416 128.975 300.926C127.396 298.946 127.223 297.392 127.238 294.937C127.239 294.652 127.239 294.366 127.24 294.072C127.241 293.161 127.246 292.249 127.25 291.337C127.252 290.719 127.253 290.101 127.255 289.483C127.258 287.968 127.264 286.453 127.271 284.938C126.147 284.938 125.022 284.938 123.864 284.938C123.831 282.579 123.831 282.579 123.864 281.876C124.205 281.536 124.205 281.536 124.909 281.503C125.33 281.509 125.33 281.509 125.759 281.515C126.041 281.518 126.322 281.521 126.612 281.524C126.83 281.528 127.047 281.532 127.271 281.536C127.267 281.245 127.263 280.955 127.259 280.655C127.256 280.279 127.253 279.903 127.25 279.516C127.246 279.141 127.242 278.766 127.238 278.38C127.283 277.128 127.283 277.128 128.391 277.081Z" fill="#FC9E01"/>
<path d="M166.741 273.538C167.48 273.712 167.48 273.712 168.374 274.584C169.289 276.867 168.229 279.129 167.459 281.345C167.363 281.626 167.267 281.907 167.168 282.197C166.933 282.885 166.695 283.571 166.458 284.258C164.158 284.64 164.158 284.64 163.391 284.258C163.841 282.349 164.29 280.441 164.754 278.475C164.416 278.362 164.079 278.25 163.732 278.134C163.211 277.094 163.312 276.219 163.391 275.073C164.011 273.464 165.176 273.464 166.741 273.538Z" fill="#FC9E01"/>
<path d="M78.0583 283.53C78.3238 283.53 78.5893 283.531 78.8629 283.532C79.1339 283.532 79.4049 283.531 79.6841 283.531C80.2581 283.531 80.8322 283.531 81.4062 283.533C82.2879 283.535 83.1696 283.533 84.0514 283.531C84.6077 283.531 85.1641 283.531 85.7205 283.532C85.986 283.531 86.2515 283.53 86.525 283.53C88.386 283.538 88.386 283.538 88.766 283.917C88.7997 284.654 88.8102 285.391 88.8086 286.128C88.8099 286.734 88.8099 286.734 88.8112 287.351C88.766 288.34 88.766 288.34 88.4252 288.68C87.8669 288.768 87.3052 288.836 86.7428 288.892C86.4375 288.925 86.1322 288.957 85.8177 288.991C85.0177 289.02 85.0177 289.02 84.3362 288.68C84.3362 288.455 84.3362 288.231 84.3362 287.999C85.6856 287.999 87.035 287.999 88.4252 287.999C88.4252 286.765 88.4252 285.53 88.4252 284.257C84.3771 284.257 80.329 284.257 76.1582 284.257C76.1582 288.411 76.1582 292.565 76.1582 296.844C76.0457 296.844 75.9333 296.844 75.8174 296.844C75.809 295.009 75.8028 293.175 75.7987 291.34C75.797 290.715 75.7947 290.09 75.7917 289.466C75.7876 288.57 75.7856 287.674 75.7841 286.778C75.7824 286.497 75.7806 286.216 75.7788 285.927C75.7787 285.257 75.7963 284.587 75.8174 283.917C76.4268 283.309 77.2471 283.533 78.0583 283.53Z" fill="#FD9D01"/>
<path d="M95.5812 299.566C95.9807 299.889 96.3778 300.216 96.7738 300.544C96.9952 300.725 97.2166 300.907 97.4447 301.094C97.6168 301.263 97.789 301.433 97.9664 301.607C97.9664 301.832 97.9664 302.056 97.9664 302.287C96.6463 302.357 95.3266 302.399 94.0052 302.436C93.4458 302.466 93.4458 302.466 92.8751 302.497C90.144 302.554 90.144 302.554 89.0686 301.747C88.5612 301.156 88.1341 300.579 87.7439 299.906C88.4983 300.244 89.0412 300.515 89.6038 301.128C90.3118 301.773 90.7718 301.751 91.7198 301.781C92.024 301.793 92.3281 301.805 92.6415 301.818C92.958 301.825 93.2745 301.833 93.6006 301.841C93.921 301.852 94.2414 301.864 94.5716 301.876C95.3624 301.904 96.1531 301.928 96.9442 301.947C96.6068 301.547 96.6068 301.547 96.2627 301.139C95.5812 300.246 95.5812 300.246 95.5812 299.566Z" fill="#FD9D01"/>
<path d="M176.68 280.176C176.905 280.288 177.13 280.4 177.362 280.516C176.575 281.414 175.787 282.312 174.976 283.237C174.864 282.901 174.752 282.564 174.636 282.217C175.31 281.543 175.985 280.87 176.68 280.176Z" fill="#FD9D01"/>
<path d="M116.367 299.226C116.592 299.226 116.817 299.226 117.048 299.226C117.048 300.124 117.048 301.022 117.048 301.948C116.823 301.948 116.599 301.948 116.367 301.948C115.984 299.991 115.984 299.991 116.367 299.226Z" fill="#FD9D01"/>
</g>
<defs>
<clipPath id="clip0_687_2294">
<rect width="265.105" height="576" rx="25" fill="white"/>
</clipPath>
</defs>
</svg>
