<svg width="14" height="14" viewBox="0 0 14 14" fill="none" xmlns="http://www.w3.org/2000/svg">
<path d="M10.7124 2.70567C11.6762 3.66941 12.2275 4.97024 12.2496 6.33308C12.2717 7.69592 11.7629 9.01393 10.8308 10.0084L10.7124 10.1309L8.23728 12.6054C7.92323 12.9193 7.50163 13.102 7.05787 13.1166C6.61412 13.1313 6.1814 12.9767 5.84737 12.6842L5.76337 12.6054L3.2877 10.1303C2.30313 9.14576 1.75 7.8104 1.75 6.418C1.75 5.02561 2.30313 3.69024 3.2877 2.70567C4.27227 1.7211 5.60764 1.16797 7.00003 1.16797C8.39243 1.16797 9.72779 1.7211 10.7124 2.70567ZM7.00003 4.668C6.77022 4.668 6.54266 4.71327 6.33034 4.80121C6.11802 4.88916 5.9251 5.01806 5.7626 5.18056C5.60009 5.34307 5.47119 5.53598 5.38324 5.7483C5.2953 5.96062 5.25003 6.18819 5.25003 6.418C5.25003 6.64781 5.2953 6.87538 5.38324 7.0877C5.47119 7.30002 5.60009 7.49294 5.7626 7.65544C5.9251 7.81794 6.11802 7.94684 6.33034 8.03479C6.54266 8.12274 6.77022 8.168 7.00003 8.168C7.46416 8.168 7.90928 7.98363 8.23747 7.65544C8.56566 7.32725 8.75003 6.88213 8.75003 6.418C8.75003 5.95387 8.56566 5.50875 8.23747 5.18056C7.90928 4.85238 7.46416 4.668 7.00003 4.668Z" fill="#EFF0F4"/>
</svg>
