<svg width="14" height="14" viewBox="0 0 14 14" fill="none" xmlns="http://www.w3.org/2000/svg">
<path d="M5.24935 1.75C5.35393 1.74997 5.4566 1.77806 5.5466 1.83132C5.6366 1.88458 5.71063 1.96106 5.76093 2.05275L5.79068 2.11692L6.95735 5.03358C7.00434 5.15093 7.01194 5.28036 6.97901 5.40239C6.94608 5.52443 6.8744 5.63247 6.77477 5.71025L6.71643 5.74992L5.73993 6.33558L5.77668 6.39567C6.24146 7.13358 6.86577 7.75789 7.60368 8.22267L7.66318 8.25883L8.24943 7.2835C8.3144 7.17505 8.41284 7.09064 8.52994 7.04298C8.64703 6.99532 8.77644 6.98699 8.89868 7.01925L8.96577 7.042L11.8824 8.20867C11.9795 8.24741 12.0645 8.31155 12.1283 8.39437C12.1921 8.47718 12.2325 8.57563 12.2453 8.67942L12.2493 8.75V11.0833C12.2493 12.0499 11.4659 12.8333 10.4643 12.8322C5.45993 12.5283 1.47052 8.53883 1.16602 3.5C1.16599 3.05363 1.33654 2.62412 1.64276 2.29935C1.94899 1.97458 2.36774 1.7791 2.81335 1.75292L2.91602 1.75H5.24935Z" fill="#EFF0F4"/>
</svg>
